<?xml version="1.0" encoding="utf-8"?>
<!-- Generator: Adobe Illustrator 25.0.0, SVG Export Plug-In . SVG Version: 6.00 Build 0)  -->
<svg version="1.1" id="图层_1" xmlns="http://www.w3.org/2000/svg" xmlns:xlink="http://www.w3.org/1999/xlink" x="0px" y="0px"
	 viewBox="0 0 215.48 285.6" style="enable-background:new 0 0 215.48 285.6;" xml:space="preserve">
<style type="text/css">
	.st0{fill:#680000;}
	.st1{fill:#FFFFFF;}
	.st2{fill:#CF000E;}
	.st3{fill:#D7B671;}
	.st4{fill:#133D82;}
	.st5{fill:#231815;}
</style>
<g>
	<path class="st0" d="M107.91,285.6h-0.34c-21.26,0-40.44-4.18-57.04-12.43c-0.2,0.21-0.42,0.46-0.64,0.71
		c-0.74,0.82-1.53,1.7-1.74,1.91c-0.73,0.8-1.68,1.43-2.72,1.79c-1.51,0.51-3.14,0.48-4.77-0.24c-1.03-0.48-2.95-0.88-4.1-1.12
		c-3.84-0.75-9.11-1.43-13.74-1.76c-1.65-0.12-3.22-0.19-4.67-0.19c-3.97,0-6.45,0.46-8.25,0.79l-0.91,0.16
		c-0.41,0.07-0.77,0.1-1.14,0.1c-2.33,0-4.44-1.19-5.64-3.2c-1.43-2.37-1.26-5.31,0.44-7.5c0.1-0.13,0.2-0.24,0.3-0.35l5.91-6.47
		c-3.93-3.75-6.3-7.46-7.05-11.03c-0.19-0.91-0.28-1.84-0.26-2.81l-0.01-0.28l0.02-0.2c0.01-0.21,0.03-0.41,0.05-0.61
		c0.33-4.11,2.92-6.87,4.32-8.36l0.39-0.42c1.87-2.13,4.91-5.77,7.9-9.34l0.1-0.12c-2.21-2.56-3.82-5.58-4.7-8.8
		c-1.73-0.67-3.3-1.64-4.67-2.88C1.79,210.12,0,206.05,0,201.82v-38.37c0-5.42,3.2-10.2,8.36-12.45c0.36-0.14,0.78-0.3,0.78-0.3
		l0.4-0.07h196.61l0.2,0.07c0,0,0.42,0.15,0.74,0.28c5.19,2.27,8.39,7.04,8.39,12.47v38.37c0,4.23-1.8,8.3-4.93,11.14
		c-1.37,1.25-2.94,2.22-4.66,2.88c-0.89,3.21-2.49,6.23-4.7,8.8l0.02,0.02c3.06,3.66,6.11,7.3,7.98,9.44l0.38,0.41
		c1.39,1.49,3.99,4.25,4.32,8.4c0.02,0.16,0.03,0.36,0.05,0.56l0.02,0.66c0.01,0.91-0.09,1.79-0.27,2.64
		c-0.75,3.57-3.12,7.28-7.05,11.03l5.91,6.46c0.1,0.12,0.2,0.23,0.3,0.36c1.69,2.19,1.87,5.13,0.44,7.5
		c-1.39,2.31-3.9,3.58-6.77,3.1l-0.85-0.16c-1.89-0.34-4.36-0.8-8.32-0.8c-1.45,0-3.02,0.06-4.66,0.19
		c-4.63,0.34-9.9,1.01-13.76,1.76c-1.14,0.24-3.07,0.64-4.07,1.11c-1.68,0.74-3.3,0.76-4.79,0.25c-1.06-0.37-2.01-0.99-2.76-1.82
		c-0.17-0.17-0.97-1.06-1.71-1.89c-0.22-0.25-0.44-0.49-0.64-0.71C148.34,281.42,129.16,285.6,107.91,285.6"/>
	<path class="st1" d="M62.63,205.31h0.89c0.6,0,1.19,0.04,1.77,0.11c0.34,0.05,0.66,0.13,0.99,0.21c0.23,0.05,0.46,0.08,0.68,0.14
		c0.49,0.14,0.96,0.32,1.42,0.52c0.04,0.02,0.09,0.03,0.13,0.05c2.47,1.14,4.3,3.18,4.88,6h2.07h1h5.98c2.53,0,5.15,0.98,7.09,2.67
		c5.13-1.49,11.32-2.37,18.01-2.38h0.38c6.69,0.01,12.88,0.89,18.01,2.38c1.95-1.69,4.57-2.67,7.09-2.67h4.95h2.03h2.06
		c0.59-2.82,2.42-4.86,4.89-6c0.04-0.02,0.09-0.03,0.13-0.05c0.45-0.2,0.93-0.38,1.42-0.52c0.22-0.06,0.45-0.09,0.68-0.14
		c0.33-0.08,0.65-0.16,0.99-0.21c0.57-0.08,1.17-0.11,1.76-0.11h0.89c0.89-4.03,4.49-7.05,8.78-7.05h8.27v-4.36v-28.03
		c0-5.22,3.34-9.67,7.99-11.34l0.03-91.98c0-13.17-10.72-23.89-23.9-23.89h-31.63c-3.78,3.56-8.87,5.75-14.46,5.75h-0.38
		c-5.59,0-10.68-2.19-14.46-5.75H61.46c-13.17,0-23.9,10.72-23.9,23.89l0.03,91.98c4.65,1.67,7.99,6.13,7.99,11.34v28.03h0.01v4.36
		h8.25C58.14,198.26,61.73,201.29,62.63,205.31"/>
	<path class="st1" d="M177.83,166.07c0-2.29,1.86-4.14,4.14-4.14h0.28v35.87c0,0.35-0.28,0.64-0.64,0.64h-3.79V166.07z"/>
	<path class="st1" d="M33.2,161.93h0.28c2.29,0,4.14,1.86,4.14,4.14v32.37h-3.79c-0.35,0-0.64-0.29-0.64-0.64V161.93z"/>
	<path class="st1" d="M16.99,212.48l-0.03-0.19l0.19-0.02c0.11-0.01,0.2-0.02,0.25-0.02c0.98-0.09,1.7-0.96,1.61-1.94
		c-0.09-0.96-0.95-1.64-1.95-1.6c-2.43,0.1-4.93-0.03-6.8-1.69c-1.46-1.3-2.3-3.19-2.3-5.19v-38.38c0-3.24,2.64-5.87,5.88-5.87
		c0.98,0,1.78-0.8,1.78-1.78v-4.04c0-1.97,0.84-3.86,2.3-5.19c1.48-1.35,3.41-1.98,5.41-1.79c3.54,0.34,6.32,3.57,6.32,7.36v14.89
		h-5.37c-0.98,0-1.78,0.8-1.78,1.78c0,0.98,0.8,1.77,1.78,1.77h5.37v6.14h-5.37c-0.98,0-1.78,0.8-1.78,1.78
		c0,0.98,0.8,1.78,1.78,1.78h5.37v17.51c0,2.31,1.88,4.2,4.19,4.2h11.75h8.25c2.14,0,4.04,1.28,4.87,3.25l0.1,0.24H43.82
		c-0.01,0-0.01,0-0.02,0c-3.6,0.01-6.71,2.44-7.59,5.93l-0.04,0.13h-4.26c-0.98,0-1.78,0.8-1.78,1.78c0,0.97,0.78,1.76,1.75,1.77
		c0.01,0,0.02,0,0.02,0h0.02h5.82c0.98,0,1.77-0.79,1.77-1.77c0-2.36,1.93-4.29,4.29-4.29h2.85h16.85c3.95,0,6.22,1.94,6.22,5.31
		c0,1.03,1,1.72,1.94,1.72h10.76c0.91,0,1.8,0.19,2.62,0.52c1.44,0.57,2.66,1.58,3.31,2.83l0.13,0.26h-8.95H67.46H49.34
		c-0.45,0-0.88,0.17-1.21,0.47c-1.53,1.43-2.98,2.48-4.42,3.27c-0.92,0.51-1.84,0.89-2.78,1.18c-1.73,0.54-3.51,0.77-5.44,0.77
		c-1.02,0-2.09-0.06-3.21-0.15c-2.73-0.24-5.21-0.97-7.36-2.11c-0.82-0.43-1.58-0.91-2.29-1.46
		C19.67,219.39,17.65,216.23,16.99,212.48"/>
	<path class="st1" d="M192.9,221.6c-0.71,0.55-1.47,1.03-2.28,1.47c-2.16,1.15-4.67,1.91-7.43,2.15c-1.13,0.09-2.19,0.15-3.21,0.15
		c-1.91,0-3.66-0.22-5.37-0.74c-0.94-0.29-1.87-0.67-2.8-1.17c-1.46-0.79-2.93-1.86-4.48-3.31c-0.33-0.31-0.76-0.48-1.21-0.48
		h-18.12h-12.09h-8.95l0.13-0.25c0.65-1.25,1.87-2.26,3.32-2.84c0.82-0.32,1.71-0.51,2.61-0.51h10.77c0.93,0,1.94-0.69,1.94-1.72
		c0-3.37,2.26-5.31,6.21-5.31h16.86h2.84c2.36,0,4.28,1.92,4.28,4.29c0,0.98,0.8,1.77,1.78,1.77h5.83c0.98,0,1.78-0.79,1.78-1.77
		c0-0.98-0.8-1.78-1.78-1.78h-4.25l-0.03-0.13c-0.88-3.48-3.99-5.92-7.58-5.93c-0.01,0-0.02,0-0.02,0h-15l0.1-0.24
		c0.82-1.97,2.74-3.25,4.87-3.25h8.27h11.73c2.31,0,4.2-1.89,4.2-4.2v-17.51h5.37c0.98,0,1.77-0.8,1.77-1.78
		c0-0.98-0.79-1.78-1.77-1.78h-5.37v-6.14h5.37c0.98,0,1.77-0.79,1.77-1.77c0-0.98-0.79-1.78-1.77-1.78h-5.37v-14.89
		c0-3.79,2.77-7.02,6.32-7.36c2-0.2,3.93,0.44,5.41,1.79c1.46,1.33,2.3,3.22,2.3,5.19v4.04c0,0.98,0.8,1.78,1.78,1.78
		c3.24,0,5.88,2.63,5.88,5.87v38.38c0,2-0.84,3.89-2.3,5.19c-1.86,1.65-4.37,1.79-6.8,1.69c-1-0.03-1.86,0.64-1.95,1.6
		c-0.09,0.97,0.63,1.84,1.6,1.94c0.05,0.01,0.15,0.02,0.25,0.02l0.19,0.02l-0.03,0.19C197.82,216.21,195.83,219.35,192.9,221.6"/>
	<path class="st0" d="M124.91,223.4c-0.03,0-0.06,0.01-0.09,0.01c-1.08,0-1.95-0.87-1.95-1.94c0-2.64,1.24-4.87,3.07-6.45
		c-5.12-1.49-11.32-2.37-18-2.38h-0.39c-6.69,0.01-12.88,0.89-18.01,2.38c1.83,1.59,3.07,3.81,3.07,6.45c0,1.07-0.88,1.94-1.95,1.94
		c-0.03,0-0.06-0.01-0.09-0.01H50.09c-1.08,0.96-2.13,1.74-3.18,2.42c17.1,12.32,40.07,20.14,60.83,20.14c0.01,0,0.03,0,0.05,0
		c0.01,0,0.03,0,0.04,0c20.73,0,43.69-7.8,60.77-20.1c-1.06-0.69-2.14-1.48-3.23-2.46H124.91z"/>
	<path class="st0" d="M209.75,212.08c2.89-2.62,4.54-6.36,4.54-10.27v-38.37c0-5.12-3.1-9.37-7.65-11.36
		c-0.31-0.12-0.7-0.27-0.7-0.27l-0.06-53.47c0-4.74-2.85-8.81-6.93-10.63v-0.63V63.13c0-25.13-20.41-45.58-45.5-45.58
		c-0.38-0.01-6.97-0.09-13.8-0.09c-1.42,0-6.32-0.33-9.54-4.57C123.14,3.7,116.93,0.08,107.96,0h-0.02h-0.02h-0.36h-0.02h-0.02
		c-8.97,0.08-15.18,3.7-22.15,12.88c-3.21,4.24-8.12,4.57-9.54,4.57c-6.83,0-13.41,0.08-13.8,0.09c-25.1,0.01-45.5,20.46-45.5,45.58
		v23.96v0.63c-4.07,1.82-6.93,5.89-6.93,10.63l-0.06,53.47c0,0-0.39,0.14-0.7,0.27c-4.55,1.99-7.65,6.24-7.65,11.36v38.37
		c0,3.9,1.65,7.65,4.54,10.27c1.41,1.28,3.06,2.25,4.86,2.86c0.88,3.61,2.7,6.94,5.28,9.68c-0.23,0.27-0.45,0.53-0.68,0.81
		l-0.03,0.04l-0.04,0.05c-2.99,3.57-6.05,7.22-7.92,9.37c-1.2,1.32-4.08,3.97-4.41,8.13c-0.02,0.17-0.03,0.35-0.04,0.52
		c-0.01,0.08-0.02,0.14-0.02,0.22l0.01,0.02c-0.03,0.91,0.04,1.82,0.23,2.76c0.76,3.6,3.29,7.34,7.56,11.2l-6.69,7.33
		c-0.08,0.09-0.16,0.19-0.24,0.28c-1.39,1.8-1.53,4.21-0.36,6.16c0.99,1.64,2.72,2.62,4.63,2.62c0.31,0,0.61-0.03,0.93-0.08
		c0.27-0.05,0.54-0.09,0.83-0.15l0.05-0.01c1.86-0.34,4.4-0.81,8.49-0.81c1.48,0,3.08,0.06,4.76,0.19
		c5.15,0.38,10.38,1.1,13.89,1.79c1.47,0.3,3.27,0.69,4.35,1.2c0.68,0.3,1.42,0.49,2.16,0.49c0.59,0,1.18-0.1,1.74-0.29
		c0.88-0.3,1.64-0.82,2.25-1.5l0.01,0.01c0.35-0.35,2.38-2.65,2.95-3.27c14.04,7.12,32.59,12.71,57.32,12.71h0.34
		c24.72,0,43.27-5.59,57.32-12.71c0.56,0.61,2.6,2.91,2.95,3.27l0.01-0.01c0.61,0.68,1.38,1.21,2.25,1.5
		c0.56,0.19,1.15,0.29,1.74,0.29c0.75,0,1.48-0.19,2.16-0.49l0.01,0.03c1.07-0.51,2.87-0.93,4.33-1.23
		c3.51-0.69,8.75-1.41,13.89-1.79c1.68-0.12,3.28-0.19,4.76-0.19c4.09,0,6.63,0.47,8.49,0.81l0.04,0.01c0.3,0.06,0.57,0.1,0.83,0.15
		c0.32,0.05,0.63,0.08,0.93,0.08c1.91,0,3.64-0.98,4.63-2.62c1.17-1.95,1.03-4.36-0.36-6.16c-0.08-0.1-0.16-0.2-0.24-0.28
		l-6.69-7.33c4.28-3.86,6.8-7.61,7.56-11.2c0.2-0.94,0.26-1.86,0.23-2.76l0.01-0.02c0-0.08-0.02-0.15-0.02-0.22
		c-0.01-0.17-0.02-0.35-0.04-0.52c-0.33-4.15-3.21-6.8-4.41-8.13c-1.88-2.15-4.94-5.8-7.93-9.37l-0.04-0.05l-0.03-0.04
		c-0.24-0.28-0.46-0.55-0.68-0.81c2.58-2.74,4.4-6.07,5.28-9.68C206.69,214.33,208.34,213.37,209.75,212.08 M194.78,98.07l3.78,0.21
		c0.38,0.05,0.47,0.31,0.22,0.58l-2.91,2.66c-0.25,0.25-0.39,0.75-0.32,1.08l0.83,3.54c0.07,0.37-0.16,0.55-0.5,0.4l-3.24-1.85
		c-0.32-0.14-0.86-0.14-1.14,0l-3.25,1.85c-0.34,0.15-0.57-0.03-0.52-0.4l0.86-3.54c0.06-0.33-0.09-0.83-0.34-1.08l-2.9-2.66
		c-0.25-0.27-0.16-0.53,0.21-0.58l3.78-0.21c0.35-0.03,0.75-0.31,0.91-0.63l1.5-3.69c0.17-0.34,0.45-0.34,0.6,0l1.5,3.69
		C194.02,97.76,194.43,98.04,194.78,98.07 M196.39,137.35c0.07,0.37-0.16,0.55-0.5,0.39l-3.24-1.84c-0.32-0.14-0.86-0.14-1.14,0
		l-3.25,1.84c-0.34,0.15-0.57-0.03-0.52-0.39l0.86-3.54c0.06-0.33-0.09-0.83-0.34-1.08l-2.9-2.66c-0.25-0.27-0.16-0.53,0.21-0.58
		l3.78-0.21c0.35-0.03,0.75-0.31,0.91-0.63l1.5-3.69c0.17-0.34,0.45-0.34,0.6,0l1.5,3.69c0.16,0.32,0.56,0.6,0.92,0.63l3.78,0.21
		c0.38,0.05,0.47,0.31,0.22,0.58l-2.91,2.66c-0.25,0.25-0.39,0.75-0.32,1.08L196.39,137.35z M198.78,114.47l-2.91,2.66
		c-0.25,0.25-0.39,0.75-0.32,1.08l0.83,3.54c0.07,0.37-0.16,0.55-0.5,0.4l-3.24-1.85c-0.32-0.14-0.86-0.14-1.14,0l-3.25,1.85
		c-0.34,0.15-0.57-0.03-0.52-0.4l0.86-3.54c0.06-0.33-0.09-0.83-0.34-1.08l-2.9-2.66c-0.25-0.27-0.16-0.53,0.21-0.58l3.78-0.21
		c0.35-0.03,0.75-0.31,0.91-0.63l1.5-3.69c0.17-0.34,0.45-0.34,0.6,0l1.5,3.69c0.16,0.32,0.56,0.6,0.92,0.63l3.78,0.21
		C198.94,113.93,199.03,114.2,198.78,114.47 M132.87,21.35c1.15,0,2.15,0.65,2.65,1.6h18.51c21.95,0,39.8,17.88,39.8,39.87v25.15
		c0,0.77-0.62,1.39-1.39,1.39c-0.77,0-1.39-0.62-1.39-1.39V62.82c0-20.45-16.61-37.1-37.03-37.1h-18.51c-0.5,0.95-1.5,1.6-2.65,1.6
		c-1.65,0-2.99-1.33-2.99-2.99C129.88,22.69,131.21,21.35,132.87,21.35 M22.05,62.82c0-21.99,17.86-39.87,39.8-39.87h18.51
		c0.5-0.95,1.5-1.6,2.65-1.6c1.65,0,2.99,1.34,2.99,2.99c0,1.65-1.34,2.99-2.99,2.99c-1.15,0-2.15-0.65-2.65-1.6H61.85
		c-20.41,0-37.02,16.64-37.02,37.1v25.15c0,0.77-0.63,1.39-1.39,1.39s-1.39-0.62-1.39-1.39V62.82z M16.94,98.28l3.79-0.21
		c0.35-0.03,0.75-0.31,0.91-0.63l1.49-3.69c0.17-0.34,0.45-0.34,0.6,0l1.51,3.69c0.15,0.32,0.56,0.6,0.91,0.63l3.78,0.21
		c0.38,0.05,0.47,0.31,0.22,0.58l-2.91,2.66c-0.25,0.25-0.39,0.75-0.33,1.08l0.84,3.54c0.06,0.37-0.16,0.55-0.5,0.4l-3.24-1.85
		c-0.32-0.14-0.86-0.14-1.15,0l-3.25,1.85c-0.34,0.15-0.58-0.03-0.52-0.4l0.86-3.54c0.06-0.33-0.09-0.83-0.34-1.08l-2.91-2.66
		C16.47,98.59,16.57,98.33,16.94,98.28 M16.94,113.89l3.79-0.21c0.35-0.03,0.75-0.31,0.91-0.63l1.49-3.69c0.17-0.34,0.45-0.34,0.6,0
		l1.51,3.69c0.15,0.32,0.56,0.6,0.91,0.63l3.78,0.21c0.38,0.05,0.47,0.31,0.22,0.58l-2.91,2.66c-0.25,0.25-0.39,0.75-0.33,1.08
		l0.84,3.54c0.06,0.37-0.16,0.55-0.5,0.4l-3.24-1.85c-0.32-0.14-0.86-0.14-1.15,0l-3.25,1.85c-0.34,0.15-0.58-0.03-0.52-0.4
		l0.86-3.54c0.06-0.33-0.09-0.83-0.34-1.08l-2.91-2.66C16.47,114.2,16.57,113.93,16.94,113.89 M16.94,129.49l3.79-0.21
		c0.35-0.03,0.75-0.31,0.91-0.63l1.49-3.69c0.17-0.34,0.45-0.34,0.6,0l1.51,3.69c0.15,0.32,0.56,0.6,0.91,0.63l3.78,0.21
		c0.38,0.05,0.47,0.31,0.22,0.58l-2.91,2.66c-0.25,0.25-0.39,0.75-0.33,1.08l0.84,3.54c0.06,0.37-0.16,0.55-0.5,0.39l-3.24-1.84
		c-0.32-0.14-0.86-0.14-1.15,0l-3.25,1.84c-0.34,0.15-0.58-0.03-0.52-0.39l0.86-3.54c0.06-0.33-0.09-0.83-0.34-1.08l-2.91-2.66
		C16.47,129.8,16.57,129.54,16.94,129.49 M195.28,224.42c0.84,1,1.7,2.03,2.58,3.08c3.46,4.13,7,8.37,8.79,10.35
		c0.24,0.26,0.63,0.64,1.04,1.12c0.05,0.06,0.1,0.1,0.15,0.16c0.02,0.03,0.03,0.06,0.05,0.09c0.3,0.37,0.59,0.78,0.86,1.28
		c0.16,0.28,0.32,0.57,0.45,0.9c0.01,0.02,0.01,0.02,0.01,0.03c0.54,1.35,0.66,2.87,0.32,4.46c-0.75,3.57-3.81,7.45-9,11.57
		l8.89,9.73c0.66,0.85,0.73,1.89,0.22,2.72c-0.49,0.81-1.41,1.24-2.34,1.07l-0.85-0.16c-2.63-0.48-6.59-1.21-14.04-0.67
		c-7.34,0.53-16.77,1.95-19.1,3.2c-0.34,0.18-0.71,0.27-1.08,0.27c-0.24,0-0.49-0.04-0.73-0.12c-0.31-0.1-0.59-0.28-0.82-0.5v0.01
		c-0.5-0.44-1.17-1.33-1.75-1.95l-3.05-3.3c-13.95,7.48-32.67,13.53-58.07,13.53c-0.02,0-0.03,0-0.05,0c-0.02,0-0.03,0-0.05,0
		c-25.4,0-44.12-6.06-58.07-13.53l-3.05,3.3c-0.58,0.62-1.25,1.51-1.75,1.95v-0.01c-0.23,0.22-0.51,0.39-0.82,0.5
		c-0.23,0.08-0.48,0.12-0.73,0.12c-0.37,0-0.74-0.09-1.08-0.27c-2.33-1.25-11.76-2.66-19.1-3.2c-7.44-0.55-11.41,0.19-14.04,0.67
		l-0.85,0.16c-0.93,0.16-1.85-0.26-2.34-1.07c-0.5-0.84-0.44-1.87,0.22-2.72l8.89-9.73c-5.19-4.11-8.24-8-9-11.57
		c-0.34-1.59-0.21-3.11,0.33-4.46c0.01-0.01,0.01-0.02,0.02-0.03c0.13-0.33,0.29-0.61,0.45-0.9c0.27-0.5,0.57-0.91,0.86-1.28
		c0.02-0.03,0.02-0.06,0.05-0.09c0.05-0.06,0.1-0.1,0.16-0.16c0.41-0.49,0.79-0.86,1.03-1.12c1.79-1.98,5.33-6.22,8.79-10.35
		c0.87-1.03,1.72-2.05,2.54-3.03c-3.82-2.98-6.38-7.19-7.05-12.05c-2.02-0.34-3.92-1.24-5.45-2.63c-2.23-2.04-3.52-4.94-3.52-7.95
		v-38.38c0-4.62,3.29-8.5,7.65-9.4v-2.29c0-3.02,1.28-5.92,3.52-7.95c2.23-2.03,5.25-3.03,8.27-2.74c5.44,0.52,9.7,5.38,9.7,11.08
		v6.05h0.11c4.35,0,7.88,3.53,7.88,7.87v32.19h4.22v-4.36h-0.01v-28.02c0-5.22-3.34-9.67-7.99-11.34l-0.03-91.98
		c0-13.17,10.72-23.9,23.89-23.9h31.63c3.78,3.56,8.87,5.75,14.46,5.75h0.38c5.59,0,10.68-2.19,14.46-5.75h31.63
		c13.17,0,23.9,10.72,23.9,23.9l-0.03,91.98c-4.65,1.67-7.99,6.13-7.99,11.34v28.02v4.36h4.21v-32.19c0-4.34,3.53-7.87,7.88-7.87
		h0.11v-6.05c0-5.69,4.26-10.56,9.7-11.08c3.03-0.29,6.04,0.71,8.27,2.74c2.24,2.04,3.52,4.94,3.52,7.95v2.29
		c4.36,0.91,7.66,4.78,7.66,9.4v38.38c0,3.02-1.28,5.92-3.52,7.95c-1.53,1.39-3.43,2.29-5.45,2.63
		C201.6,217.25,199.06,221.45,195.28,224.42"/>
	<path class="st2" d="M182.32,268.59c3.43-0.5,7.05-0.89,9.9-1.1c7.52-0.55,11.67,0.15,14.43,0.66l-8.27-9.05
		C194.17,262.16,188.8,265.33,182.32,268.59"/>
	<path class="st2" d="M175.51,258.67c0.77-0.55,1.53-1.08,2.26-1.62c0.2-0.15,0.41-0.3,0.61-0.45c2.56-1.92,4.88-3.82,6.98-5.63
		c2.44-2.09,4.59-4.07,6.49-5.82c0.05-0.05,0.1-0.09,0.15-0.14c4.28-3.93,7.64-7.01,10.52-7.82c-1.89-2.2-4.33-5.12-6.72-7.98
		c-0.93-1.1-1.86-2.21-2.76-3.28c-2.75,1.62-5.98,2.69-9.53,2.99c-1.21,0.1-2.36,0.16-3.49,0.16c-3.11,0-5.98-0.48-8.85-1.8
		c-17.64,13.04-41.68,21.36-63.34,21.36c-0.02,0-0.03,0-0.05,0c-0.01,0-0.03,0-0.05,0c-21.68,0-45.74-8.33-63.38-21.39
		c-2.89,1.35-5.79,1.83-8.92,1.83c-1.13,0-2.29-0.06-3.49-0.16c-3.52-0.31-6.72-1.35-9.46-2.95c-0.89,1.06-1.8,2.15-2.72,3.24
		c-2.39,2.86-4.83,5.78-6.72,7.98c2.87,0.81,6.24,3.88,10.51,7.82c0.05,0.05,0.1,0.09,0.15,0.14c1.9,1.75,4.05,3.72,6.49,5.82
		c2.11,1.81,4.42,3.71,6.99,5.63c0.2,0.15,0.41,0.3,0.61,0.45c0.73,0.54,1.49,1.08,2.26,1.62c1.89,1.33,3.9,2.65,6.04,3.94
		c0.57,0.35,1.14,0.7,1.73,1.04c0.42,0.24,0.86,0.49,1.29,0.73c0.4,0.23,0.8,0.45,1.21,0.67c0.4,0.22,0.82,0.43,1.22,0.65
		c13.59,7.17,31.72,12.91,56.17,12.91c0.02,0,0.03,0,0.05,0c0.02,0,0.03,0,0.05,0c24.46,0,42.59-5.74,56.17-12.91
		c0.41-0.22,0.83-0.43,1.23-0.65c0.41-0.22,0.81-0.45,1.21-0.67c0.44-0.24,0.87-0.49,1.29-0.73c0.59-0.34,1.17-0.69,1.73-1.04
		C171.6,261.32,173.62,260,175.51,258.67"/>
	<path class="st2" d="M209.2,241.41c0.01,0.01,0.01,0.02,0.02,0.03C209.21,241.43,209.2,241.42,209.2,241.41"/>
	<path class="st2" d="M206.91,243.14L206.91,243.14c-0.05-0.27-0.12-0.51-0.2-0.73c-0.02-0.05-0.03-0.09-0.05-0.13
		c-0.08-0.2-0.16-0.37-0.25-0.53c-0.04-0.06-0.08-0.11-0.12-0.18c-0.08-0.11-0.16-0.23-0.24-0.33c-0.13-0.15-0.27-0.28-0.39-0.39
		c-0.04-0.04-0.1-0.08-0.17-0.14c-0.02-0.01-0.05-0.03-0.06-0.04c-0.06-0.04-0.1-0.08-0.17-0.12c-0.02-0.01-0.04-0.02-0.06-0.04
		l-0.29-0.12c-0.06-0.02-0.1-0.04-0.16-0.06l-0.03-0.01c-1.12-0.33-2.59-0.43-6.02,2.34c-0.53,0.42-1.1,0.91-1.72,1.48
		c-0.97,0.85-2.04,1.83-3.21,2.91c-0.03,0.03-0.06,0.06-0.09,0.08c-0.23,0.21-0.46,0.43-0.7,0.64c-1.91,1.74-3.16,2.87-3.52,3.19
		c-1.74,1.55-3.64,3.19-5.72,4.87c-0.64,0.52-1.31,1.05-1.98,1.58c-0.74,0.57-1.49,1.14-2.27,1.72c-2.76,2.05-5.81,4.11-9.15,6.11
		c-0.42,0.25-0.83,0.51-1.26,0.75c-0.24,0.14-0.5,0.28-0.75,0.42l1.28,1.38l2.45,2.66c0.05-0.02,0.09-0.03,0.14-0.05
		c0.02-0.01,0.03-0.02,0.05-0.02c10.52-4.7,17.9-8.82,23.07-12.36c0.66-0.46,1.28-0.9,1.87-1.33c0.53-0.39,1.03-0.77,1.51-1.14
		c5.95-4.66,7.77-8.09,8.22-10.21c0.09-0.42,0.13-0.84,0.13-1.24c0-0.03-0.01-0.05-0.01-0.08
		C207.02,243.72,206.98,243.43,206.91,243.14"/>
	<path class="st2" d="M8.91,268.15c2.76-0.51,6.9-1.2,14.43-0.66c2.85,0.21,6.47,0.6,9.91,1.1c-6.47-3.25-11.85-6.42-16.07-9.48
		L8.91,268.15z"/>
	<path class="st2" d="M6.36,241.44c0.01-0.01,0.01-0.02,0.02-0.04C6.37,241.43,6.36,241.43,6.36,241.44z"/>
	<path class="st2" d="M45.24,265.25c-3.34-2-6.39-4.07-9.15-6.12c-0.78-0.58-1.54-1.15-2.27-1.73c-0.68-0.53-1.34-1.05-1.98-1.57
		c-2.08-1.68-3.98-3.32-5.72-4.87c-0.35-0.32-1.6-1.45-3.52-3.19c-0.23-0.21-0.47-0.43-0.7-0.64c-0.03-0.03-0.06-0.05-0.09-0.08
		c-1.17-1.08-2.24-2.05-3.21-2.91c-0.63-0.56-1.19-1.05-1.72-1.47c-3.43-2.77-4.9-2.68-6.03-2.34l-0.02,0.01
		c-0.06,0.02-0.1,0.04-0.16,0.06l-0.29,0.12c-0.02,0.01-0.04,0.03-0.06,0.04c-0.07,0.04-0.12,0.08-0.17,0.11
		c-0.02,0.02-0.04,0.03-0.06,0.05c-0.07,0.05-0.13,0.1-0.17,0.14c-0.13,0.1-0.26,0.24-0.39,0.39c-0.08,0.09-0.16,0.22-0.24,0.33
		c-0.04,0.06-0.08,0.11-0.12,0.18c-0.09,0.16-0.18,0.34-0.25,0.53c-0.02,0.04-0.03,0.09-0.05,0.13c-0.08,0.22-0.15,0.46-0.2,0.73
		c-0.06,0.29-0.1,0.58-0.11,0.89c-0.01,0.03-0.01,0.05-0.01,0.08c-0.01,0.4,0.03,0.81,0.13,1.24c0.45,2.12,2.27,5.55,8.22,10.21
		c0.48,0.37,0.98,0.75,1.51,1.14c0.59,0.43,1.21,0.88,1.87,1.33c5.16,3.54,12.54,7.66,23.07,12.36c0.02,0.01,0.03,0.02,0.05,0.03
		c0.05,0.02,0.1,0.04,0.14,0.05l2.46-2.66l1.28-1.38c-0.25-0.14-0.51-0.28-0.75-0.43C46.07,265.75,45.66,265.5,45.24,265.25"/>
	<path class="st3" d="M191.76,93.75l-1.49,3.69c-0.16,0.32-0.56,0.6-0.91,0.63l-3.79,0.21c-0.37,0.05-0.46,0.31-0.21,0.58l2.91,2.66
		c0.24,0.25,0.39,0.75,0.33,1.08l-0.86,3.54c-0.06,0.37,0.18,0.55,0.52,0.39l3.25-1.84c0.28-0.14,0.82-0.14,1.15,0l3.24,1.84
		c0.34,0.15,0.56-0.03,0.49-0.39l-0.84-3.54c-0.06-0.33,0.08-0.83,0.33-1.08l2.91-2.66c0.25-0.27,0.17-0.53-0.22-0.58l-3.78-0.21
		c-0.35-0.03-0.76-0.31-0.91-0.63l-1.51-3.69C192.21,93.42,191.93,93.42,191.76,93.75"/>
	<path class="st3" d="M198.56,113.89l-3.78-0.21c-0.35-0.03-0.75-0.31-0.91-0.63l-1.5-3.69c-0.15-0.34-0.44-0.34-0.6,0l-1.5,3.69
		c-0.16,0.32-0.56,0.6-0.91,0.63l-3.78,0.21c-0.37,0.05-0.47,0.31-0.22,0.58l2.91,2.66c0.25,0.25,0.39,0.75,0.34,1.08l-0.86,3.54
		c-0.06,0.37,0.19,0.55,0.52,0.39l3.25-1.84c0.28-0.14,0.82-0.14,1.14,0l3.24,1.84c0.34,0.15,0.57-0.03,0.5-0.39l-0.84-3.54
		c-0.06-0.33,0.08-0.83,0.33-1.08l2.91-2.66C199.03,114.2,198.95,113.93,198.56,113.89"/>
	<path class="st3" d="M23.44,89.35c0.77,0,1.39-0.62,1.39-1.39V62.82c0-20.45,16.61-37.1,37.03-37.1h18.51
		c0.5,0.96,1.5,1.61,2.65,1.61c1.65,0,2.99-1.34,2.99-2.99c0-1.65-1.34-2.99-2.99-2.99c-1.15,0-2.15,0.65-2.65,1.6H61.85
		c-21.95,0-39.8,17.89-39.8,39.87v25.15C22.05,88.73,22.67,89.35,23.44,89.35"/>
	<path class="st3" d="M132.87,27.33c1.15,0,2.15-0.65,2.65-1.6h18.51c20.42,0,37.03,16.64,37.03,37.09v25.15
		c0,0.77,0.62,1.39,1.39,1.39s1.39-0.62,1.39-1.39V62.82c0-21.98-17.85-39.87-39.8-39.87h-18.51c-0.5-0.95-1.5-1.6-2.65-1.6
		c-1.65,0-2.99,1.34-2.99,2.99C129.88,25.98,131.22,27.33,132.87,27.33"/>
	<path class="st3" d="M198.78,130.07c0.25-0.27,0.16-0.53-0.22-0.58l-3.78-0.21c-0.35-0.03-0.76-0.31-0.92-0.63l-1.5-3.69
		c-0.15-0.34-0.43-0.34-0.6,0l-1.5,3.69c-0.16,0.32-0.56,0.6-0.91,0.63l-3.78,0.21c-0.37,0.05-0.47,0.31-0.22,0.58l2.91,2.66
		c0.25,0.25,0.4,0.75,0.34,1.08l-0.86,3.54c-0.05,0.37,0.19,0.55,0.52,0.4l3.25-1.85c0.28-0.14,0.82-0.14,1.14,0l3.24,1.85
		c0.34,0.15,0.57-0.03,0.5-0.4l-0.83-3.54c-0.06-0.33,0.08-0.83,0.32-1.08L198.78,130.07z"/>
	<path class="st3" d="M19.63,101.52c0.25,0.25,0.4,0.74,0.34,1.07l-0.86,3.54c-0.06,0.37,0.18,0.55,0.52,0.4l3.25-1.85
		c0.28-0.13,0.82-0.13,1.14,0l3.24,1.85c0.34,0.15,0.56-0.03,0.5-0.4l-0.84-3.54c-0.06-0.33,0.08-0.82,0.33-1.07l2.91-2.66
		c0.25-0.27,0.16-0.53-0.22-0.59l-3.78-0.2c-0.35-0.03-0.75-0.31-0.91-0.64l-1.51-3.68c-0.15-0.34-0.43-0.34-0.6,0l-1.49,3.68
		c-0.16,0.32-0.56,0.61-0.91,0.64l-3.78,0.2c-0.38,0.05-0.47,0.31-0.22,0.59L19.63,101.52z"/>
	<path class="st3" d="M19.63,117.13c0.25,0.25,0.4,0.75,0.34,1.08l-0.86,3.54c-0.06,0.37,0.18,0.55,0.52,0.4l3.25-1.85
		c0.28-0.14,0.82-0.14,1.14,0l3.24,1.85c0.34,0.15,0.56-0.03,0.5-0.4l-0.84-3.54c-0.06-0.33,0.08-0.83,0.33-1.08l2.91-2.66
		c0.25-0.27,0.16-0.53-0.22-0.58l-3.78-0.21c-0.35-0.03-0.75-0.31-0.91-0.63l-1.51-3.69c-0.15-0.34-0.43-0.34-0.6,0l-1.49,3.69
		c-0.16,0.32-0.56,0.6-0.91,0.63l-3.78,0.21c-0.38,0.05-0.47,0.31-0.22,0.58L19.63,117.13z"/>
	<path class="st3" d="M19.63,132.73c0.25,0.25,0.4,0.74,0.34,1.07l-0.86,3.55c-0.06,0.37,0.18,0.55,0.52,0.4l3.25-1.85
		c0.28-0.13,0.82-0.13,1.14,0l3.24,1.85c0.34,0.15,0.56-0.03,0.5-0.4l-0.84-3.55c-0.06-0.33,0.08-0.82,0.33-1.07l2.91-2.66
		c0.25-0.27,0.16-0.53-0.22-0.58l-3.78-0.21c-0.35-0.03-0.75-0.31-0.91-0.63l-1.51-3.69c-0.15-0.34-0.43-0.34-0.6,0l-1.49,3.69
		c-0.16,0.32-0.56,0.6-0.91,0.63l-3.78,0.21c-0.38,0.05-0.47,0.31-0.22,0.58L19.63,132.73z"/>
	<path class="st3" d="M198.9,197.64c0.98,0,1.78-0.8,1.78-1.78v-29.11c0-0.99-0.8-1.78-1.78-1.78c-0.98,0-1.78,0.79-1.78,1.78v29.11
		C197.12,196.85,197.92,197.64,198.9,197.64"/>
	<path class="st3" d="M16.56,164.97c-0.98,0-1.78,0.79-1.78,1.78v29.11c0,0.99,0.8,1.78,1.78,1.78c0.98,0,1.78-0.79,1.78-1.78
		v-29.11C18.34,165.76,17.54,164.97,16.56,164.97"/>
	<path class="st3" d="M202.26,212.42c2.02-0.34,3.92-1.24,5.45-2.63c2.24-2.04,3.52-4.94,3.52-7.95v-38.38c0-4.63-3.3-8.5-7.66-9.41
		v-2.28c0-3.02-1.28-5.92-3.52-7.95c-2.23-2.03-5.24-3.03-8.27-2.74c-5.44,0.52-9.7,5.38-9.7,11.07v6.06h-0.11
		c-4.35,0-7.87,3.53-7.87,7.87v32.19h-4.21h-8.27c-4.29,0-7.89,3.03-8.78,7.05h-0.89c-4.8,0-8.94,2.51-9.87,7.03h-2.06h-2.03h-4.95
		c-2.53,0-5.14,0.98-7.09,2.67c-1.83,1.58-3.07,3.81-3.07,6.44c0,1.08,0.88,1.95,1.95,1.95c0.03,0,0.06-0.01,0.09-0.01h40.47
		c1.09,0.97,2.16,1.77,3.23,2.46c-17.09,12.3-40.05,20.1-60.77,20.1c-0.02,0-0.03-0.01-0.05-0.01c-0.01,0-0.03,0.01-0.05,0.01
		c-20.75,0-43.73-7.82-60.82-20.14c1.04-0.68,2.1-1.47,3.17-2.42h40.47c0.03,0,0.06,0.01,0.09,0.01c1.08,0,1.95-0.87,1.95-1.95
		c0-2.64-1.24-4.86-3.07-6.44c-1.95-1.69-4.57-2.67-7.09-2.67h-5.98h-1h-2.07c-0.93-4.52-5.08-7.03-9.87-7.03h-0.89
		c-0.9-4.03-4.49-7.05-8.78-7.05h-8.25h-4.22v-32.19c0-4.34-3.53-7.87-7.88-7.87h-0.11v-6.06c0-5.69-4.26-10.55-9.7-11.07
		c-3.02-0.28-6.04,0.71-8.27,2.74c-2.24,2.04-3.52,4.93-3.52,7.95v2.28c-4.36,0.91-7.65,4.78-7.65,9.41v38.38
		c0,3.02,1.28,5.92,3.52,7.95c1.53,1.39,3.43,2.29,5.45,2.63c0.67,4.86,3.23,9.07,7.05,12.04c-0.82,0.99-1.67,2-2.54,3.03
		c-3.46,4.13-7,8.37-8.79,10.35c-0.24,0.26-0.62,0.63-1.03,1.13c-0.05,0.06-0.1,0.1-0.16,0.16c-0.02,0.03-0.03,0.06-0.05,0.09
		c-0.29,0.37-0.59,0.78-0.86,1.28c-0.16,0.28-0.31,0.56-0.45,0.9c0,0.01-0.01,0.02-0.01,0.04c-0.54,1.35-0.66,2.87-0.32,4.46
		c0.75,3.56,3.81,7.45,9,11.57l-8.89,9.73c-0.66,0.85-0.72,1.89-0.22,2.72c0.49,0.81,1.41,1.23,2.34,1.07l0.85-0.16
		c2.63-0.48,6.6-1.21,14.04-0.67c7.34,0.53,16.77,1.95,19.1,3.2c0.34,0.18,0.71,0.27,1.08,0.27c0.24,0,0.49-0.04,0.73-0.12
		c0.31-0.1,0.59-0.28,0.82-0.5l0.01,0.01c0.49-0.44,1.17-1.34,1.75-1.96l3.05-3.3c13.95,7.48,32.67,13.54,58.07,13.54
		c0.02,0,0.03,0,0.05,0c0.02,0,0.03,0,0.05,0c25.4,0,44.12-6.06,58.07-13.54l3.05,3.3c0.58,0.63,1.25,1.52,1.75,1.96v-0.01
		c0.24,0.22,0.51,0.4,0.82,0.5c0.24,0.08,0.48,0.12,0.73,0.12c0.37,0,0.74-0.09,1.08-0.27c2.33-1.25,11.76-2.66,19.1-3.2
		c7.44-0.55,11.4,0.19,14.03,0.67l0.85,0.16c0.93,0.16,1.86-0.26,2.34-1.07c0.5-0.84,0.44-1.87-0.22-2.72l-8.89-9.73
		c5.19-4.11,8.25-8,9-11.57c0.34-1.6,0.21-3.11-0.33-4.46c-0.01-0.01-0.01-0.02-0.01-0.04c-0.13-0.34-0.3-0.61-0.45-0.9
		c-0.27-0.5-0.57-0.91-0.86-1.28c-0.02-0.03-0.02-0.06-0.05-0.09c-0.05-0.06-0.1-0.1-0.15-0.16c-0.41-0.49-0.8-0.86-1.04-1.13
		c-1.79-1.98-5.33-6.22-8.79-10.35c-0.88-1.06-1.75-2.08-2.58-3.08C199.06,221.45,201.59,217.25,202.26,212.42 M177.83,166.07
		c0-2.29,1.86-4.14,4.14-4.14h0.28v35.87c0,0.35-0.28,0.64-0.64,0.64h-3.79V166.07z M33.2,161.93h0.28c2.29,0,4.14,1.86,4.14,4.14
		v32.37h-3.79c-0.35,0-0.64-0.29-0.64-0.64V161.93z M17,212.48l-0.03-0.19l0.19-0.02c0.11-0.01,0.2-0.02,0.25-0.02
		c0.97-0.09,1.69-0.96,1.6-1.94c-0.09-0.96-0.95-1.64-1.95-1.6c-2.43,0.1-4.93-0.03-6.8-1.69c-1.46-1.3-2.3-3.19-2.3-5.19v-38.38
		c0-3.24,2.63-5.87,5.88-5.87c0.98,0,1.78-0.8,1.78-1.78v-4.04c0-1.97,0.84-3.86,2.3-5.19c1.48-1.35,3.41-1.98,5.41-1.79
		c3.54,0.34,6.32,3.57,6.32,7.36v14.89h-5.37c-0.98,0-1.77,0.8-1.77,1.78c0,0.98,0.79,1.77,1.77,1.77h5.37v6.14h-5.37
		c-0.98,0-1.77,0.8-1.77,1.78c0,0.98,0.79,1.78,1.77,1.78h5.37v17.51c0,2.31,1.88,4.2,4.19,4.2h11.75h8.25
		c2.13,0,4.04,1.28,4.87,3.25l0.1,0.24H43.82c-0.01,0-0.01,0-0.02,0c-3.6,0.01-6.72,2.44-7.59,5.93l-0.03,0.13h-4.25
		c-0.98,0-1.78,0.8-1.78,1.78c0,0.97,0.78,1.76,1.75,1.77c0.01,0,0.02,0,0.03,0h0.01h5.82c0.98,0,1.78-0.79,1.78-1.77
		c0-2.37,1.92-4.29,4.29-4.29h2.85h16.85c3.95,0,6.22,1.94,6.22,5.31c0,1.03,1,1.72,1.94,1.72h10.77c0.9,0,1.79,0.19,2.62,0.52
		c1.44,0.57,2.66,1.58,3.31,2.83l0.13,0.25h-8.94H67.47H49.34c-0.45,0-0.88,0.17-1.21,0.48c-1.53,1.43-2.98,2.48-4.43,3.27
		c-0.92,0.51-1.84,0.89-2.77,1.18c-1.73,0.54-3.51,0.77-5.44,0.77c-1.02,0-2.09-0.06-3.21-0.15c-2.73-0.24-5.21-0.97-7.36-2.11
		c-0.81-0.43-1.58-0.91-2.29-1.46C19.66,219.39,17.65,216.23,17,212.48 M23.34,267.49c-7.52-0.55-11.67,0.15-14.43,0.66l8.26-9.05
		c4.22,3.06,9.6,6.24,16.07,9.49C29.82,268.09,26.2,267.7,23.34,267.49 M45.97,267.8l-2.45,2.66c-0.05-0.02-0.09-0.03-0.14-0.05
		c-0.02-0.01-0.03-0.02-0.05-0.02c-10.52-4.7-17.9-8.82-23.06-12.36c-0.67-0.46-1.28-0.9-1.88-1.33c-0.53-0.39-1.03-0.77-1.5-1.14
		c-5.95-4.66-7.78-8.09-8.22-10.21c-0.09-0.42-0.13-0.84-0.13-1.24H8.53c0.01-0.03,0.01-0.05,0.01-0.08
		c0.01-0.31,0.05-0.6,0.12-0.89c0.05-0.27,0.12-0.51,0.2-0.73c0.02-0.05,0.03-0.09,0.05-0.13c0.08-0.2,0.16-0.38,0.25-0.53
		c0.03-0.06,0.08-0.12,0.12-0.18c0.08-0.12,0.16-0.24,0.24-0.33c0.13-0.15,0.26-0.28,0.39-0.39c0.05-0.04,0.11-0.09,0.18-0.14
		c0.02-0.01,0.04-0.03,0.06-0.04c0.06-0.04,0.1-0.08,0.17-0.12c0.02-0.01,0.04-0.03,0.06-0.04l0.29-0.11
		c0.06-0.02,0.1-0.05,0.16-0.07l0.02-0.01c1.13-0.34,2.59-0.43,6.03,2.34c0.52,0.42,1.09,0.91,1.71,1.47
		c0.97,0.86,2.04,1.83,3.21,2.91c0.03,0.03,0.06,0.05,0.09,0.08c0.23,0.21,0.46,0.43,0.7,0.64c1.91,1.74,3.17,2.87,3.52,3.19
		c1.73,1.55,3.64,3.19,5.72,4.87c0.64,0.52,1.3,1.05,1.98,1.58c0.74,0.57,1.5,1.14,2.27,1.72c2.77,2.05,5.81,4.11,9.15,6.11
		c0.42,0.25,0.83,0.5,1.25,0.75c0.25,0.14,0.5,0.28,0.75,0.42L45.97,267.8z M206.65,268.15c-2.76-0.51-6.9-1.2-14.43-0.66
		c-2.85,0.21-6.47,0.6-9.9,1.1c6.47-3.25,11.85-6.43,16.07-9.49L206.65,268.15z M204.71,240.32l0.02,0.01
		c0.06,0.02,0.1,0.05,0.16,0.07l0.29,0.11c0.02,0.01,0.04,0.03,0.06,0.04c0.07,0.04,0.12,0.08,0.17,0.12
		c0.02,0.01,0.04,0.03,0.06,0.04c0.07,0.05,0.14,0.1,0.18,0.14c0.13,0.1,0.26,0.24,0.39,0.39c0.08,0.09,0.16,0.22,0.24,0.33
		c0.04,0.06,0.08,0.12,0.12,0.18c0.09,0.16,0.17,0.34,0.26,0.53c0.02,0.04,0.03,0.09,0.05,0.13c0.08,0.22,0.15,0.45,0.2,0.73
		c0.06,0.29,0.1,0.58,0.11,0.89c0,0.03,0.01,0.05,0.01,0.08c0,0.4-0.04,0.82-0.13,1.24c-0.45,2.12-2.27,5.54-8.22,10.21
		c-0.48,0.37-0.98,0.75-1.51,1.14c-0.59,0.44-1.21,0.88-1.88,1.33c-5.16,3.53-12.54,7.66-23.06,12.36
		c-0.02,0.01-0.04,0.01-0.05,0.02c-0.05,0.02-0.09,0.04-0.14,0.05l-2.45-2.66l-1.28-1.38c0.25-0.14,0.5-0.28,0.75-0.42
		c0.43-0.25,0.83-0.5,1.26-0.75c3.34-2,6.39-4.07,9.15-6.11c0.78-0.58,1.54-1.15,2.27-1.72c0.68-0.53,1.34-1.06,1.98-1.58
		c2.08-1.68,3.98-3.32,5.72-4.87c0.35-0.32,1.6-1.45,3.52-3.19c0.23-0.22,0.48-0.44,0.7-0.64c0.03-0.03,0.06-0.05,0.09-0.08
		c1.17-1.08,2.24-2.05,3.21-2.91c0.62-0.56,1.19-1.05,1.71-1.47C202.12,239.9,203.59,239.99,204.71,240.32 M195.8,229.22
		c2.39,2.86,4.83,5.78,6.72,7.98c-2.88,0.81-6.24,3.88-10.52,7.81c-0.05,0.05-0.1,0.09-0.15,0.14c-1.9,1.75-4.05,3.72-6.49,5.82
		c-2.11,1.81-4.42,3.71-6.98,5.63c-0.2,0.14-0.41,0.3-0.61,0.45c-0.73,0.54-1.49,1.08-2.26,1.62c-1.89,1.33-3.9,2.65-6.04,3.94
		c-0.57,0.35-1.14,0.7-1.73,1.04c-0.42,0.24-0.86,0.49-1.29,0.73c-0.4,0.23-0.79,0.45-1.21,0.67c-0.4,0.22-0.82,0.43-1.22,0.65
		c-13.59,7.17-31.71,12.91-56.17,12.91c-0.02,0-0.03-0.01-0.05-0.01c-0.02,0-0.03,0.01-0.05,0.01c-24.46,0-42.59-5.74-56.17-12.91
		c-0.41-0.21-0.82-0.43-1.23-0.65c-0.41-0.22-0.81-0.45-1.21-0.67c-0.43-0.24-0.87-0.49-1.29-0.73c-0.59-0.34-1.17-0.69-1.73-1.04
		c-2.14-1.3-4.15-2.62-6.04-3.94c-0.77-0.55-1.53-1.08-2.26-1.62c-0.2-0.15-0.41-0.3-0.61-0.45c-2.56-1.92-4.88-3.82-6.98-5.63
		c-2.44-2.09-4.59-4.07-6.49-5.82c-0.05-0.05-0.1-0.09-0.15-0.14c-4.28-3.93-7.64-7-10.51-7.81c1.89-2.21,4.33-5.12,6.72-7.98
		c0.91-1.09,1.83-2.19,2.72-3.24c2.74,1.6,5.93,2.65,9.46,2.95c1.21,0.1,2.36,0.17,3.5,0.17c3.13,0,6.02-0.49,8.92-1.83
		c17.65,13.06,41.7,21.39,63.38,21.39c0.02,0,0.03,0,0.05,0c0.02,0,0.03,0,0.05,0c21.66,0,45.7-8.32,63.34-21.36
		c2.87,1.32,5.75,1.8,8.85,1.8c1.13,0,2.29-0.07,3.49-0.17c3.55-0.3,6.78-1.36,9.53-2.99C193.94,227.01,194.87,228.12,195.8,229.22
		 M192.9,221.6c-0.71,0.55-1.47,1.03-2.28,1.47c-2.16,1.15-4.67,1.91-7.43,2.15c-1.13,0.09-2.19,0.15-3.21,0.15
		c-1.91,0-3.66-0.22-5.37-0.74c-0.94-0.29-1.87-0.67-2.8-1.17c-1.46-0.79-2.93-1.86-4.48-3.31c-0.33-0.31-0.76-0.48-1.21-0.48
		h-18.12h-12.09h-8.95l0.13-0.25c0.65-1.25,1.87-2.26,3.32-2.84c0.82-0.32,1.71-0.51,2.61-0.51h10.77c0.93,0,1.94-0.69,1.94-1.72
		c0-3.37,2.26-5.31,6.21-5.31h16.86h2.84c2.36,0,4.28,1.92,4.28,4.29c0,0.98,0.8,1.77,1.78,1.77h5.83c0.98,0,1.78-0.79,1.78-1.77
		c0-0.98-0.8-1.78-1.78-1.78h-4.25l-0.03-0.13c-0.88-3.48-3.99-5.92-7.58-5.93c-0.01,0-0.02,0-0.02,0h-15l0.1-0.24
		c0.82-1.97,2.74-3.25,4.87-3.25h8.27h11.73c2.31,0,4.2-1.89,4.2-4.2v-17.51h5.37c0.98,0,1.77-0.8,1.77-1.78
		c0-0.98-0.79-1.78-1.77-1.78h-5.37v-6.14h5.37c0.98,0,1.77-0.79,1.77-1.77c0-0.98-0.79-1.78-1.77-1.78h-5.37v-14.89
		c0-3.79,2.77-7.02,6.32-7.36c2-0.2,3.93,0.44,5.41,1.79c1.46,1.33,2.3,3.22,2.3,5.19v4.04c0,0.98,0.8,1.78,1.78,1.78
		c3.24,0,5.88,2.63,5.88,5.87v38.38c0,2-0.84,3.89-2.3,5.19c-1.86,1.65-4.37,1.79-6.8,1.69c-1-0.03-1.86,0.64-1.95,1.6
		c-0.09,0.97,0.63,1.84,1.6,1.94c0.05,0.01,0.15,0.02,0.25,0.02l0.19,0.02l-0.03,0.19C197.82,216.21,195.83,219.35,192.9,221.6"/>
	<path class="st1" d="M107.94,40.97c9.66,0,17.5-7.85,17.5-17.57c0-9.67-7.84-17.53-17.5-17.53c-9.68,0-17.52,7.85-17.52,17.53
		C90.42,33.12,98.26,40.97,107.94,40.97"/>
	<path class="st2" d="M111.7,33.07c-1.85,1.78-3.53,2.41-7,2.42c-5.56,0.01-11.08-5.24-11.08-12.21c0-8.06,6.53-14.57,14.57-14.57
		c3.39,0,6.51,1.17,9,3.11c0,0-9.46-4.25-16.06,2.52c-3.62,3.71-3.22,8.07-2.05,10.37c1.7,3.2,4.13,2.44,4.13,2.44
		c0.65-2.13,2.62-3.68,4.98-3.68c2.83,0,5.18,2.33,5.18,5.2C113.38,30.28,112.75,32.02,111.7,33.07"/>
	<path class="st4" d="M104.64,13.79c1.84-1.79,3.53-2.42,7-2.42c5.54-0.03,11.06,5.22,11.06,12.18c0,8.05-6.51,14.59-14.54,14.59
		c-3.4,0-6.55-1.16-9.02-3.12c0,0,9.44,4.27,16.05-2.49c3.61-3.71,3.23-8.11,2.03-10.37c-1.68-3.21-4.13-2.47-4.13-2.47
		c-0.64,2.15-2.62,3.7-4.94,3.7c-2.87,0-5.2-2.32-5.2-5.2C102.96,16.56,103.59,14.8,104.64,13.79"/>
	<path class="st5" d="M65.61,56.37v4.19c0,0.93-0.42,1.47-1.17,1.47c-0.45,0-0.88-0.25-1.22-0.73l-0.03-0.03L62.5,62l0.02,0.02
		c0.44,0.64,1.14,1.01,1.93,1.01c1.39,0,2.21-0.89,2.21-2.39v-4.27H65.61z"/>
	<path class="st5" d="M72.93,56.37v4.14c0,0.94-0.64,1.53-1.66,1.53c-1.02,0-1.67-0.6-1.67-1.53v-4.14h-1.04v4.18
		c0,1.51,1.06,2.48,2.71,2.48c1.64,0,2.7-0.97,2.7-2.48v-4.18H72.93z"/>
	<polygon class="st5" points="80.77,56.37 80.77,61.26 76.96,56.38 76.95,56.37 75.91,56.37 75.91,62.93 76.97,62.93 76.97,58.09 
		80.77,62.92 80.78,62.93 81.82,62.93 81.82,56.37 	"/>
	<path class="st5" d="M89.84,59.5l-0.01-0.03h-3.28v0.98h2.19c-0.16,0.95-0.94,1.56-2.01,1.56c-1.29,0-2.23-0.99-2.23-2.36
		c0-1.37,0.93-2.36,2.21-2.36c0.8,0,1.39,0.32,1.93,1.06l0.02,0.02l0.82-0.58l-0.02-0.03c-0.61-0.95-1.61-1.49-2.74-1.49
		c-1.85,0-3.31,1.49-3.31,3.38c0,1.89,1.46,3.38,3.33,3.38c1.83,0,3.12-1.29,3.12-3.15C89.86,59.74,89.85,59.62,89.84,59.5"/>
	<polygon class="st5" points="96.4,59.06 98.77,56.42 98.82,56.37 97.46,56.37 94.59,59.54 94.59,56.37 93.54,56.37 93.54,62.93 
		94.59,62.93 94.59,60.95 95.65,59.79 97.67,62.92 97.68,62.93 98.97,62.93 	"/>
	<polygon class="st5" points="107.95,56.37 106.4,61.87 104.89,56.5 104.88,56.47 103.78,56.47 102.26,61.87 100.71,56.39 
		100.7,56.37 99.65,56.37 101.43,62.91 101.44,62.93 103.08,62.93 104.33,58.22 105.57,62.91 105.58,62.93 107.22,62.93 109,56.41 
		109,56.37 	"/>
	<path class="st5" d="M112.99,56.39l-0.01-0.02h-1.11l-2.64,6.52l-0.02,0.05h1.12l0.51-1.36h3.17l0.5,1.36h1.12L112.99,56.39z
		 M113.69,60.67h-2.52l1.26-3.06L113.69,60.67z"/>
	<polygon class="st5" points="121.69,56.37 121.69,61.26 117.87,56.38 117.86,56.37 116.83,56.37 116.83,62.93 117.88,62.93 
		117.88,58.09 121.69,62.92 121.7,62.93 122.74,62.93 122.74,56.37 	"/>
	<path class="st5" d="M129.19,56.37v4.19c0,0.93-0.42,1.47-1.17,1.47c-0.45,0-0.88-0.25-1.23-0.73l-0.02-0.03L126.08,62l0.01,0.02
		c0.43,0.64,1.14,1.01,1.94,1.01c1.39,0,2.21-0.89,2.21-2.39v-4.27H129.19z"/>
	<path class="st5" d="M134.95,56.39l-0.01-0.02h-1.11l-2.64,6.52l-0.02,0.05h1.12l0.51-1.36h3.17l0.5,1.36h1.12L134.95,56.39z
		 M135.64,60.67h-2.52l1.26-3.06L135.64,60.67z"/>
	<polygon class="st5" points="143.65,56.37 143.65,61.26 139.83,56.38 139.82,56.37 138.79,56.37 138.79,62.93 139.84,62.93 
		139.84,58.09 143.65,62.92 143.66,62.93 144.7,62.93 144.7,56.37 	"/>
	<path class="st5" d="M152.71,59.5v-0.03h-3.28v0.98h2.19c-0.16,0.95-0.94,1.56-2.01,1.56c-1.29,0-2.23-0.99-2.23-2.36
		c0-1.37,0.93-2.36,2.21-2.36c0.8,0,1.39,0.32,1.93,1.06l0.02,0.02l0.82-0.58l-0.02-0.03c-0.61-0.95-1.61-1.49-2.74-1.49
		c-1.85,0-3.3,1.49-3.3,3.38c0,1.89,1.46,3.38,3.32,3.38c1.83,0,3.12-1.29,3.12-3.15C152.73,59.74,152.72,59.62,152.71,59.5"/>
	<path class="st5" d="M75.3,90.9h8.71v-4.28H75.3v-9.7l10.35,0.01v-4.27H56.69v4.27h13.93v23.79H65.2V83.77h-4.68v16.94h-5.78v4.27
		h32.82v-4.27H75.3L75.3,90.9z M148.41,72.64v-3.88h-4.72v3.88h-13.93v11.97c0,1.11-0.02,2.08-0.05,2.89
		c-0.02,0.8-0.09,1.71-0.2,2.71c-0.19,1.95-0.54,4.88-1.04,7.11c-0.5,2.25-1.11,4.62-1.85,7.11l-0.07,0.25l4.5,1.09l0.07-0.22
		c0.35-1.17,0.7-2.39,1.02-3.65c0.33-1.26,0.62-2.51,0.88-3.74c0.26-1.23,0.49-2.39,0.7-3.49c0.21-1.13,0.34-2.95,0.43-3.85
		c0.05-0.51,0.1-1,0.12-1.47c0.03-0.46,0.05-0.93,0.08-1.41c0.03-0.48,0.04-0.98,0.04-1.5v-9.73h26.31v-4.07H148.41z M148.82,90.62
		h8.63v-4.07h-8.63l0.01-8.13h-4.69v8.13h-7.94v4.07h7.94v10.41h-10.59v4.07h26.78v-4.07h-11.51L148.82,90.62z M109.68,68.76h-4.72
		v4H90.48v8.3h4.68v-4.23h24.6v4.23h4.68v-8.3h-14.76V68.76z M119.93,93.31h-0.41l-18.66-0.01v-2.64h12.4c0.09,0,0.19,0.01,0.3,0.01
		c1.52,0,2.73-0.4,3.53-1.22c0.77-0.81,1.15-1.99,1.15-3.47c0-0.09,0-0.19-0.01-0.28v-6.28H96.29v25.93h18.82
		c0.06,0.01,0.11,0.01,0.16,0.01h0.16c1.54,0.01,2.73-0.38,3.51-1.18c0.67-0.71,1-1.71,1-2.93c0-0.08,0-0.17-0.01-0.26V93.31z
		 M100.86,83.5h12.83v0.94c0.01,0.09,0.01,0.18,0.01,0.27c0.01,0.65-0.17,1.42-0.36,1.6c-0.23,0.25-0.64,0.4-1.24,0.4
		c-0.08,0-0.17,0-0.26-0.01l-10.99-0.01V83.5z M115.15,100.98c-0.18,0.2-0.5,0.32-1.03,0.32c-0.08,0-0.17,0-0.28-0.01h-12.98v-3.94
		h14.53v2.54c0.01,0.09,0.01,0.16,0.01,0.23C115.4,100.54,115.3,100.81,115.15,100.98"/>
	<path class="st2" d="M100.43,122.9c0.05,0,0.09,0,0.13-0.01l-0.13-0.04C100.43,122.87,100.43,122.88,100.43,122.9"/>
	<path class="st2" d="M84.39,197.3c12.44,0.83,25.06-4.37,31.29-8.63c1.91-1.32,3.73-2.54,5.1-3.9c1.78-1.84,3.18-3.4,3.85-5.33
		c0.69-2.01-1.91-4.01-4.04-4.74c-0.8,1.08-2.72,3.25-2.72,3.25c-6.62,7.37-20.28,15.74-31.84,16.99
		C85,195.06,84.39,197.3,84.39,197.3"/>
	<path class="st2" d="M94.11,175.85L94.11,175.85c7.92-1.17,11.57-3.88,15.88-7.18c1.17-1.01,1.8-1.78,1.81-2.38
		c0.03-1.72-2.32-3.31-4.39-3.52c-2.61,3.74-8.53,8.97-13.76,11.34c0,0-0.01,0.01-0.01,0.01c-0.05,0.02-0.09,0.04-0.15,0.07
		c-0.31,0.19-0.33,0.55-0.21,0.93c0.1,0.31,0.34,0.83,0.34,0.83S93.83,175.91,94.11,175.85"/>
	<path class="st2" d="M92.37,182.82c-0.09,0.12-0.23,0.26-0.28,0.6c-0.06,0.34-0.06,0.72-0.06,0.72s0.28-0.01,0.62-0.01v0.01
		c0.08,0,0.17-0.01,0.25-0.01c0.05,0,0.1,0,0.16-0.01c0.02,0,0.05-0.01,0.08-0.01c6.62-0.23,18.48-4.76,23.47-9.6
		c1.2-1.1,1.83-1.97,1.87-2.53c0.08-1.58-2.58-3.47-4.7-3.71c-3.16,3.81-12.22,11.56-19.78,13.88c-0.02,0.01-0.03,0.02-0.05,0.04
		c-0.2,0.07-0.41,0.13-0.62,0.19C92.72,182.54,92.53,182.62,92.37,182.82"/>
	<path class="st2" d="M111.9,132.62c-0.42-2.06-2.96-2.83-6.17-2.76c-1.17,2.86-3.52,6.71-7.3,11.52c-1.9,0.03-3.3-0.02-4.12-0.13
		c-1.36,1.49-0.87,3.98-0.18,5.53c3.09,1.38,11.97-0.46,11.97-0.46c1.39-0.23,6.58-1.55,7.41-1.8c1.4-0.43,2.5-0.78,3.38-1.08
		c0.23,1.54,0.89,2.85,1.97,3.79c2.33-0.6,3.45-1.84,3.5-3.81c0.13-4.08-5.02-7.83-8.64-7.87c0,0,1.92,2.91,2.65,5.04
		c-0.96,0.05-2.09,0.11-3.45,0.2c-2.74,0.19-7.36,0.24-10.12,0.55C102.79,141.35,111.22,135.66,111.9,132.62"/>
	<path class="st2" d="M144.91,173.95c1.42-1.21,2.08-1.71,3.18-3.5c-0.06-0.02-0.12-0.03-0.17-0.04c0,0,0,0,0-0.01
		c-11.85-2.52-19.07-4.87-24.08-7.71l-2.51-1.51c-0.68-0.52-1.43-1.06-2.19-1.61c1.06-0.15,4.62-0.22,12.65-3.11
		c0,0,0.68,3.22,3.08,3.95c2.49-0.45,3.43-3.5,2.37-5.46c-1.23-2.28-4.62-3.79-7.03-3.65l1.14,2.82c-2.78,0.4-7,0.58-9.07,0.78
		c0,0,5.79-4.09,7.32-8.23c-0.07-2.04-3.96-4.1-5.87-3.02c-0.78,3.43-3.14,8.19-5.06,11.07c0,0-1.65-0.01-2.3,0.64l0.37,2.42
		c-2.04-1.51-3.93-3.04-4.88-4.38c0,0,0.94-2.1,1.03-2.68c-0.49-0.86-1.32-1.52-2.16-2c-0.13-0.1-0.26-0.19-0.41-0.27
		c-1.47-0.84-4.25-1.52-4.25-1.52s-0.19,1.08-1.4,2.93c-1.33,1.86-3.12,4.04-5.03,6.12c-0.15-0.67-0.45-1.46-1.04-2.15
		c-1.25-1.53-3.27-2.58-5.26-2.8c0,0,0.06,2.58,0.45,3.9c0,0-4.13,0.46-7.98,0.42c0,0,6.23-5.32,7.41-8.42
		c0.03-1.51-2.64-3.44-5.19-3.62c-1,2.73-3.82,8.74-6.2,11.75c-2.24-0.01-4.22,0.69-4.22,0.69c0.04,2.81,1.31,4.56,3.78,4.43
		c5.2,0.09,13.09-2.93,13.09-2.93c0.35,1.21,1.15,1.84,1.74,2.15c-0.01,0.01-0.03,0.02-0.04,0.04l-3.13,3.06
		c-3.92,3.46-9.05,6.85-14.09,9.8c-1.86,0.91-4.31,2.19-6.43,2.7c-1.02,0.24-1.07,0.28-1.17,1.51c-0.03,0.38-0.05,0.55,0.03,0.63
		c0.05,0.05,0.23,0.03,0.48-0.01c-0.01,0.01-0.03,0.03-0.03,0.03c12.24-1.59,24.62-8.63,36.99-20.36
		c5.79,7.22,13.25,14.14,23.46,18.74C136.43,177.44,142.08,176.58,144.91,173.95"/>
	<path class="st2" d="M124.05,117.7c-0.99-1.39-5.56-2.05-7.55-1.48c-0.08,2.04-0.11,4-0.34,6.47c-4.04-0.06-10.88-0.03-15.73,0.15
		c-0.02-2.07,0.09-4.11,0.15-5.81c-1.66-0.6-5.61-0.28-6.54,0.85c-0.31,0.42-0.41,1.26-0.24,2.46c0.1,0.92,0.24,1.86,0.44,2.79
		c-4.5,0.19-9.08,0.42-11.06,0.65c-0.93,0.04-1.91,0.13-1.73,0.42c0.21,0.34,3.57,6.03,3.57,6.03c0.84,0.75,6.75-0.73,10.48-1.15
		c0,0,0.68-0.1,0.84-0.13c1.09,1.89,2.53,3.32,4.35,3.84c0,0,0.29-2.29,0.2-4.33c1.73-0.16,3.5-0.3,5.2-0.36
		c2.95-0.12,6.02-0.25,9.28-0.31c-0.31,1.23-0.68,1.89-1.05,3.22c-0.37,1.27,0.06,2.21,0.06,2.21c2.82-1.21,4.98-3.01,6.6-5.27
		c0.78-0.01,2.54,0.02,3.83,0.07c2.78,0.09,4.57,0.24,6.76,0.41c1.25,0.09,3.38,0.21,3.7,0.24c0,0,0.76-3.61-2.7-4.74
		c-2.91-0.95-4.61-1.05-9.08-1.2c0.24-0.81,0.49-1.29,0.64-2.17C124.42,119.19,124.38,118.21,124.05,117.7 M100.43,122.9
		c0-0.02,0-0.03,0-0.05l0.13,0.04C100.52,122.9,100.48,122.9,100.43,122.9"/>
	<path class="st1" d="M86.29,236.81c-0.43,0.08-0.88,0.11-1.36,0.1c-0.48-0.02-1.02-0.1-1.6-0.26c-0.6-0.16-1.13-0.4-1.57-0.73
		c-0.45-0.33-0.8-0.71-1.07-1.15c-0.27-0.43-0.43-0.93-0.5-1.46c-0.08-0.53-0.04-1.09,0.12-1.67c0.16-0.6,0.4-1.11,0.74-1.53
		c0.33-0.43,0.73-0.76,1.17-1c0.45-0.24,0.95-0.39,1.48-0.44c0.54-0.05,1.1,0,1.67,0.15c0.59,0.16,1.11,0.39,1.56,0.69
		c0.45,0.3,0.79,0.63,1.01,0.99l-1.18,0.75c-0.13-0.26-0.35-0.51-0.65-0.75c-0.3-0.24-0.65-0.41-1.05-0.51
		c-0.39-0.1-0.77-0.13-1.12-0.08c-0.36,0.06-0.68,0.18-0.97,0.37c-0.29,0.19-0.54,0.43-0.75,0.73c-0.21,0.3-0.37,0.64-0.47,1.03
		c-0.1,0.4-0.14,0.78-0.1,1.14c0.03,0.37,0.13,0.7,0.3,1.01c0.16,0.31,0.39,0.57,0.68,0.79c0.29,0.22,0.64,0.39,1.06,0.5
		c0.56,0.15,1.08,0.19,1.55,0.13l0.5-1.9l-1.57-0.41l0.29-1.1l2.85,0.75L86.29,236.81z"/>
	
		<rect x="86.77" y="233.4" transform="matrix(0.173 -0.9849 0.9849 0.173 -155.6163 282.8335)" class="st1" width="7.71" height="1.37"/>
	<polygon class="st1" points="94.47,230.86 96.28,231.04 99.26,237.14 99.28,237.14 99.86,231.4 101.22,231.53 100.45,239.2 
		98.72,239.03 95.68,232.74 95.66,232.74 95.07,238.66 93.71,238.53 	"/>
	<path class="st1" d="M107.66,233.32c-0.14-0.19-0.34-0.35-0.6-0.49c-0.26-0.13-0.53-0.2-0.8-0.2c-0.16-0.01-0.32,0.01-0.48,0.05
		c-0.16,0.04-0.3,0.1-0.43,0.18c-0.13,0.08-0.24,0.19-0.33,0.32c-0.08,0.13-0.13,0.29-0.13,0.48c0,0.17,0.03,0.32,0.1,0.45
		c0.07,0.13,0.17,0.23,0.3,0.32c0.12,0.09,0.28,0.17,0.46,0.24c0.18,0.06,0.38,0.13,0.59,0.2c0.24,0.09,0.5,0.19,0.76,0.29
		c0.26,0.1,0.5,0.24,0.72,0.42c0.21,0.17,0.39,0.38,0.53,0.64c0.13,0.25,0.2,0.57,0.19,0.95c-0.01,0.41-0.09,0.77-0.25,1.07
		c-0.16,0.31-0.37,0.56-0.63,0.75c-0.25,0.2-0.56,0.35-0.9,0.44c-0.34,0.1-0.7,0.14-1.08,0.13c-0.5-0.01-0.99-0.11-1.46-0.31
		c-0.47-0.2-0.86-0.48-1.15-0.85l1-0.89c0.18,0.27,0.43,0.48,0.74,0.64c0.31,0.16,0.62,0.24,0.92,0.24
		c0.16,0.01,0.33-0.01,0.49-0.05c0.16-0.04,0.31-0.1,0.45-0.2c0.13-0.09,0.24-0.2,0.33-0.34c0.09-0.14,0.13-0.32,0.14-0.53
		c0-0.2-0.04-0.37-0.13-0.51c-0.09-0.13-0.21-0.25-0.37-0.35c-0.16-0.1-0.35-0.19-0.56-0.27c-0.21-0.08-0.44-0.16-0.68-0.24
		c-0.23-0.08-0.46-0.17-0.69-0.27c-0.23-0.11-0.44-0.25-0.62-0.42c-0.19-0.17-0.33-0.38-0.44-0.62c-0.11-0.25-0.16-0.55-0.16-0.92
		c0.01-0.39,0.1-0.73,0.27-1c0.17-0.28,0.39-0.51,0.66-0.69c0.27-0.18,0.57-0.31,0.91-0.4c0.34-0.09,0.68-0.12,1.03-0.12
		c0.39,0.01,0.79,0.08,1.19,0.23c0.4,0.15,0.74,0.36,1.03,0.64L107.66,233.32z"/>
	<polygon class="st1" points="110.87,231.7 115.96,231.45 116.02,232.64 112.3,232.83 112.4,234.79 115.92,234.61 115.98,235.76 
		112.45,235.93 112.56,238.11 116.48,237.92 116.54,239.14 111.25,239.4 	"/>
	<polygon class="st1" points="118.3,231.28 120.1,231.04 124.42,236.27 124.45,236.27 123.66,230.55 125.02,230.36 126.06,238 
		124.34,238.23 119.92,232.83 119.9,232.83 120.7,238.73 119.35,238.92 	"/>
	<path class="st1" d="M135.76,235.31c-0.33,0.28-0.71,0.53-1.14,0.75c-0.43,0.21-0.93,0.4-1.53,0.55c-0.6,0.15-1.18,0.2-1.73,0.13
		c-0.55-0.07-1.04-0.23-1.49-0.49c-0.45-0.25-0.83-0.6-1.15-1.03c-0.33-0.43-0.56-0.94-0.71-1.53c-0.15-0.6-0.19-1.16-0.1-1.69
		c0.08-0.53,0.27-1.02,0.54-1.45c0.27-0.43,0.64-0.8,1.08-1.11c0.45-0.31,0.96-0.53,1.53-0.68c0.6-0.16,1.17-0.21,1.71-0.16
		c0.53,0.05,0.99,0.17,1.36,0.38l-0.66,1.22c-0.24-0.16-0.55-0.27-0.93-0.34c-0.38-0.06-0.77-0.04-1.17,0.06
		c-0.39,0.1-0.73,0.26-1.01,0.48c-0.28,0.23-0.5,0.49-0.67,0.79c-0.16,0.31-0.26,0.64-0.3,1c-0.04,0.37-0.01,0.74,0.09,1.13
		c0.1,0.4,0.26,0.75,0.46,1.06c0.21,0.3,0.46,0.55,0.75,0.74c0.29,0.19,0.61,0.31,0.97,0.36c0.36,0.05,0.75,0.03,1.17-0.08
		c0.57-0.15,1.04-0.36,1.42-0.64l-0.49-1.9l-1.57,0.4l-0.28-1.1l2.85-0.73L135.76,235.31z"/>
	<path class="st1" d="M63.96,247.95c-1.83-0.85-4.18-0.66-5.13,1.33c-0.92,1.94,0.42,3.41,2.14,5c1.37,1.26,1.95,2,1.58,2.82
		c-0.4,0.86-1.55,1.05-2.8,0.47c-1.3-0.6-2.04-1.69-2.06-3.09v-0.09l-1.8,0.31v0.07c-0.02,1.84,1.18,3.55,3.14,4.46
		c0.72,0.33,1.51,0.52,2.27,0.52c1.28,0,2.48-0.54,3.07-1.82c0.97-2.12-0.46-3.48-2.12-5.06l-0.19-0.17
		c-1.17-1.11-1.82-1.72-1.42-2.57c0.42-0.91,1.6-0.94,2.54-0.51c1.47,0.68,1.72,2.12,1.76,2.71l0.01,0.1l1.87-0.34L66.82,252
		C66.78,251.17,66.42,249.09,63.96,247.95"/>
	<polygon class="st1" points="71.65,251.36 67.67,262.51 67.65,262.59 69.44,263.23 69.51,263.26 73.49,252.1 73.52,252.03 
		71.73,251.39 	"/>
	<polygon class="st1" points="84.52,264.19 79.72,254.02 79.7,253.99 77.81,253.53 75.06,265.15 76.99,265.61 79,257.11 
		83.8,267.19 83.82,267.23 85.73,267.68 88.49,256.07 86.55,255.61 	"/>
	<path class="st1" d="M98.21,257.03c-3.42-0.31-6.35,2.13-6.67,5.56c-0.31,3.43,2.15,6.36,5.6,6.68c0.19,0.02,0.39,0.03,0.59,0.03
		c1.94,0,3.74-0.89,4.9-2.44l0.05-0.06l-1.33-1.11l-0.07-0.06l-0.05,0.07c-1.03,1.25-2.38,1.83-3.92,1.69
		c-2.37-0.22-3.92-2.15-3.7-4.61c0.11-1.19,0.61-2.23,1.42-2.94c0.8-0.7,1.88-1.03,3.01-0.93c1.52,0.14,2.7,0.95,3.49,2.42
		l0.04,0.08l1.57-0.9l0.06-0.03l-0.03-0.08C102.19,258.45,100.38,257.22,98.21,257.03"/>
	<polygon class="st1" points="109.15,267.75 109.08,264.36 114.59,264.25 114.55,262.42 109.04,262.54 108.98,259.46 115.4,259.33 
		115.37,257.52 106.95,257.68 107.19,269.53 107.2,269.61 115.71,269.44 115.79,269.44 115.75,267.61 	"/>
	<polygon class="st1" points="124.99,256.49 120.79,257.01 121.02,258.81 123.24,258.53 124.47,268.5 124.48,268.59 126.46,268.35 
		125.01,256.57 	"/>
	<path class="st1" d="M136.72,260.07c0.85-0.7,1.19-1.69,0.95-2.8c-0.42-1.97-2.2-2.92-4.55-2.42c-2.32,0.5-3.55,2.09-3.13,4.07
		c0.24,1.11,0.92,1.86,1.96,2.18c-1.1,0.83-1.53,1.94-1.25,3.23c0.37,1.71,1.79,2.71,3.7,2.71c0.42,0,0.86-0.05,1.31-0.14
		c2.56-0.55,3.98-2.32,3.53-4.4C138.95,261.2,138.09,260.37,136.72,260.07 M132.61,263.79c-0.12-0.53,0.01-1.04,0.34-1.44
		c0.34-0.41,0.89-0.71,1.59-0.85c0.28-0.06,0.56-0.09,0.81-0.09c1.03,0,1.74,0.49,1.93,1.39c0.12,0.53,0,1.04-0.34,1.47
		c-0.35,0.44-0.91,0.75-1.61,0.91c-0.68,0.15-1.31,0.09-1.8-0.17C133.04,264.74,132.72,264.31,132.61,263.79 M135.76,257.76
		c0.22,0.99-0.39,1.77-1.59,2.03c-1.15,0.25-2.04-0.23-2.25-1.21c-0.2-0.93,0.45-1.75,1.57-1.99c0.2-0.04,0.39-0.06,0.57-0.06
		C134.93,256.53,135.6,256.99,135.76,257.76"/>
	<path class="st1" d="M148.21,252.26c-1.13-0.81-2.43-0.96-3.89-0.46c-1.21,0.41-2.11,1.11-2.6,2.03c-0.51,0.94-0.57,2.05-0.17,3.21
		c0.37,1.11,1.07,1.91,2.01,2.34c0.93,0.42,2.05,0.43,3.24,0.03c1.1-0.38,1.86-1.07,2.16-1.98c0.56,2.18-0.22,3.89-2.08,4.52
		c-0.67,0.23-1.47,0.26-2.24,0.07l-0.09-0.02l-0.1,1.83l0.06,0.02c0.37,0.1,0.76,0.15,1.17,0.15c0.6,0,1.25-0.12,1.91-0.34
		c1.68-0.57,2.78-1.6,3.25-3.06c0.44-1.35,0.34-2.98-0.31-4.87C150,254.17,149.2,252.96,148.21,252.26 M146.38,257.68
		c-1.43,0.49-2.48,0.01-2.94-1.34c-0.22-0.64-0.2-1.26,0.07-1.77c0.27-0.51,0.77-0.91,1.44-1.13c0.27-0.09,0.52-0.13,0.77-0.13
		c1.01,0,1.78,0.72,2.07,1.58C148.15,255.92,147.78,257.21,146.38,257.68"/>
	<path class="st1" d="M161.97,250.49c-1.54-3.23-4.03-4.42-6.64-3.17c-2.37,1.14-3.21,3.31-2.14,5.55c1.03,2.16,3.2,2.83,5.5,1.73
		c1.06-0.5,1.73-1.29,1.93-2.23c0.81,2.1,0.24,3.9-1.53,4.75c-0.65,0.31-1.44,0.42-2.23,0.33l-0.1-0.01l0.12,1.83l0.06,0.01
		c0.21,0.03,0.42,0.05,0.63,0.05c0.77,0,1.57-0.2,2.41-0.6c1.61-0.77,2.58-1.93,2.87-3.43C163.13,253.92,162.83,252.3,161.97,250.49
		 M159.29,251.59c-0.18,0.58-0.6,1.04-1.21,1.33c-1.37,0.66-2.47,0.31-3.08-0.98c-0.6-1.26-0.16-2.44,1.15-3.06
		c1.32-0.63,2.51,0.08,3,1.1C159.4,250.49,159.44,251.07,159.29,251.59"/>
</g>
</svg>
