<?xml version="1.0" encoding="utf-8"?>
<!-- Generator: Adobe Illustrator 25.0.0, SVG Export Plug-In . SVG Version: 6.00 Build 0)  -->
<svg version="1.1" id="图层_1" xmlns="http://www.w3.org/2000/svg" xmlns:xlink="http://www.w3.org/1999/xlink" x="0px" y="0px"
	 viewBox="0 0 969.66 377.79" style="enable-background:new 0 0 969.66 377.79;" xml:space="preserve">
<style type="text/css">
	.st0{fill:#680000;}
	.st1{fill:#FFFFFF;}
	.st2{fill:#D7000F;}
	.st3{fill:#C99F45;}
	.st4{fill:#00428E;}
	.st5{fill:#231815;}
</style>
<path fill="#C99F45" d="M566.67,32.51c6.7,9.48,14.92,16.5,23.71,22.38c-0.82,0.63-1.83,1.83-2.34,2.78c-8.54-6.13-16.19-12.96-23.14-22.45
	c-5.88,8.98-14.42,17.14-23.02,22.26c-0.44-0.89-1.45-2.02-2.28-2.72c9.86-5.5,19.73-15.24,25.17-25.36l2.85,1.39L566.67,32.51z
	 M581.66,71.01h-15.05v11.7h21.31v3.16h-45.78v-3.16h21.06v-11.7H548.9v-3.16h14.29V56.79h-14.54v-3.16h32.88v3.16h-14.92v11.07
	h15.05V71.01z M610.74,37.94h-6.51v15.11h5.63v3.23h-5.63v17.45l7.08-2.59l0.44,3.16l-17.2,6.51l-0.82-3.35l7.4-2.59V56.28h-6.32
	v-3.23h6.32V37.94h-6.7v-3.22h16.31V37.94z M643.12,44.71h-14.35v2.59c0.7,5.56,1.58,10.31,2.85,14.42
	c2.72-3.86,5.88-9.04,7.78-12.9l2.85,1.64c-2.78,4.74-6.58,10.56-9.55,14.35c2.47,6.51,6.07,11.44,11.38,15.93
	c-0.82,0.57-1.71,1.64-2.15,2.59c-6.58-5.75-10.56-12.14-13.15-21.12v20.8c0,2.47-0.63,3.48-2.02,4.05c-1.45,0.63-3.86,0.7-8.16,0.7
	c-0.19-0.82-0.76-2.34-1.27-3.29c3.29,0.13,6.2,0.06,6.96,0.06c0.89-0.06,1.26-0.38,1.26-1.52V66.08
	c-4.68,5.56-9.55,11.19-13.41,15.43l-2.09-2.85c3.86-3.86,9.87-10.37,15.49-16.76v-17.2h-13.53v-3.22h13.53V30.17h3.22v11.32h14.35
	V44.71z M621.81,61.28l-2.78,1.39c-0.95-3.22-3.54-8.41-5.94-12.14l2.53-1.26C618.14,52.93,620.74,57.99,621.81,61.28z
	 M640.02,37.75l-1.96,2.15c-1.33-2.15-4.05-5.06-6.45-7.08l1.96-1.83C635.97,32.88,638.76,35.79,640.02,37.75z M655.83,38.07h11.7
	v3.23h-13.21c-1.39,2.85-2.97,5.37-4.68,7.46c-0.32-0.7-1.2-2.28-1.77-2.91c3.16-3.92,5.88-9.55,7.52-15.49l2.85,0.82
	C657.54,33.52,656.72,35.86,655.83,38.07z M666.58,52.04h-6.51v9.67h7.78v3.22h-7.78v14.99l6.32-4.05c0.13,0.95,0.44,2.21,0.76,2.91
	c-8.92,5.94-10.24,6.96-11,7.9c-0.25-0.82-1.14-2.21-1.64-2.97c0.88-0.57,2.53-2.28,2.53-4.93V64.94H649v-3.22h8.03v-9.67h-5.82
	v-3.16h15.37V52.04z M677.33,43.95l-2.72,1.52c-0.88-3.1-3.16-8.03-5.31-11.76l2.59-1.26C674.04,36.05,676.44,40.85,677.33,43.95z
	 M693.2,86.51c-1.39,0.57-3.79,0.63-8.03,0.63c-0.06-0.89-0.57-2.28-1.01-3.16c3.16,0.06,6.01,0.06,6.7,0
	c0.76-0.06,1.07-0.32,1.07-1.14v-9.55h-18.97v14.48h-3.04V48.38h11.25V30.1h3.04v18.27h7.71v-0.06h3.1v34.52
	C695.03,84.86,694.53,85.94,693.2,86.51z M691.94,59.32V51.6h-18.97v7.71H691.94z M691.94,70.25v-7.84h-18.97v7.84H691.94z
	 M690.17,45.4l-2.47-1.33c1.96-3.16,4.55-8.35,6.01-12.01l2.84,1.45C694.65,37.56,692.19,42.37,690.17,45.4z M730.82,37.37h15.49
	v2.78h-16.38v5.06h13.79v2.66h-13.79v5.06h13.97v2.72h-13.97v5.5h17.52v2.85h-35.41v2.66h-3.22V44.46
	c-1.71,2.47-3.48,4.74-5.25,6.64c-0.44-0.57-1.71-1.9-2.4-2.47c4.68-4.55,9.04-11.45,11.57-18.53l3.16,0.95
	c-0.82,2.15-1.77,4.24-2.85,6.32h14.23c-0.76-2.02-1.77-4.43-2.78-6.39l2.91-0.89C728.67,32.32,730.07,35.22,730.82,37.37z
	 M744.29,87.83h-3.29v-3.23h-28.9v3.23h-3.29V69.12h35.47V87.83z M726.72,45.21v-5.06h-14.67v5.06H726.72z M726.72,52.93v-5.06
	h-14.67v5.06H726.72z M726.72,61.15v-5.5h-14.67v5.5H726.72z M741.01,81.57v-9.42h-28.9v9.42H741.01z M766.05,46.35h8.66l0.63-0.19
	l1.83,1.2c-1.58,4.17-3.92,7.84-6.7,11c3.54,2.28,6.96,4.68,9.11,6.45l-2.21,2.4c-2.09-1.83-5.5-4.24-9.04-6.64
	c-3.48,3.41-7.53,6.13-11.51,8.03c-0.32-0.89-1.01-2.28-1.52-2.91c3.67-1.58,7.33-3.92,10.5-6.83l-4.49-2.85l2.09-2.09l4.55,2.78
	c2.09-2.28,3.86-4.81,5.18-7.59h-8.6c-1.77,3.04-4.11,6.01-7.02,8.54c-0.38-0.7-1.33-1.71-1.96-2.09c4.62-3.92,7.71-9.36,9.23-13.85
	l3.1,0.51C767.37,43.57,766.74,44.96,766.05,46.35z M779.7,45.03h-3.04v-5.94H759.6v5.94h-2.97v-8.85h10.69
	c-0.7-1.64-1.64-3.54-2.4-5.06l2.91-0.76c0.95,1.77,2.09,4.11,2.91,5.82h8.98V45.03z M776.29,87.14h-3.04v-2.09h-10.24v2.28h-2.97
	V68.04h16.25V87.14z M773.25,82.14V71.01h-10.24v11.13H773.25z M779.58,87.96c-0.32-0.76-1.2-1.83-1.77-2.4
	c11.63-4.93,12.46-13.97,12.71-34.21h2.91C793.17,72.66,791.97,82.59,779.58,87.96z M804.05,37.06h-10.12c-0.7,2.4-1.46,5-2.21,7.15
	h10.24v29.78h-2.97V47.18h-14.42v26.87h-2.91V44.2h7.14c0.76-2.09,1.64-4.87,2.15-7.15h-10.31v-3.1h23.4V37.06z M805.12,85.11
	l-1.9,2.4c-2.34-2.85-6.96-7.4-10.62-10.56l1.83-2.09C798.04,77.97,802.78,82.33,805.12,85.11z M574.41,292.51
	c0.88,10.44,4.94,41.9,28.84,54.25c-2.55,1.83-4.94,4.54-6.13,6.69c-14.98-8.13-22.54-23.5-26.53-37.12
	c-3.74,13.94-10.91,28.2-24.78,37.52c-1.51-2.07-4.22-4.54-7.01-6.21c27.56-17.13,26.21-54.49,26.53-67.48h9.56
	C574.81,283.35,574.73,287.65,574.41,292.51z M666.5,298.33l-7.09,4.54c-1.04-1.43-2.39-3.03-3.98-4.78l-16.81,0.88
	c-0.8,2.31-1.67,4.46-2.55,6.61h33.46v6.93h-15.61c4.38,5.89,10.6,10.99,16.97,13.86c-1.83,1.51-4.3,4.38-5.5,6.37
	c-7.97-4.22-15.38-11.71-20.39-20.23h-12.51c-2.15,3.74-4.7,7.17-7.41,10.12c5.58-1.67,12.11-4.3,15.62-6.93l6.85,3.43
	c-5.82,4.38-14.42,8.05-21.11,10.04c-0.88-1.19-2.23-2.79-3.67-4.14c-3.19,3.11-6.61,5.74-10.28,7.89
	c-1.27-1.51-4.46-4.62-6.29-6.13c6.53-3.35,12.19-8.13,16.49-14.26h-14.9v-6.93h18.96c0.96-1.99,1.83-3.98,2.55-6.13
	c-8.92,0.48-11.23,0.8-13.06,1.43c-0.48-1.51-1.59-5.18-2.47-7.17c1.59-0.24,3.27-1.19,5.26-2.47c2.15-1.43,8.92-6.37,13.62-11.95
	l7.49,3.82c-3.67,3.58-7.65,6.85-11.71,9.72l20.95-0.72c-2.31-2.15-4.7-4.22-6.93-5.98l6.61-3.98
	C654.95,286.62,662.68,293.39,666.5,298.33z M619.18,354.26c-0.8-2.15-2.39-5.02-3.9-6.85c15.93-1.67,31.15-5.98,38.72-14.34
	l7.81,3.43C652.32,346.77,636.87,351.79,619.18,354.26z M624.52,341.19c-1.04-1.83-2.87-4.38-4.62-6.05
	c9.4-1.75,20.47-5.5,26.13-10.36l6.93,3.27C645.87,334.34,634.8,338.64,624.52,341.19z M703.15,353.54h-8.37v-3.66h-9.8v4.22h-7.89
	v-35.45h26.05V353.54z M694.78,342.46v-16.33h-9.8v16.33H694.78z M726.57,311.08h-40.23v-27.8h40.23V311.08z M718.05,303.59v-12.83
	h-23.66v12.83H718.05z M735.65,353.7h-8.37v-3.82h-10.6v4.22h-7.97v-35.45h26.93V353.7z M727.29,342.46v-16.33h-10.6v16.33H727.29z
	 M768.79,308.13h-15.77v3.9l-0.08,6.53h12.91v35.53h-7.41v-28.92h-5.74c-0.48,9.96-1.59,20.71-4.22,29.08
	c-1.51-0.8-4.94-1.91-6.85-2.39c3.67-11.55,4.22-28.44,4.22-39.83v-30.11h7.17v19.52h4.14v-21.35h7.25v21.35h4.38V308.13z
	 M805.36,337.92h-8.84v16.17h-7.81v-16.17H767.6v-6.61h6.77c-1.27-1.27-3.5-3.19-5.02-4.06c4.78-2.39,7.89-5.26,9.96-8.37h-9.4
	v-31.31h10.6c0.8-2.63,1.67-5.5,2.15-7.73l9.16,1.59l-3.19,6.13h14.98v31.31h-16.09c-2.15,4.7-5.9,9.08-12.19,12.43h13.38v-10.6
	h7.81v10.6h8.84V337.92z M783.13,300.32v-6.77h-5.89v6.77H783.13z M782.1,312.91c0.64-2.31,0.96-4.7,1.04-6.93h-5.89v6.93H782.1z
	 M795.96,312.91v-6.93h-5.82c-0.08,2.23-0.32,4.62-0.8,6.93H795.96z M795.96,300.32v-6.77h-5.82v6.77H795.96z M592.44,169.07h-42.45
	v-13.33h1.15c-3.46-2.3-10.04-5.76-13.82-7.4c9.38-9.54,17.93-24.68,22.7-39.81l15.63,3.78c-1.15,3.62-2.63,7.24-4.11,10.69h32.74
	v11.85h-18.92c2.63,5.1,4.94,10.53,6.09,14.31l-14.81,5.26c-1.48-5.1-4.61-13-7.73-19.58h-3.13c-4.28,8.06-9.21,15.3-13.82,20.89
	h101.84v38.99h-44.42v12.5h51.33c0,0,0,3.95-0.33,6.09c-1.32,22.38-2.96,32.9-6.58,37.18c-3.13,3.29-6.42,4.44-10.86,4.94
	c-3.78,0.33-10.69,0.49-17.77,0c-0.33-4.61-2.3-10.69-4.94-14.64c5.92,0.82,11.68,0.82,14.31,0.82c2.14,0,3.46-0.16,4.77-1.48
	c1.48-1.97,2.47-7.4,3.46-19.25h-33.4v41.62h-16.95v-32.25c-11.84,13.66-27.31,25.34-42.45,31.92c-2.3-3.78-7.24-9.71-10.86-12.67
	c15.46-5.76,31.75-16.29,42.77-28.63h-32.08c2.14-10.69,4.28-26.65,5.26-39.48h37.35V169.07z M592.44,207.24v-12.5h-22.05
	l-1.48,12.5H592.44z M667.46,134.85h-20.4c3.13,4.77,6.09,9.87,7.57,13.66l-14.81,5.92c-1.97-5.26-6.25-13.33-10.37-19.58h-4.61
	c-3.79,7.9-8.23,15.14-12.5,20.56c-3.46-2.47-10.86-6.42-14.97-8.23c8.39-9.21,15.63-23.86,19.25-38.66l16.78,3.62
	c-0.99,3.62-2.3,7.24-3.46,10.69h37.51V134.85z M636.86,169.07h-27.47v12.34h27.47V169.07z M807.3,193.25H677.66v-17.77H807.3
	V193.25z M472.6,321.96c1.19-2.86-0.66-4.39-2.59-5.85c-12.49-9.46-23.52-20.39-32.67-33.12c-24.68-34.36-34.4-72.67-29.82-114.64
	c2.25-20.66,8.43-40.12,18.42-58.35c1.51-2.75,3.01-5.51,4.52-8.26c-0.89,0.42-1.41,1.04-1.82,1.72c-2.02,3.43-4.15,6.8-5.97,10.33
	c-16.35,31.76-22.31,65.33-17.08,100.73c5.19,35.11,20.26,65.4,44.83,90.99c5.71,5.95,12.05,11.2,18.39,16.45
	C470.06,321.96,471.33,321.96,472.6,321.96z M377.53,206.8c0.78,3.43,1.49,6.88,2.9,10.13c3.23,7.44,7.85,13.61,15.59,16.86
	c2.97,1.25,6.06,1.72,9.27,0.93c1.23-0.3,1.68-0.92,1.29-2.14c-3.35-10.43-8.14-19.94-17.55-26.28c-3.42-2.3-7.24-3.67-11.5-3.31
	C377.53,204.26,377.53,205.53,377.53,206.8z M467.71,56.86c-9.86,2.69-17.89,8.05-23.93,16.34c-3.08,4.23-5.31,8.84-6.05,14.06
	c-0.15,1.08-0.97,2.5,0.18,3.29c0.95,0.65,2.05-0.33,3.01-0.75c5.44-2.34,10.42-5.46,14.87-9.35c7.46-6.52,13.42-14.14,16.8-23.59
	C470.97,56.86,469.34,56.86,467.71,56.86z M426.58,63.72c-0.73-0.91-1.55-2.07-2.77-0.56c-7.58,9.38-12.16,19.68-9.42,32.05
	c0.88,3.97,3.03,7.31,6.4,9.77c1.34,0.98,2.18,0.82,2.96-0.7c4.12-8.04,7.23-16.35,7.29-27.14
	C431.2,73.22,430.08,68.11,426.58,63.72z M399.18,274.87c-1.24,0.46-1.84,1.09-1.08,2.42c5.53,9.61,12.92,16.97,24.03,19.76
	c4.64,1.16,9.15,0.73,13.37-1.75c1.63-0.96,1.82-1.87,0.5-3.39c-4.46-5.18-9.43-9.77-15.33-13.26c-4.64-2.75-9.54-4.79-15.56-4.7
	C403.39,273.85,401.25,274.1,399.18,274.87z M412.4,113.34c-0.65-6.93-2.59-13.3-8.02-18.13c-1.05-0.94-2.18-1.97-3.19,0.06
	c-5.07,10.15-7.46,20.56-2.73,31.55c1.61,3.75,4.11,6.79,7.82,8.69c2.64,1.35,3.02,1.22,3.78-1.53c1.49-5.42,2.58-10.9,2.35-16.56
	C412.42,116.05,412.53,114.68,412.4,113.34z M385.48,239.84c-1.39,0.15-1.87,0.92-1.42,2.26c3.58,10.61,9.58,19.2,20.24,23.74
	c3.94,1.68,8.01,1.98,12.16,0.59c2.06-0.69,2.43-1.62,1.32-3.57c-3.51-6.18-7.73-11.83-13.17-16.38c-4.69-3.92-10-6.83-16.83-6.77
	C387.28,239.74,386.37,239.75,385.48,239.84z M400.01,144.15c-2.08-6.15-5.43-11.41-11.32-14.67c-1.26-0.7-2.33-1.03-2.85,0.89
	c-2.71,9.84-2.78,19.49,2.25,28.68c2.56,4.67,6.25,8.14,11.62,9.5c1.58,0.4,2.48,0.01,2.62-1.66c0.16-1.89,0.28-3.78,0.42-5.67
	C402.67,155.38,401.88,149.66,400.01,144.15z M390.5,172.34c-2.68-3.07-5.96-5.21-9.84-6.48c-1.65-0.54-2.59-0.19-2.72,1.72
	c-0.57,8.79,0.77,17.17,5.77,24.62c3.5,5.22,8.12,8.97,14.64,9.71c1.82,0.21,3.43,0.07,2.82-2.4
	C400.39,189.3,396.33,179.03,390.5,172.34z M466.07,100.79c1.02-1.23,0.87-1.97-0.36-2.84c-2.02-1.43-4.17-2.53-6.58-3.1
	c-10.63-2.5-22.57,4.31-28.31,13.96c-0.83,1.39-0.05,1.95,1.08,2.42c2.87,1.2,5.85,1.83,8.97,1.76
	C449.35,112.96,460.49,107.52,466.07,100.79z M442.68,286.76c1.06,1.37,1.87,1.42,3.01,0.18c1.36-1.47,2.6-3.03,3.5-4.81
	c5.22-10.31,3.68-20.5-0.62-30.63c-0.8-1.88-1.97-1.06-3.04-0.33c-6.21,4.24-8.74,10.35-8.93,16.24
	C436.57,274.87,439.08,282.12,442.68,286.76z M438.94,227.31c-0.27-1.92-1.32-2.33-3.07-1.61c-2.54,1.05-4.85,2.45-6.7,4.48
	c-6.96,7.6-7.63,16.51-4.86,25.85c1.78,5.98,2.02,6.82,7.32,1.83c6.19-5.82,7.99-13.52,8.3-22.9
	C439.71,233.21,439.35,230.25,438.94,227.31z M450.47,123.25c0.86-1.31,0.17-1.97-0.93-2.52c-2.73-1.36-5.62-1.99-8.65-1.77
	c-9.83,0.74-16.52,6.2-21.16,14.49c-3.32,5.93-2.76,6.73,7.1,6.74C435.9,139.67,444.12,132.94,450.47,123.25z M413.86,225.6
	c0.09,1.08,0.28,2.15,0.47,3.22c0.59,3.28,0.99,3.46,4.06,1.99c11.39-5.44,16-19.52,15.7-30.12c-0.04-1.47-0.82-1.84-2.12-1.7
	c-2.65,0.29-5.13,1.12-7.34,2.6c-7.61,5.06-10.55,12.51-10.78,21.31C413.84,223.79,413.78,224.7,413.86,225.6z M431.23,145.3
	c-0.54,0.03-1.07,0.18-1.59,0.32c-9.56,2.59-15.06,9.22-18.02,18.28c-2,6.13-1.07,7.15,5.28,5.77c10.3-2.24,16.82-9.08,21.42-18.09
	c2.83-5.54,2.26-6.36-4.1-6.29C433.21,145.28,432.22,145.25,431.23,145.3z M413.39,200.57c11.68-3.06,19.29-15.17,20.94-26.63
	c0.26-1.8-0.88-1.93-2.13-1.97c-3.92-0.12-7.53,0.95-10.79,3.08c-8.16,5.31-11.29,13.3-11.9,22.05
	C409.47,200.99,410.07,201.44,413.39,200.57z M873.47,321.96c4.81-4.1,9.84-7.93,14.33-12.4c37.08-36.92,53.9-81.44,49.98-133.67
	c-1.66-22.15-8.18-42.92-18.42-62.56c-2.13-4.09-4.28-8.21-7.37-12.05c-0.22,1.08,0.3,1.54,0.6,2.05
	c18.96,31.9,26.39,66.32,22.14,103.14c-4.23,36.69-19.44,68.25-45.26,94.67c-5.51,5.64-11.55,10.69-17.78,15.52
	c-1.72,1.34-3.66,2.79-1.49,5.3C871.3,321.96,872.38,321.96,873.47,321.96z M964.73,202.99c-4.33-0.26-8.22,1.06-11.74,3.46
	c-8.21,5.59-12.85,13.77-16.19,22.82c-1.99,5.4-1.1,6.51,4.73,5.77c5.97-0.76,10.55-3.99,14.39-8.43c4.94-5.71,7.39-12.54,8.8-19.82
	C964.73,205.53,964.73,204.26,964.73,202.99z M869.67,56.86c6.27,15.92,17.6,26.85,33.18,33.57c1.66,0.72,2.08,0.08,1.91-1.57
	c-0.44-4.3-1.76-8.31-3.93-12.02c-6.01-10.26-14.82-16.87-26.28-19.97C872.93,56.86,871.3,56.86,869.67,56.86z M918.07,297.4
	c12.23-2.13,20.12-9.86,26.06-20.15c0.87-1.52,0.07-2.13-1.22-2.55c-3.89-1.28-7.83-1.25-11.74-0.18
	c-10.55,2.91-18.35,9.75-25.27,17.83c-0.98,1.15-0.58,1.89,0.52,2.62c2.72,1.82,5.75,2.52,9.22,2.67
	C916.28,297.58,917.19,297.55,918.07,297.4z M918.59,104.39c0.85,1.64,1.79,1.42,3,0.51c4.22-3.21,6.34-7.59,6.89-12.74
	c1.15-10.72-2.79-19.82-9.24-28.06c-1.77-2.26-2.23-2.24-3.98,0.14c-3.12,4.27-4.2,9.13-4.04,12.57
	C911.29,87.87,914.38,96.28,918.59,104.39z M938.91,265.42c10.19-4.79,15.84-13.3,19.25-23.64c0.47-1.43-0.13-1.9-1.5-2.12
	c-5.31-0.86-10,0.8-14.43,3.44c-6.84,4.07-11.79,10-16,16.63c-3.61,5.68-2.82,7.16,4.01,7.47c0.27,0.01,0.54,0,0.81,0
	C933.8,267.19,936.44,266.59,938.91,265.42z M932.32,134.3c0.53,2.03,1.5,2.35,3.34,1.41c3.9-2,6.51-5.13,8.21-9.05
	c4.01-9.26,2.77-18.39-0.88-27.4c-0.73-1.8-1.12-4.63-2.95-4.86c-2.26-0.29-3.7,2.27-5.02,4.04c-4.19,5.64-5.11,12.23-5.23,18.05
	C929.81,123.19,930.87,128.77,932.32,134.3z M956.51,130.7c-0.47-1.78-1.29-2.16-2.92-1.28c-2.5,1.35-4.74,3.02-6.44,5.31
	c-7.11,9.62-8.1,20.64-7.29,32.06c0.13,1.84,1.16,2.16,2.82,1.73c4.35-1.12,7.58-3.76,10.12-7.31c3.89-5.42,5.14-11.67,5.48-18.59
	C958.08,138.85,957.59,134.74,956.51,130.7z M964.33,168.03c0.06-2.34-1.05-2.8-3.09-2.07c-4.39,1.56-7.96,4.2-10.78,7.89
	c-5.72,7.49-8.3,16.12-9.4,25.35c-0.31,2.64,0.88,2.97,2.92,2.71c4.08-0.51,7.62-2.19,10.57-5.05c7.08-6.85,9.59-15.5,9.77-25.03
	C964.33,170.56,964.3,169.29,964.33,168.03z M909.82,111.44c1.91-0.65,2.44-1.49,1.21-3.33c-4.4-6.56-10.24-11.14-17.94-13.11
	c-5.8-1.49-11.28-0.72-16.27,2.77c-1.15,0.81-2.01,1.61-0.65,2.99c6.96,7.03,15.03,11.76,25.16,12.24
	C904.28,113.07,907.06,112.37,909.82,111.44z M897.29,251.63c-2.49-1.78-2.95-1.61-4.14,1.1c-2.05,4.69-3.23,9.62-3.35,14.7
	c-0.18,7.15,1.51,13.77,6.5,19.26c1.42,1.56,2.35,1.48,3.53-0.27c3.6-5.28,5.73-11.02,5.88-17.93
	C905.45,261.94,903.23,255.87,897.29,251.63z M922.55,139.96c2.03-0.21,2.55-1.13,1.71-3.11c-3.18-7.46-8.07-13.25-15.72-16.34
	c-5.06-2.04-10.17-2.26-15.28-0.02c-1.69,0.74-2.25,1.68-1.01,3.29c0.99,1.29,1.83,2.7,2.89,3.93c6.15,7.19,13.47,12.25,23.11,12.58
	C919.85,140.16,921.21,140.1,922.55,139.96z M919.28,244.11c-0.93-8.17-4.54-14.57-12.23-18.18c-2.57-1.21-3.08-0.91-3.7,1.81
	c-0.87,3.83-0.99,7.72-0.61,11.59c0.81,8.29,3.68,15.59,10.68,20.76c1.67,1.23,2.63,1.09,3.43-0.9c1.6-3.98,2.67-8.05,2.45-12.37
	C919.29,245.91,919.38,245,919.28,244.11z M925.53,210.3c-3.03-5.8-7.52-9.86-14.12-11.24c-2.2-0.46-3.24,0.24-3.15,2.58
	c0.26,6.3,1.38,12.39,4.44,17.98c2.71,4.95,6.39,8.95,11.64,11.31c2.6,1.17,3.04,0.94,3.55-1.91c0.35-1.95,0.73-3.91,0.61-5.46
	C928.53,218.6,927.61,214.29,925.53,210.3z M904.72,145.45c-2.3,0.22-2.82,1.24-1.87,3.41c2.31,5.3,5.32,10.09,9.59,14
	c4.6,4.22,9.96,6.87,16.3,7.15c2.88,0.13,3.23-0.36,2.7-3.09c-0.56-2.86-1.48-5.6-2.87-8.16c-4.34-7.98-10.62-13.13-19.88-13.7
	C907.23,145.2,905.98,145.33,904.72,145.45z M927.8,181.79c-4.13-5.8-9.51-9.61-16.93-9.85c-2.27-0.07-3.15,0.88-2.67,3.14
	c0.72,3.38,1.71,6.68,3.28,9.75c3.83,7.53,9.16,13.45,17.68,15.72c3.13,0.83,3.64,0.38,3.59-3.14
	C932.43,191.94,931.15,186.51,927.8,181.79z M959.8,54.32v-7.21l-6.01,3.54l-1.26-2.21l6.2-3.48l-6.2-3.54l1.26-2.09l6.01,3.54
	v-6.83h2.66v6.77l6.01-3.48l1.2,2.09l-6.07,3.54l6.07,3.48l-1.2,2.21l-6.01-3.54v7.21H959.8z"/>
<g>
	<g>
		<g>
			<g>
				<path class="st0" d="M142.75,377.79h-0.45c-28.11,0-53.49-5.53-75.46-16.44c-0.26,0.29-0.55,0.61-0.85,0.94
					c-0.98,1.09-2.03,2.25-2.3,2.53c-0.96,1.06-2.22,1.9-3.59,2.37c-2,0.68-4.15,0.64-6.31-0.32c-1.36-0.64-3.91-1.17-5.43-1.48
					c-5.08-0.99-12.05-1.88-18.18-2.33c-2.18-0.16-4.26-0.24-6.18-0.24c-5.25,0-8.52,0.6-10.91,1.04l-1.2,0.22
					c-0.53,0.09-1.02,0.13-1.5,0.13c-3.09,0-5.88-1.58-7.47-4.23c-1.89-3.13-1.66-7.03,0.58-9.92c0.14-0.17,0.26-0.32,0.4-0.47
					l7.81-8.55c-5.2-4.96-8.34-9.87-9.33-14.59c-0.25-1.2-0.37-2.45-0.35-3.72l-0.01-0.38l0.03-0.26c0.01-0.28,0.04-0.55,0.07-0.81
					c0.43-5.43,3.86-9.1,5.71-11.06l0.52-0.56c2.47-2.82,6.5-7.63,10.45-12.35l0.13-0.15c-2.92-3.4-5.05-7.38-6.22-11.63
					c-2.29-0.89-4.36-2.16-6.18-3.82C2.38,277.94,0,272.57,0,266.97V216.2c0-7.18,4.24-13.49,11.06-16.47
					c0.47-0.19,1.03-0.39,1.03-0.39l0.53-0.09H272.7l0.26,0.09c0,0,0.56,0.2,0.98,0.37c6.87,3,11.11,9.32,11.11,16.49v50.77
					c0,5.6-2.38,10.97-6.52,14.74c-1.81,1.65-3.89,2.93-6.18,3.81c-1.17,4.25-3.3,8.24-6.22,11.63l0.03,0.03
					c4.05,4.84,8.08,9.65,10.56,12.49l0.5,0.54c1.84,1.96,5.28,5.63,5.71,11.12c0.02,0.21,0.05,0.47,0.06,0.74l0.02,0.88
					c0,1.19-0.11,2.36-0.35,3.49c-1,4.72-4.13,9.63-9.33,14.59l7.81,8.55c0.14,0.16,0.27,0.31,0.4,0.47
					c2.24,2.9,2.47,6.79,0.58,9.93c-1.84,3.06-5.16,4.73-8.95,4.1l-1.12-0.2c-2.49-0.46-5.76-1.06-11.01-1.06
					c-1.92,0-3.99,0.08-6.17,0.24c-6.13,0.45-13.1,1.34-18.2,2.34c-1.51,0.31-4.06,0.84-5.37,1.46c-2.23,0.99-4.36,1.01-6.34,0.34
					c-1.39-0.48-2.65-1.31-3.65-2.41c-0.23-0.23-1.28-1.4-2.26-2.49c-0.29-0.33-0.58-0.65-0.84-0.94
					C196.23,372.27,170.85,377.79,142.75,377.79z"/>
			</g>
		</g>
		<g>
			<g>
				<path class="st1" d="M82.85,271.59h1.18c0.79,0,1.58,0.05,2.34,0.16c0.45,0.06,0.88,0.18,1.31,0.27c0.3,0.07,0.61,0.1,0.9,0.19
					c0.65,0.19,1.28,0.42,1.88,0.69c0.05,0.02,0.11,0.04,0.17,0.06c3.27,1.5,5.69,4.2,6.47,7.93h2.73h1.33h7.91
					c3.35,0,6.81,1.29,9.38,3.53c6.79-1.97,14.98-3.14,23.83-3.15c0.09,0,0.42,0,0.51,0c8.84,0.01,17.04,1.18,23.82,3.15
					c2.58-2.23,6.03-3.53,9.38-3.53h6.55h2.68h2.73c0.77-3.73,3.2-6.44,6.47-7.93c0.05-0.02,0.11-0.04,0.17-0.06
					c0.6-0.27,1.23-0.51,1.88-0.69c0.29-0.08,0.6-0.12,0.9-0.19c0.43-0.1,0.86-0.21,1.31-0.27c0.76-0.1,1.54-0.16,2.34-0.16h1.18
					c1.18-5.33,5.94-9.33,11.62-9.33h10.94v-5.78h0v-37.07c0-6.9,4.41-12.79,10.57-15l0.05-121.68c0-17.43-14.18-31.61-31.61-31.61
					h-41.83c-5.01,4.71-11.74,7.61-19.13,7.61c-0.09,0-0.42,0-0.51,0c-7.4,0-14.12-2.9-19.13-7.61H81.3
					c-17.43,0-31.61,14.18-31.61,31.61l0.05,121.68c6.15,2.21,10.57,8.1,10.57,15v37.07h0v5.78h10.92
					C76.91,262.27,81.66,266.26,82.85,271.59z"/>
				<path class="st1" d="M235.24,219.68c0-3.02,2.46-5.48,5.48-5.48h0.38v47.45c0,0.47-0.38,0.84-0.84,0.84h-5.01V219.68z"/>
				<path class="st1" d="M43.93,214.2h0.38c3.02,0,5.48,2.46,5.48,5.48v42.81h-5.01c-0.47,0-0.84-0.38-0.84-0.84V214.2z"/>
				<path class="st1" d="M22.48,281.07l-0.04-0.25l0.25-0.02c0.14-0.01,0.27-0.02,0.34-0.03c1.29-0.12,2.24-1.28,2.12-2.57
					c-0.12-1.26-1.25-2.17-2.58-2.12c-3.21,0.14-6.53-0.04-8.99-2.23c-1.93-1.71-3.04-4.22-3.04-6.87v-50.77
					c0-4.29,3.49-7.77,7.77-7.77c1.3,0,2.35-1.06,2.35-2.35v-5.34c0-2.61,1.11-5.11,3.04-6.87c1.96-1.79,4.51-2.63,7.16-2.37
					c4.69,0.45,8.36,4.72,8.36,9.73v19.7h-7.1c-1.3,0-2.35,1.06-2.35,2.35c0,1.3,1.06,2.35,2.35,2.35h7.1v8.12h-7.1
					c-1.3,0-2.35,1.06-2.35,2.35c0,1.3,1.06,2.35,2.35,2.35h7.1v23.17c0,3.06,2.49,5.55,5.55,5.55h15.54h10.92
					c2.82,0,5.35,1.69,6.44,4.3l0.13,0.32H57.97c-0.01,0-0.01,0-0.02,0c-4.76,0.01-8.88,3.23-10.04,7.85l-0.04,0.17h-5.63
					c-1.3,0-2.35,1.06-2.35,2.35c0,1.28,1.04,2.33,2.32,2.35c0.01,0,0.02,0.01,0.04,0.01h0.02h7.69c1.3,0,2.35-1.06,2.35-2.35
					c0-3.13,2.54-5.67,5.67-5.67h3.77h22.28c5.23,0,8.22,2.56,8.22,7.02c0,1.36,1.33,2.27,2.57,2.27l14.24,0
					c1.19,0,2.37,0.25,3.46,0.68c1.9,0.76,3.52,2.09,4.38,3.74l0.17,0.34h-11.83H89.25H65.27c-0.6,0-1.17,0.22-1.61,0.63
					c-2.02,1.89-3.95,3.28-5.85,4.33c-1.22,0.67-2.44,1.17-3.67,1.56c-2.29,0.72-4.64,1.02-7.2,1.02c-1.35,0-2.76-0.08-4.25-0.2
					c-3.61-0.31-6.89-1.29-9.73-2.79c-1.08-0.57-2.09-1.21-3.03-1.93C26.02,290.22,23.35,286.04,22.48,281.07z"/>
				<path class="st1" d="M255.18,293.14c-0.94,0.72-1.94,1.37-3.01,1.94c-2.87,1.53-6.18,2.52-9.83,2.84
					c-1.49,0.13-2.9,0.2-4.25,0.2c-2.52,0-4.84-0.29-7.1-0.99c-1.24-0.38-2.46-0.88-3.69-1.54c-1.93-1.04-3.88-2.46-5.93-4.37
					c-0.44-0.41-1.01-0.63-1.61-0.63h-23.97H179.8h-11.84l0.17-0.34c0.86-1.66,2.48-2.99,4.38-3.75c1.09-0.43,2.27-0.68,3.46-0.68
					l14.24,0c1.24,0,2.57-0.91,2.57-2.27c0-4.46,3-7.02,8.22-7.02h22.3h3.76c3.13,0,5.67,2.54,5.67,5.67c0,1.3,1.06,2.35,2.35,2.35
					h7.71c1.3,0,2.35-1.06,2.35-2.35c0-1.3-1.06-2.35-2.35-2.35h-5.63l-0.04-0.17c-1.16-4.61-5.28-7.83-10.03-7.85
					c-0.01,0-0.02,0-0.04,0h-19.83l0.13-0.32c1.09-2.61,3.62-4.3,6.44-4.3h10.94h15.52c3.06,0,5.55-2.49,5.55-5.55v-23.17h7.1
					c1.3,0,2.35-1.06,2.35-2.35c0-1.3-1.06-2.35-2.35-2.35h-7.1v-8.12h7.1c1.3,0,2.35-1.05,2.35-2.35c0-1.3-1.06-2.35-2.35-2.35
					h-7.1v-19.7c0-5.01,3.67-9.29,8.36-9.73c2.65-0.26,5.2,0.58,7.16,2.37c1.93,1.76,3.04,4.26,3.04,6.87v5.34
					c0,1.3,1.06,2.35,2.35,2.35c4.29,0,7.77,3.49,7.77,7.77v50.77c0,2.65-1.11,5.15-3.04,6.87c-2.47,2.19-5.78,2.37-8.99,2.23
					c-1.33-0.05-2.46,0.85-2.58,2.12c-0.12,1.29,0.83,2.44,2.12,2.57c0.07,0.01,0.19,0.02,0.34,0.03l0.25,0.02l-0.04,0.25
					C261.69,286,259.05,290.16,255.18,293.14z"/>
				<g>
					<path class="st0" d="M165.23,295.52c-0.04,0-0.08,0.01-0.12,0.01c-1.43,0-2.58-1.15-2.58-2.58c0-3.5,1.64-6.43,4.07-8.53
						c-6.78-1.97-14.98-3.13-23.82-3.15c-0.09,0-0.42,0-0.51,0c-8.85,0.01-17.04,1.18-23.83,3.15c2.42,2.1,4.06,5.03,4.06,8.53
						c0,1.43-1.15,2.58-2.58,2.58c-0.04,0-0.08-0.01-0.12-0.01H66.27c-1.42,1.27-2.82,2.31-4.2,3.21
						c22.61,16.3,53.01,26.64,80.46,26.64c0.02,0,0.04,0,0.06,0s0.04,0,0.06,0c27.42,0,57.79-10.32,80.39-26.59
						c-1.41-0.91-2.83-1.97-4.27-3.26H165.23z"/>
					<path class="st0" d="M277.47,280.55c3.82-3.47,6.01-8.42,6.01-13.58V216.2c0-6.77-4.1-12.4-10.13-15.04
						c-0.4-0.16-0.93-0.35-0.93-0.35l-0.07-70.73c0-6.27-3.77-11.66-9.16-14.06v-0.83V83.51c0-33.25-27-60.3-60.19-60.31
						c-0.51-0.01-9.23-0.12-18.25-0.12c-1.89,0-8.37-0.44-12.62-6.04C162.9,4.89,154.68,0.11,142.82,0l-0.03,0l-0.03,0
						c-0.08,0-0.4,0-0.48,0l-0.03,0l-0.03,0c-11.86,0.11-20.07,4.89-29.29,17.04c-4.25,5.6-10.74,6.04-12.62,6.04
						c-9.03,0-17.74,0.11-18.25,0.12c-33.19,0.01-60.19,27.06-60.19,60.31v31.69v0.83c-5.39,2.4-9.16,7.79-9.16,14.06l-0.07,70.73
						c0,0-0.52,0.19-0.93,0.35c-6.03,2.63-10.13,8.26-10.13,15.04v50.77c0,5.16,2.19,10.11,6.01,13.58
						c1.86,1.69,4.05,2.98,6.43,3.78c1.16,4.77,3.58,9.17,6.98,12.79c-0.3,0.36-0.59,0.71-0.9,1.08l-0.04,0.05l-0.05,0.06
						c-3.96,4.73-8,9.56-10.49,12.4c-1.59,1.76-5.4,5.26-5.83,10.75c-0.02,0.23-0.05,0.46-0.06,0.7c0,0.1-0.03,0.19-0.03,0.29
						l0.02,0.02c-0.04,1.19,0.05,2.41,0.31,3.65c1,4.76,4.35,9.71,10,14.82l-8.85,9.7c-0.11,0.12-0.21,0.24-0.32,0.38
						c-1.84,2.38-2.03,5.57-0.48,8.15c1.31,2.17,3.6,3.47,6.13,3.47c0.4,0,0.8-0.03,1.23-0.11c0.35-0.06,0.71-0.13,1.1-0.2
						l0.06-0.01c2.45-0.45,5.82-1.07,11.23-1.07c1.96,0,4.07,0.08,6.29,0.24c6.81,0.5,13.74,1.46,18.38,2.36
						c1.94,0.41,4.32,0.91,5.75,1.59l0,0c0.91,0.4,1.87,0.65,2.87,0.65c0.78,0,1.56-0.13,2.3-0.38c1.16-0.39,2.17-1.09,2.98-1.99
						l0.01,0.01c0.46-0.47,3.16-3.51,3.9-4.32c18.57,9.42,43.11,16.81,75.82,16.81c0.08,0,0.37,0,0.45,0
						c32.71,0,57.24-7.39,75.82-16.81c0.75,0.81,3.44,3.85,3.9,4.32l0.01-0.01c0.81,0.9,1.83,1.59,2.98,1.99
						c0.74,0.25,1.52,0.38,2.3,0.38c0.99,0,1.96-0.25,2.86-0.65l0.01,0.04c1.42-0.67,3.79-1.23,5.73-1.63
						c4.64-0.91,11.57-1.86,18.38-2.36c2.22-0.16,4.33-0.24,6.29-0.24c5.41,0,8.77,0.62,11.23,1.07l0.06,0.01
						c0.39,0.07,0.75,0.14,1.1,0.2c0.43,0.07,0.83,0.11,1.23,0.11c2.53,0,4.82-1.3,6.13-3.47c1.55-2.57,1.36-5.77-0.48-8.15
						c-0.11-0.14-0.21-0.26-0.32-0.38l-8.85-9.7c5.65-5.11,9-10.06,10-14.82c0.26-1.23,0.35-2.45,0.31-3.65l0.02-0.02
						c0-0.1-0.02-0.19-0.03-0.29c-0.01-0.23-0.03-0.46-0.06-0.7c-0.43-5.49-4.25-8.99-5.83-10.75c-2.49-2.84-6.53-7.67-10.49-12.4
						l-0.05-0.06l-0.04-0.05c-0.31-0.37-0.6-0.72-0.9-1.08c3.41-3.62,5.82-8.03,6.98-12.79
						C273.42,283.52,275.61,282.24,277.47,280.55z M257.67,129.74l5,0.27c0.51,0.06,0.62,0.41,0.29,0.77l-3.84,3.52
						c-0.33,0.33-0.52,0.99-0.43,1.42l1.11,4.69c0.09,0.49-0.21,0.73-0.66,0.52l-4.28-2.44c-0.42-0.18-1.14-0.18-1.51,0l-4.3,2.44
						c-0.45,0.2-0.76-0.04-0.69-0.52l1.14-4.69c0.08-0.44-0.12-1.09-0.44-1.42l-3.84-3.52c-0.33-0.36-0.21-0.71,0.29-0.77l5.01-0.27
						c0.47-0.04,1-0.42,1.2-0.84l1.97-4.88c0.22-0.45,0.6-0.45,0.8,0l1.99,4.88C256.66,129.32,257.2,129.7,257.67,129.74z
						 M259.79,181.69c0.09,0.49-0.21,0.73-0.66,0.52l-4.28-2.44c-0.42-0.18-1.14-0.18-1.51,0l-4.3,2.44
						c-0.45,0.2-0.76-0.04-0.69-0.52l1.14-4.69c0.08-0.44-0.12-1.09-0.44-1.42l-3.84-3.51c-0.33-0.36-0.21-0.71,0.29-0.77l5.01-0.27
						c0.47-0.04,1-0.42,1.2-0.84l1.97-4.88c0.22-0.45,0.6-0.45,0.8,0l1.99,4.88c0.2,0.42,0.74,0.8,1.21,0.84l5,0.27
						c0.51,0.06,0.62,0.41,0.29,0.77l-3.84,3.51c-0.33,0.33-0.52,0.99-0.43,1.42L259.79,181.69z M262.96,151.42l-3.84,3.51
						c-0.33,0.33-0.52,0.99-0.43,1.42l1.11,4.69c0.09,0.49-0.21,0.72-0.66,0.52l-4.28-2.44c-0.42-0.18-1.14-0.18-1.51,0l-4.3,2.44
						c-0.45,0.2-0.76-0.04-0.69-0.52l1.14-4.69c0.08-0.44-0.12-1.09-0.44-1.42l-3.84-3.51c-0.33-0.36-0.21-0.71,0.29-0.77l5.01-0.27
						c0.47-0.04,1-0.42,1.2-0.84l1.97-4.88c0.22-0.45,0.6-0.45,0.8,0l1.99,4.88c0.2,0.42,0.74,0.8,1.21,0.84l5,0.27
						C263.17,150.72,263.29,151.06,262.96,151.42z M175.77,28.24c1.52,0,2.84,0.86,3.5,2.12h24.48c29.03,0,52.65,23.66,52.65,52.74
						v33.27c0,1.01-0.82,1.84-1.84,1.84c-1.01,0-1.84-0.82-1.84-1.84V83.1c0-27.06-21.97-49.07-48.98-49.07h-24.48
						c-0.66,1.26-1.98,2.12-3.5,2.12c-2.18,0-3.95-1.77-3.95-3.95S173.58,28.24,175.77,28.24z M29.17,83.1
						c0-29.08,23.62-52.74,52.65-52.74h24.48c0.66-1.26,1.98-2.12,3.5-2.12c2.18,0,3.95,1.77,3.95,3.95s-1.77,3.95-3.95,3.95
						c-1.52,0-2.84-0.86-3.5-2.12H81.82c-27.01,0-48.98,22.01-48.98,49.07v33.27c0,1.01-0.82,1.84-1.84,1.84
						c-1.01,0-1.84-0.82-1.84-1.84V83.1z M22.41,130.01l5.01-0.27c0.47-0.04,1-0.42,1.2-0.84l1.97-4.88c0.22-0.45,0.6-0.45,0.8,0
						l1.99,4.88c0.2,0.42,0.74,0.8,1.21,0.84l5,0.27c0.51,0.06,0.62,0.41,0.29,0.77l-3.84,3.52c-0.33,0.33-0.52,0.99-0.43,1.42
						l1.11,4.69c0.09,0.49-0.21,0.73-0.66,0.52l-4.28-2.44c-0.42-0.18-1.14-0.18-1.51,0l-4.3,2.44c-0.45,0.2-0.76-0.04-0.69-0.52
						l1.14-4.69c0.08-0.44-0.12-1.09-0.44-1.42l-3.84-3.52C21.79,130.42,21.92,130.07,22.41,130.01z M22.41,150.65l5.01-0.27
						c0.47-0.04,1-0.42,1.2-0.84l1.97-4.88c0.22-0.45,0.6-0.45,0.8,0l1.99,4.88c0.2,0.42,0.74,0.8,1.21,0.84l5,0.27
						c0.51,0.06,0.62,0.41,0.29,0.77l-3.84,3.51c-0.33,0.33-0.52,0.99-0.43,1.42l1.11,4.69c0.09,0.49-0.21,0.72-0.66,0.52
						l-4.28-2.44c-0.42-0.18-1.14-0.18-1.51,0l-4.3,2.44c-0.45,0.2-0.76-0.04-0.69-0.52l1.14-4.69c0.08-0.44-0.12-1.09-0.44-1.42
						l-3.84-3.51C21.79,151.06,21.92,150.72,22.41,150.65z M22.41,171.29l5.01-0.27c0.47-0.04,1-0.42,1.2-0.84l1.97-4.88
						c0.22-0.45,0.6-0.45,0.8,0l1.99,4.88c0.2,0.42,0.74,0.8,1.21,0.84l5,0.27c0.51,0.06,0.62,0.41,0.29,0.77l-3.84,3.51
						c-0.33,0.33-0.52,0.99-0.43,1.42l1.11,4.69c0.09,0.49-0.21,0.73-0.66,0.52l-4.28-2.44c-0.42-0.18-1.14-0.18-1.51,0l-4.3,2.44
						c-0.45,0.2-0.76-0.04-0.69-0.52l1.14-4.69c0.08-0.44-0.12-1.09-0.44-1.42l-3.84-3.51C21.79,171.7,21.92,171.36,22.41,171.29z
						 M258.32,296.86c1.11,1.32,2.25,2.68,3.41,4.07c4.57,5.47,9.26,11.07,11.63,13.69c0.33,0.35,0.83,0.84,1.37,1.49
						c0.07,0.08,0.14,0.13,0.2,0.22c0.03,0.04,0.04,0.08,0.06,0.12c0.38,0.49,0.78,1.03,1.14,1.7c0.21,0.38,0.42,0.75,0.59,1.19
						c0.01,0.02,0.01,0.03,0.02,0.04l0,0c0.71,1.79,0.87,3.79,0.43,5.9c-0.99,4.72-5.04,9.86-11.9,15.3l11.75,12.87
						c0.88,1.13,0.96,2.49,0.29,3.6c-0.65,1.08-1.87,1.63-3.1,1.42l-1.12-0.2c-3.47-0.64-8.72-1.6-18.56-0.88
						c-9.71,0.71-22.19,2.58-25.27,4.23c-0.44,0.24-0.93,0.36-1.42,0.36c-0.33,0-0.65-0.05-0.96-0.16
						c-0.41-0.14-0.77-0.37-1.08-0.66l0,0c-0.66-0.59-1.55-1.76-2.31-2.59l-4.03-4.37c-18.45,9.9-43.21,17.9-76.82,17.9
						c-0.02,0-0.04,0-0.06,0c-0.02,0-0.04,0-0.06,0c-33.61,0-58.37-8.01-76.82-17.9l-4.03,4.37c-0.76,0.83-1.65,2-2.31,2.59l0,0
						c-0.31,0.29-0.68,0.52-1.08,0.66c-0.31,0.11-0.64,0.16-0.96,0.16c-0.49,0-0.98-0.12-1.42-0.36
						c-3.08-1.65-15.55-3.52-25.27-4.23c-9.84-0.72-15.09,0.25-18.56,0.88l-1.12,0.2c-1.23,0.21-2.45-0.34-3.1-1.42
						c-0.66-1.1-0.59-2.47,0.29-3.6l11.75-12.87c-6.86-5.44-10.91-10.58-11.9-15.3c-0.44-2.11-0.29-4.11,0.43-5.9l0,0
						c0.01-0.02,0.01-0.03,0.02-0.04c0.18-0.44,0.39-0.81,0.59-1.19c0.37-0.67,0.76-1.21,1.14-1.7c0.02-0.04,0.03-0.09,0.07-0.12
						c0.07-0.08,0.14-0.14,0.2-0.22c0.54-0.65,1.05-1.14,1.37-1.49c2.36-2.62,7.05-8.22,11.63-13.69c1.15-1.37,2.27-2.71,3.36-4.01
						c-5.05-3.93-8.43-9.51-9.32-15.94c-2.67-0.45-5.19-1.64-7.21-3.49c-2.96-2.69-4.66-6.52-4.66-10.52v-50.77
						c0-6.12,4.35-11.25,10.13-12.45v-3.02c0-4,1.7-7.83,4.65-10.52c2.96-2.69,6.94-4.01,10.95-3.63
						c7.19,0.69,12.83,7.12,12.83,14.65v8.01h0.15c5.74,0,10.42,4.67,10.42,10.42v42.58h5.59v-5.78h0v-37.07
						c0-6.9-4.41-12.79-10.57-15L49.69,82.74c0-17.43,14.18-31.61,31.61-31.61h41.83c5.01,4.71,11.74,7.61,19.13,7.61
						c0.09,0,0.42,0,0.51,0c7.4,0,14.13-2.9,19.13-7.61h41.83c17.43,0,31.61,14.18,31.61,31.61l-0.05,121.68
						c-6.15,2.21-10.57,8.1-10.57,15v37.07h0v5.78h5.57v-42.58c0-5.74,4.67-10.42,10.42-10.42h0.15v-8.01
						c0-7.53,5.64-13.96,12.83-14.65c4-0.38,7.99,0.94,10.95,3.63c2.96,2.69,4.65,6.52,4.65,10.52v3.02
						c5.77,1.2,10.13,6.32,10.13,12.45v50.77c0,3.99-1.7,7.83-4.66,10.52c-2.03,1.84-4.54,3.04-7.21,3.49
						C266.68,287.38,263.32,292.93,258.32,296.86z"/>
				</g>
				<g>
					<path class="st2" d="M241.18,355.29c4.54-0.66,9.33-1.17,13.1-1.45c9.95-0.72,15.44,0.2,19.09,0.86l-10.93-11.97
						C256.86,346.79,249.75,350.99,241.18,355.29z"/>
					<path class="st2" d="M232.17,342.18c1.02-0.72,2.02-1.44,3-2.15c0.27-0.2,0.54-0.39,0.8-0.59c3.39-2.54,6.46-5.05,9.24-7.44
						c3.22-2.77,6.07-5.39,8.58-7.7c0.07-0.06,0.13-0.12,0.2-0.19c5.65-5.2,10.11-9.27,13.91-10.33c-2.5-2.92-5.73-6.78-8.89-10.56
						c-1.22-1.46-2.45-2.93-3.64-4.34c-3.64,2.15-7.91,3.55-12.61,3.96c-1.59,0.14-3.13,0.22-4.62,0.22
						c-4.11,0-7.91-0.64-11.71-2.39c-23.34,17.25-55.13,28.26-83.79,28.26c-0.02,0-0.04,0-0.06,0s-0.04,0-0.06,0
						c-28.68,0-60.5-11.02-83.84-28.29c-3.83,1.78-7.66,2.42-11.8,2.42c-1.5,0-3.03-0.08-4.62-0.22c-4.66-0.4-8.89-1.79-12.51-3.9
						c-1.17,1.4-2.39,2.85-3.59,4.29c-3.16,3.78-6.4,7.64-8.89,10.56c3.8,1.07,8.25,5.13,13.91,10.33c0.07,0.06,0.13,0.12,0.2,0.19
						c2.52,2.31,5.36,4.93,8.58,7.7c2.78,2.39,5.85,4.9,9.24,7.44c0.26,0.2,0.53,0.39,0.8,0.59c0.97,0.72,1.97,1.43,3,2.15
						c2.5,1.75,5.16,3.5,7.99,5.22c0.76,0.46,1.51,0.92,2.29,1.37c0.56,0.33,1.14,0.65,1.71,0.97c0.53,0.3,1.05,0.6,1.6,0.89
						c0.53,0.29,1.08,0.57,1.62,0.86c17.97,9.48,41.95,17.07,74.3,17.07c0.02,0,0.04,0,0.06,0c0.02,0,0.04,0,0.06,0
						c32.36,0,56.34-7.59,74.3-17.07c0.54-0.29,1.09-0.57,1.62-0.86c0.54-0.3,1.07-0.59,1.6-0.89c0.57-0.32,1.15-0.64,1.71-0.97
						c0.78-0.45,1.54-0.91,2.29-1.37C227.01,345.68,229.67,343.93,232.17,342.18z"/>
					<path class="st2" d="M276.74,319.34c0.01,0.01,0.01,0.03,0.02,0.04l0,0C276.75,319.37,276.74,319.36,276.74,319.34z"/>
					<path class="st2" d="M273.71,321.63L273.71,321.63c-0.07-0.36-0.16-0.67-0.27-0.96c-0.02-0.06-0.04-0.12-0.06-0.18
						c-0.1-0.26-0.22-0.49-0.34-0.7c-0.05-0.08-0.1-0.16-0.15-0.24c-0.11-0.16-0.21-0.31-0.32-0.44c-0.17-0.19-0.35-0.37-0.52-0.51
						c-0.06-0.05-0.14-0.11-0.23-0.18c-0.03-0.02-0.05-0.04-0.08-0.06c-0.07-0.05-0.14-0.1-0.23-0.15
						c-0.02-0.02-0.05-0.04-0.08-0.05l-0.38-0.15c-0.07-0.03-0.13-0.06-0.21-0.09l-0.03-0.01c-1.49-0.44-3.43-0.57-7.97,3.1
						c-0.69,0.56-1.44,1.2-2.27,1.95l0,0c-1.28,1.13-2.69,2.42-4.24,3.85c-0.04,0.04-0.08,0.07-0.12,0.11
						c-0.3,0.28-0.61,0.56-0.92,0.85c-2.54,2.3-4.19,3.8-4.65,4.22c-2.3,2.05-4.82,4.22-7.57,6.45c-0.85,0.69-1.72,1.38-2.62,2.08
						c-0.97,0.76-1.98,1.52-3.01,2.28c-3.66,2.71-7.68,5.44-12.11,8.09c-0.55,0.33-1.1,0.67-1.66,0.99c-0.32,0.19-0.67,0.37-1,0.56
						l1.69,1.82l3.25,3.52c0.06-0.02,0.12-0.04,0.18-0.07c0.02-0.01,0.05-0.02,0.07-0.03c13.92-6.21,23.68-11.67,30.51-16.35
						c0.88-0.6,1.7-1.19,2.48-1.76c0.7-0.51,1.37-1.02,1.99-1.51c7.87-6.17,10.29-10.71,10.87-13.51c0.12-0.57,0.17-1.11,0.17-1.64
						l0,0c0-0.04-0.01-0.07-0.01-0.11C273.85,322.4,273.8,322.01,273.71,321.63z"/>
					<path class="st2" d="M11.79,354.71c3.65-0.67,9.14-1.59,19.09-0.86c3.78,0.28,8.56,0.79,13.1,1.45
						c-8.56-4.3-15.67-8.5-21.26-12.55L11.79,354.71z"/>
					<path class="st2" d="M8.41,319.39c0.01-0.01,0.01-0.03,0.02-0.04C8.43,319.36,8.42,319.37,8.41,319.39L8.41,319.39z"/>
					<path class="st2" d="M59.85,350.88c-4.42-2.65-8.45-5.38-12.11-8.09c-1.03-0.76-2.03-1.52-3.01-2.28
						c-0.9-0.7-1.77-1.39-2.62-2.08c-2.75-2.23-5.27-4.4-7.57-6.45c-0.47-0.42-2.12-1.92-4.65-4.22c-0.31-0.28-0.62-0.57-0.92-0.85
						c-0.04-0.04-0.08-0.07-0.12-0.11c-1.55-1.43-2.96-2.72-4.24-3.85l0,0c-0.82-0.75-1.57-1.39-2.27-1.95
						c-4.54-3.66-6.49-3.53-7.97-3.1l-0.03,0.01c-0.08,0.02-0.14,0.06-0.21,0.09l-0.38,0.15c-0.02,0.01-0.05,0.03-0.08,0.05
						c-0.09,0.05-0.16,0.1-0.23,0.15c-0.03,0.02-0.05,0.04-0.08,0.06c-0.09,0.07-0.18,0.13-0.23,0.18
						c-0.17,0.14-0.35,0.32-0.52,0.51c-0.11,0.13-0.22,0.29-0.32,0.44c-0.05,0.08-0.1,0.15-0.15,0.24c-0.12,0.21-0.24,0.44-0.34,0.7
						c-0.02,0.06-0.04,0.12-0.06,0.18c-0.1,0.29-0.2,0.6-0.27,0.96v0c-0.08,0.38-0.14,0.77-0.15,1.17c0,0.04-0.01,0.07-0.01,0.11
						l0,0c-0.01,0.53,0.05,1.08,0.17,1.64c0.59,2.8,3.01,7.33,10.87,13.51c0.63,0.49,1.3,1,1.99,1.51c0.78,0.58,1.6,1.16,2.48,1.76
						c6.83,4.67,16.59,10.13,30.51,16.35c0.02,0.01,0.05,0.02,0.07,0.03c0.06,0.03,0.12,0.05,0.18,0.07l3.25-3.52l1.68-1.82
						c-0.33-0.19-0.67-0.37-1-0.56C60.94,351.55,60.4,351.21,59.85,350.88z"/>
				</g>
				<g>
					<path class="st3" d="M253.67,124.02l-1.97,4.88c-0.21,0.42-0.74,0.8-1.2,0.84l-5.01,0.27c-0.49,0.06-0.62,0.41-0.29,0.77
						l3.84,3.52c0.33,0.33,0.52,0.99,0.44,1.42l-1.14,4.69c-0.08,0.49,0.24,0.73,0.69,0.52l4.3-2.44c0.38-0.18,1.09-0.18,1.51,0
						l4.28,2.44c0.45,0.2,0.75-0.04,0.66-0.52l-1.11-4.69c-0.08-0.44,0.1-1.09,0.43-1.42l3.84-3.52c0.33-0.36,0.22-0.71-0.29-0.77
						l-5-0.27c-0.46-0.04-1-0.42-1.21-0.84l-1.99-4.88C254.27,123.57,253.89,123.57,253.67,124.02z"/>
					<path class="st3" d="M262.67,150.65l-5-0.27c-0.46-0.04-1-0.42-1.21-0.84l-1.99-4.88c-0.2-0.45-0.58-0.45-0.8,0l-1.97,4.88
						c-0.21,0.42-0.74,0.8-1.2,0.84l-5.01,0.27c-0.49,0.06-0.62,0.41-0.29,0.77l3.84,3.51c0.33,0.33,0.52,0.99,0.44,1.42l-1.14,4.69
						c-0.08,0.49,0.24,0.72,0.69,0.52l4.3-2.44c0.38-0.18,1.09-0.18,1.51,0l4.28,2.44c0.45,0.2,0.75-0.04,0.66-0.52l-1.11-4.69
						c-0.08-0.44,0.1-1.09,0.43-1.42l3.84-3.51C263.29,151.06,263.17,150.72,262.67,150.65z"/>
					<path class="st3" d="M31.01,118.2c1.01,0,1.84-0.82,1.84-1.84V83.1c0-27.06,21.97-49.07,48.98-49.07h24.48
						c0.66,1.26,1.98,2.12,3.5,2.12c2.18,0,3.95-1.77,3.95-3.95s-1.77-3.95-3.95-3.95c-1.52,0-2.84,0.86-3.5,2.12H81.82
						c-29.03,0-52.65,23.66-52.65,52.74v33.27C29.17,117.38,29.99,118.2,31.01,118.2z"/>
					<path class="st3" d="M175.77,36.15c1.52,0,2.84-0.86,3.5-2.12h24.48c27.01,0,48.98,22.01,48.98,49.07v33.27
						c0,1.01,0.82,1.84,1.84,1.84c1.01,0,1.84-0.82,1.84-1.84V83.1c0-29.08-23.62-52.74-52.65-52.74h-24.48
						c-0.66-1.26-1.98-2.12-3.5-2.12c-2.18,0-3.95,1.77-3.95,3.95S173.58,36.15,175.77,36.15z"/>
					<path class="st3" d="M262.96,172.06c0.33-0.36,0.22-0.71-0.29-0.77l-5-0.27c-0.46-0.04-1-0.42-1.21-0.84l-1.99-4.88
						c-0.2-0.45-0.58-0.45-0.8,0l-1.97,4.88c-0.21,0.42-0.74,0.8-1.2,0.84l-5.01,0.27c-0.49,0.06-0.62,0.41-0.29,0.77l3.84,3.51
						c0.33,0.33,0.52,0.99,0.44,1.42l-1.14,4.69c-0.08,0.49,0.24,0.73,0.69,0.52l4.3-2.44c0.38-0.18,1.09-0.18,1.51,0l4.28,2.44
						c0.45,0.2,0.75-0.04,0.66-0.52l-1.11-4.69c-0.08-0.44,0.1-1.09,0.43-1.42L262.96,172.06z"/>
					<path class="st3" d="M25.97,134.29c0.33,0.33,0.52,0.99,0.44,1.42l-1.14,4.69c-0.08,0.49,0.24,0.73,0.69,0.52l4.3-2.44
						c0.38-0.18,1.09-0.18,1.51,0l4.28,2.44c0.45,0.2,0.75-0.04,0.66-0.52l-1.11-4.69c-0.08-0.44,0.1-1.09,0.43-1.42l3.84-3.52
						c0.33-0.36,0.22-0.71-0.29-0.77l-5-0.27c-0.46-0.04-1-0.42-1.21-0.84l-1.99-4.88c-0.2-0.45-0.58-0.45-0.8,0l-1.97,4.88
						c-0.21,0.42-0.74,0.8-1.2,0.84l-5.01,0.27c-0.49,0.06-0.62,0.41-0.29,0.77L25.97,134.29z"/>
					<path class="st3" d="M25.97,154.94c0.33,0.33,0.52,0.99,0.44,1.42l-1.14,4.69c-0.08,0.49,0.24,0.72,0.69,0.52l4.3-2.44
						c0.38-0.18,1.09-0.18,1.51,0l4.28,2.44c0.45,0.2,0.75-0.04,0.66-0.52l-1.11-4.69c-0.08-0.44,0.1-1.09,0.43-1.42l3.84-3.51
						c0.33-0.36,0.22-0.71-0.29-0.77l-5-0.27c-0.46-0.04-1-0.42-1.21-0.84l-1.99-4.88c-0.2-0.45-0.58-0.45-0.8,0l-1.97,4.88
						c-0.21,0.42-0.74,0.8-1.2,0.84l-5.01,0.27c-0.49,0.06-0.62,0.41-0.29,0.77L25.97,154.94z"/>
					<path class="st3" d="M25.97,175.58c0.33,0.33,0.52,0.99,0.44,1.42l-1.14,4.69c-0.08,0.49,0.24,0.73,0.69,0.52l4.3-2.44
						c0.38-0.18,1.09-0.18,1.51,0l4.28,2.44c0.45,0.2,0.75-0.04,0.66-0.52L35.61,177c-0.08-0.44,0.1-1.09,0.43-1.42l3.84-3.51
						c0.33-0.36,0.22-0.71-0.29-0.77l-5-0.27c-0.46-0.04-1-0.42-1.21-0.84l-1.99-4.88c-0.2-0.45-0.58-0.45-0.8,0l-1.97,4.88
						c-0.21,0.42-0.74,0.8-1.2,0.84l-5.01,0.27c-0.49,0.06-0.62,0.41-0.29,0.77L25.97,175.58z"/>
					<path class="st3" d="M263.12,261.44c1.3,0,2.35-1.06,2.35-2.35v-38.51c0-1.3-1.06-2.35-2.35-2.35c-1.3,0-2.35,1.06-2.35,2.35
						v38.51C260.76,260.39,261.82,261.44,263.12,261.44z"/>
					<path class="st3" d="M21.91,218.22c-1.3,0-2.35,1.06-2.35,2.35v38.51c0,1.3,1.06,2.35,2.35,2.35c1.3,0,2.35-1.06,2.35-2.35
						v-38.51C24.27,219.28,23.21,218.22,21.91,218.22z"/>
					<path class="st3" d="M267.56,280.99c2.67-0.45,5.19-1.64,7.21-3.49c2.96-2.69,4.66-6.52,4.66-10.52v-50.77
						c0-6.12-4.35-11.25-10.13-12.45v-3.02c0-4-1.7-7.83-4.66-10.52c-2.96-2.69-6.94-4.01-10.95-3.63
						c-7.19,0.69-12.83,7.12-12.83,14.65v8.01h-0.15c-5.75,0-10.42,4.67-10.42,10.42v42.58h-5.57H213.8c-5.68,0-10.44,4-11.62,9.33
						h-1.18c-6.34,0-11.83,3.33-13.06,9.3h-2.73h-2.68h-6.55c-3.34,0-6.8,1.29-9.38,3.53c-2.42,2.1-4.07,5.03-4.07,8.53
						c0,1.43,1.15,2.58,2.58,2.58c0.04,0,0.08-0.01,0.12-0.01h53.53c1.45,1.29,2.87,2.35,4.27,3.26
						c-22.6,16.27-52.97,26.59-80.39,26.59c-0.02,0-0.04,0-0.06,0s-0.04,0-0.06,0c-27.45,0-57.85-10.34-80.46-26.64
						c1.38-0.9,2.78-1.94,4.2-3.21h53.53c0.04,0,0.08,0.01,0.12,0.01c1.43,0,2.58-1.15,2.58-2.58c0-3.5-1.64-6.43-4.06-8.53
						c-2.58-2.23-6.04-3.53-9.38-3.53h-7.91h-1.33h-2.73c-1.24-5.98-6.72-9.3-13.06-9.3h-1.18c-1.18-5.33-5.94-9.33-11.62-9.33
						H60.31h-5.59v-42.58c0-5.74-4.67-10.42-10.42-10.42h-0.15v-8.01c0-7.53-5.64-13.96-12.83-14.65c-4-0.38-7.99,0.94-10.95,3.63
						c-2.96,2.69-4.66,6.52-4.66,10.52v3.02c-5.77,1.2-10.13,6.32-10.13,12.45v50.77c0,3.99,1.7,7.83,4.66,10.52
						c2.03,1.84,4.54,3.04,7.21,3.49c0.89,6.42,4.27,12,9.32,15.94c-1.09,1.3-2.21,2.64-3.36,4.01
						c-4.57,5.47-9.27,11.07-11.63,13.69c-0.32,0.35-0.83,0.84-1.37,1.49c-0.07,0.08-0.14,0.13-0.2,0.22
						c-0.03,0.04-0.04,0.08-0.06,0.12c-0.38,0.49-0.78,1.03-1.14,1.7c-0.21,0.38-0.42,0.75-0.59,1.19
						c-0.01,0.01-0.01,0.03-0.02,0.04c-0.71,1.79-0.87,3.79-0.43,5.9c0.99,4.72,5.04,9.86,11.9,15.3L8.13,353.46
						c-0.88,1.13-0.96,2.49-0.29,3.6c0.65,1.08,1.87,1.63,3.1,1.42l1.12-0.2c3.47-0.64,8.72-1.6,18.56-0.88
						c9.71,0.71,22.19,2.58,25.27,4.23c0.44,0.24,0.93,0.36,1.42,0.36c0.33,0,0.65-0.05,0.96-0.16c0.41-0.14,0.77-0.37,1.08-0.66
						l0,0c0.66-0.59,1.55-1.76,2.31-2.59l4.03-4.37c18.45,9.9,43.21,17.9,76.82,17.9c0.02,0,0.04,0,0.06,0c0.02,0,0.04,0,0.06,0
						c33.61,0,58.37-8.01,76.82-17.9l4.03,4.37c0.76,0.83,1.65,2,2.31,2.59l0,0c0.31,0.29,0.68,0.52,1.08,0.66
						c0.31,0.11,0.64,0.16,0.96,0.16c0.49,0,0.98-0.12,1.42-0.36c3.08-1.65,15.55-3.52,25.27-4.23c9.85-0.72,15.09,0.25,18.56,0.88
						l1.12,0.2c1.23,0.21,2.45-0.34,3.1-1.42c0.66-1.1,0.59-2.47-0.29-3.6l-11.75-12.87c6.86-5.44,10.91-10.58,11.9-15.3
						c0.44-2.11,0.29-4.11-0.43-5.9c-0.01-0.01-0.01-0.03-0.02-0.04c-0.18-0.44-0.39-0.81-0.59-1.19c-0.37-0.67-0.76-1.21-1.14-1.7
						c-0.02-0.04-0.03-0.09-0.06-0.12c-0.07-0.08-0.14-0.14-0.2-0.22c-0.54-0.65-1.05-1.14-1.37-1.49
						c-2.36-2.62-7.05-8.22-11.63-13.69c-1.17-1.39-2.31-2.76-3.41-4.07C263.32,292.93,266.68,287.38,267.56,280.99z M235.24,219.68
						c0-3.02,2.46-5.48,5.48-5.48h0.38v47.45c0,0.47-0.38,0.84-0.84,0.84h-5.01V219.68z M43.93,214.2h0.38
						c3.02,0,5.48,2.46,5.48,5.48v42.81h-5.01c-0.47,0-0.84-0.38-0.84-0.84V214.2z M22.48,281.07l-0.04-0.25l0.25-0.02
						c0.14-0.01,0.27-0.02,0.34-0.03c1.29-0.12,2.24-1.28,2.12-2.57c-0.12-1.26-1.25-2.17-2.58-2.12c-3.21,0.14-6.53-0.04-8.99-2.23
						c-1.93-1.71-3.04-4.22-3.04-6.87v-50.77c0-4.29,3.49-7.77,7.77-7.77c1.3,0,2.35-1.06,2.35-2.35v-5.34
						c0-2.61,1.11-5.11,3.04-6.87c1.96-1.79,4.51-2.63,7.16-2.37c4.69,0.45,8.36,4.72,8.36,9.73v19.7h-7.1
						c-1.3,0-2.35,1.06-2.35,2.35c0,1.3,1.06,2.35,2.35,2.35h7.1v8.12h-7.1c-1.3,0-2.35,1.06-2.35,2.35c0,1.3,1.06,2.35,2.35,2.35
						h7.1v23.17c0,3.06,2.49,5.55,5.55,5.55h15.54h10.92c2.82,0,5.35,1.69,6.44,4.3l0.13,0.32H57.97c-0.01,0-0.01,0-0.02,0
						c-4.76,0.01-8.88,3.23-10.04,7.85l-0.04,0.17h-5.63c-1.3,0-2.35,1.06-2.35,2.35c0,1.28,1.04,2.33,2.32,2.35
						c0.01,0,0.02,0.01,0.04,0.01h0.02h7.69c1.3,0,2.35-1.06,2.35-2.35c0-3.13,2.54-5.67,5.67-5.67h3.77h22.28
						c5.23,0,8.22,2.56,8.22,7.02c0,1.36,1.33,2.27,2.57,2.27l14.24,0c1.19,0,2.37,0.25,3.46,0.68c1.9,0.76,3.52,2.09,4.38,3.74
						l0.17,0.34h-11.83H89.25H65.27c-0.6,0-1.17,0.22-1.61,0.63c-2.02,1.89-3.95,3.28-5.85,4.33c-1.22,0.67-2.44,1.17-3.67,1.56
						c-2.29,0.72-4.64,1.02-7.2,1.02c-1.35,0-2.76-0.08-4.25-0.2c-3.61-0.31-6.89-1.29-9.73-2.79c-1.08-0.57-2.09-1.21-3.03-1.93
						C26.02,290.22,23.35,286.04,22.48,281.07z M30.88,353.84c-9.95-0.72-15.44,0.2-19.09,0.86l10.93-11.97
						c5.58,4.05,12.69,8.25,21.26,12.55C39.45,354.63,34.66,354.12,30.88,353.84z M60.82,354.26l-3.25,3.52
						c-0.06-0.02-0.12-0.04-0.18-0.07c-0.02-0.01-0.05-0.02-0.07-0.03c-13.92-6.21-23.68-11.67-30.51-16.35
						c-0.88-0.6-1.7-1.19-2.48-1.76c-0.7-0.51-1.37-1.02-1.99-1.51c-7.87-6.17-10.29-10.71-10.87-13.51
						c-0.12-0.57-0.17-1.11-0.17-1.64l0,0c0-0.04,0.01-0.07,0.01-0.11c0.01-0.4,0.06-0.79,0.15-1.17v0
						c0.07-0.36,0.16-0.67,0.27-0.96c0.02-0.06,0.04-0.12,0.06-0.18c0.1-0.26,0.21-0.49,0.34-0.7c0.05-0.09,0.1-0.16,0.15-0.24
						c0.11-0.16,0.21-0.32,0.32-0.44c0.17-0.2,0.35-0.37,0.52-0.51c0.06-0.05,0.14-0.11,0.23-0.18c0.03-0.02,0.05-0.04,0.08-0.06
						c0.07-0.05,0.14-0.1,0.23-0.15c0.02-0.02,0.05-0.04,0.08-0.05l0.38-0.15c0.07-0.03,0.13-0.06,0.21-0.09l0.03-0.01
						c1.49-0.44,3.43-0.57,7.97,3.1c0.69,0.56,1.44,1.2,2.27,1.95l0,0c1.28,1.13,2.69,2.42,4.24,3.85c0.04,0.04,0.08,0.07,0.12,0.11
						c0.3,0.28,0.61,0.56,0.92,0.85c2.54,2.3,4.19,3.8,4.65,4.22c2.3,2.05,4.82,4.22,7.57,6.45c0.85,0.69,1.72,1.38,2.62,2.08
						c0.97,0.76,1.98,1.52,3.01,2.28c3.66,2.71,7.68,5.44,12.11,8.09c0.55,0.33,1.1,0.67,1.66,0.99c0.32,0.19,0.67,0.37,1,0.56
						L60.82,354.26z M273.37,354.71c-3.65-0.67-9.14-1.59-19.09-0.86c-3.78,0.28-8.56,0.79-13.1,1.45
						c8.56-4.3,15.67-8.5,21.26-12.55L273.37,354.71z M270.8,317.9l0.03,0.01c0.08,0.02,0.14,0.06,0.21,0.09l0.38,0.15
						c0.02,0.01,0.05,0.03,0.08,0.05c0.09,0.05,0.16,0.1,0.23,0.15c0.03,0.02,0.05,0.04,0.08,0.06c0.09,0.07,0.18,0.13,0.23,0.18
						c0.17,0.14,0.35,0.31,0.52,0.51c0.11,0.13,0.22,0.29,0.32,0.44c0.05,0.08,0.1,0.15,0.15,0.24c0.13,0.21,0.23,0.44,0.34,0.7
						c0.02,0.06,0.04,0.12,0.06,0.18c0.11,0.29,0.2,0.6,0.27,0.96v0c0.08,0.38,0.14,0.77,0.15,1.17c0,0.04,0.01,0.07,0.01,0.11l0,0
						c0.01,0.53-0.05,1.08-0.17,1.64c-0.59,2.8-3.01,7.33-10.87,13.51c-0.63,0.49-1.3,1-1.99,1.51c-0.78,0.58-1.6,1.16-2.48,1.76
						c-6.83,4.67-16.59,10.13-30.51,16.35c-0.02,0.01-0.05,0.02-0.07,0.03c-0.06,0.03-0.12,0.05-0.18,0.07l-3.25-3.52l-1.69-1.82
						c0.33-0.19,0.67-0.37,1-0.56c0.57-0.33,1.11-0.66,1.66-0.99c4.42-2.65,8.45-5.38,12.11-8.09c1.03-0.76,2.03-1.52,3.01-2.28
						c0.9-0.7,1.77-1.39,2.62-2.08c2.75-2.23,5.27-4.4,7.57-6.45c0.47-0.42,2.12-1.92,4.65-4.22c0.31-0.28,0.62-0.57,0.92-0.85
						c0.04-0.04,0.08-0.07,0.12-0.11c1.55-1.43,2.96-2.72,4.24-3.85l0,0c0.82-0.75,1.57-1.39,2.27-1.95
						C267.37,317.34,269.32,317.46,270.8,317.9z M259.01,303.22c3.16,3.78,6.4,7.64,8.89,10.56c-3.8,1.07-8.25,5.13-13.91,10.33
						c-0.07,0.06-0.13,0.12-0.2,0.19c-2.52,2.31-5.36,4.93-8.58,7.7c-2.78,2.39-5.85,4.9-9.24,7.44c-0.26,0.2-0.53,0.39-0.8,0.59
						c-0.97,0.72-1.97,1.43-3,2.15c-2.5,1.75-5.16,3.5-7.99,5.22c-0.76,0.46-1.51,0.92-2.29,1.37c-0.56,0.33-1.14,0.65-1.71,0.97
						c-0.53,0.3-1.05,0.6-1.6,0.89c-0.53,0.29-1.08,0.57-1.62,0.86c-17.97,9.48-41.95,17.07-74.3,17.07c-0.02,0-0.04,0-0.06,0
						c-0.02,0-0.04,0-0.06,0c-32.36,0-56.34-7.59-74.3-17.07c-0.54-0.29-1.09-0.57-1.62-0.86c-0.54-0.3-1.07-0.59-1.6-0.89
						c-0.57-0.32-1.15-0.64-1.71-0.97c-0.78-0.45-1.54-0.91-2.29-1.37c-2.83-1.72-5.49-3.47-7.99-5.22c-1.02-0.72-2.02-1.44-3-2.15
						c-0.27-0.2-0.54-0.39-0.8-0.59c-3.39-2.54-6.46-5.05-9.24-7.44c-3.22-2.77-6.07-5.39-8.58-7.7c-0.07-0.06-0.13-0.12-0.2-0.19
						c-5.65-5.2-10.11-9.27-13.91-10.33c2.5-2.92,5.73-6.78,8.89-10.56c1.21-1.44,2.42-2.89,3.59-4.29c3.62,2.11,7.85,3.5,12.51,3.9
						c1.59,0.14,3.12,0.22,4.62,0.22c4.14,0,7.97-0.64,11.8-2.42c23.34,17.27,55.16,28.29,83.84,28.29c0.02,0,0.04,0,0.06,0
						s0.04,0,0.06,0c28.66,0,60.46-11,83.79-28.26c3.8,1.75,7.6,2.39,11.71,2.39c1.5,0,3.03-0.08,4.62-0.22
						c4.7-0.41,8.97-1.81,12.61-3.96C256.56,300.29,257.79,301.76,259.01,303.22z M255.18,293.14c-0.94,0.72-1.94,1.37-3.01,1.94
						c-2.87,1.53-6.18,2.52-9.83,2.84c-1.49,0.13-2.9,0.2-4.25,0.2c-2.52,0-4.84-0.29-7.1-0.99c-1.24-0.38-2.46-0.88-3.69-1.54
						c-1.93-1.04-3.88-2.46-5.93-4.37c-0.44-0.41-1.01-0.63-1.61-0.63h-23.97H179.8h-11.84l0.17-0.34c0.86-1.66,2.48-2.99,4.38-3.75
						c1.09-0.43,2.27-0.68,3.46-0.68l14.24,0c1.24,0,2.57-0.91,2.57-2.27c0-4.46,3-7.02,8.22-7.02h22.3h3.76
						c3.13,0,5.67,2.54,5.67,5.67c0,1.3,1.06,2.35,2.35,2.35h7.71c1.3,0,2.35-1.06,2.35-2.35c0-1.3-1.06-2.35-2.35-2.35h-5.63
						l-0.04-0.17c-1.16-4.61-5.28-7.83-10.03-7.85c-0.01,0-0.02,0-0.04,0h-19.83l0.13-0.32c1.09-2.61,3.62-4.3,6.44-4.3h10.94h15.52
						c3.06,0,5.55-2.49,5.55-5.55v-23.17h7.1c1.3,0,2.35-1.06,2.35-2.35c0-1.3-1.06-2.35-2.35-2.35h-7.1v-8.12h7.1
						c1.3,0,2.35-1.05,2.35-2.35c0-1.3-1.06-2.35-2.35-2.35h-7.1v-19.7c0-5.01,3.67-9.29,8.36-9.73c2.65-0.26,5.2,0.58,7.16,2.37
						c1.93,1.76,3.04,4.26,3.04,6.87v5.34c0,1.3,1.06,2.35,2.35,2.35c4.29,0,7.77,3.49,7.77,7.77v50.77c0,2.65-1.11,5.15-3.04,6.87
						c-2.47,2.19-5.78,2.37-8.99,2.23c-1.33-0.05-2.46,0.85-2.58,2.12c-0.12,1.29,0.83,2.44,2.12,2.57
						c0.07,0.01,0.19,0.02,0.34,0.03l0.25,0.02l-0.04,0.25C261.69,286,259.05,290.16,255.18,293.14z"/>
				</g>
				<g>
					<path class="st1" d="M142.79,54.2c12.77,0,23.14-10.39,23.14-23.23c0-12.8-10.37-23.19-23.14-23.19
						c-12.8,0-23.17,10.39-23.17,23.19C119.62,43.81,129.99,54.2,142.79,54.2"/>
					<path class="st2" d="M147.76,43.74c-2.45,2.36-4.68,3.18-9.26,3.21c-7.35,0.02-14.66-6.94-14.66-16.15
						c0-10.66,8.64-19.27,19.28-19.27c4.49,0,8.61,1.54,11.9,4.11c0,0-12.51-5.63-21.25,3.33c-4.78,4.9-4.26,10.68-2.71,13.72
						c2.24,4.23,5.46,3.23,5.46,3.23c0.86-2.83,3.47-4.88,6.59-4.88c3.75,0,6.85,3.08,6.85,6.88
						C149.98,40.05,149.15,42.35,147.76,43.74"/>
					<path class="st4" d="M138.42,18.24c2.43-2.36,4.67-3.21,9.25-3.21C155,15,162.3,21.95,162.3,31.15
						c0,10.64-8.61,19.3-19.23,19.3c-4.5,0-8.67-1.54-11.93-4.13c0,0,12.5,5.64,21.24-3.3c4.78-4.91,4.27-10.72,2.69-13.71
						c-2.22-4.24-5.46-3.26-5.46-3.26c-0.84,2.84-3.46,4.89-6.53,4.89c-3.8,0-6.88-3.07-6.88-6.89
						C136.2,21.9,137.03,19.57,138.42,18.24"/>
					<g>
						<g>
							<path class="st5" d="M86.79,74.56v5.55c0,1.23-0.56,1.94-1.54,1.94c-0.6,0-1.16-0.33-1.62-0.96l-0.03-0.04l-0.92,0.96
								l0.02,0.03c0.58,0.85,1.51,1.34,2.56,1.34c1.83,0,2.93-1.18,2.93-3.17v-5.65H86.79z"/>
							<path class="st5" d="M96.47,74.56v5.47c0,1.24-0.84,2.01-2.2,2.01c-1.34,0-2.2-0.79-2.2-2.01v-5.47h-1.38v5.53
								c0,1.99,1.41,3.28,3.58,3.28c2.17,0,3.58-1.29,3.58-3.28v-5.53H96.47z"/>
							<polygon class="st5" points="106.85,74.56 106.85,81.03 101.8,74.58 101.79,74.56 100.42,74.56 100.42,83.25 101.82,83.25 
								101.82,76.84 106.85,83.23 106.86,83.25 108.24,83.25 108.24,74.56 							"/>
							<path class="st5" d="M118.85,78.7l0-0.04h-4.34v1.29h2.89c-0.21,1.26-1.24,2.07-2.65,2.07c-1.71,0-2.95-1.31-2.95-3.12
								c0-1.81,1.23-3.12,2.92-3.12c1.06,0,1.84,0.43,2.55,1.39l0.03,0.04l1.08-0.77l-0.02-0.04c-0.81-1.25-2.14-1.97-3.63-1.97
								c-2.45,0-4.37,1.96-4.37,4.47c0,2.51,1.93,4.47,4.4,4.47c2.43,0,4.12-1.71,4.12-4.16C118.87,79.02,118.86,78.86,118.85,78.7z
								"/>
							<polygon class="st5" points="127.52,78.12 130.65,74.64 130.72,74.56 128.92,74.56 125.13,78.76 125.13,74.56 123.74,74.56 
								123.74,83.25 125.13,83.25 125.13,80.63 126.54,79.09 129.21,83.23 129.22,83.25 130.91,83.25 							"/>
							<polygon class="st5" points="142.8,74.56 140.75,81.84 138.75,74.74 138.74,74.7 137.28,74.7 135.28,81.84 133.23,74.6 
								133.22,74.56 131.82,74.56 134.18,83.22 134.19,83.25 136.36,83.25 138.01,77.01 139.66,83.22 139.67,83.25 141.84,83.25 
								144.19,74.62 144.2,74.56 							"/>
							<path class="st5" d="M149.47,74.59l-0.01-0.03h-1.47l-3.49,8.62l-0.03,0.06h1.48l0.67-1.79h4.19l0.67,1.79h1.48L149.47,74.59
								z M150.39,80.26h-3.34l1.67-4.05L150.39,80.26z"/>
							<polygon class="st5" points="160.97,74.56 160.97,81.03 155.93,74.58 155.92,74.56 154.55,74.56 154.55,83.25 155.94,83.25 
								155.94,76.84 160.97,83.23 160.99,83.25 162.36,83.25 162.36,74.56 							"/>
							<path class="st5" d="M170.9,74.56v5.55c0,1.23-0.56,1.94-1.54,1.94c-0.6,0-1.16-0.33-1.62-0.96l-0.03-0.04l-0.92,0.96
								l0.02,0.03c0.57,0.85,1.51,1.34,2.56,1.34c1.83,0,2.93-1.18,2.93-3.17v-5.65H170.9z"/>
							<path class="st5" d="M178.52,74.59l-0.01-0.03h-1.47l-3.49,8.62l-0.03,0.06H175l0.67-1.79h4.19l0.67,1.79h1.48L178.52,74.59z
								 M179.44,80.26h-3.34l1.67-4.05L179.44,80.26z"/>
							<polygon class="st5" points="190.02,74.56 190.02,81.03 184.98,74.58 184.96,74.56 183.6,74.56 183.6,83.25 184.99,83.25 
								184.99,76.84 190.02,83.23 190.03,83.25 191.41,83.25 191.41,74.56 							"/>
							<path class="st5" d="M202.01,78.7l0-0.04h-4.34v1.29h2.89c-0.21,1.26-1.24,2.07-2.65,2.07c-1.71,0-2.95-1.31-2.95-3.12
								c0-1.81,1.23-3.12,2.92-3.12c1.06,0,1.84,0.43,2.55,1.39l0.03,0.04l1.08-0.77l-0.02-0.04c-0.81-1.25-2.14-1.97-3.63-1.97
								c-2.45,0-4.37,1.96-4.37,4.47c0,2.51,1.93,4.47,4.4,4.47c2.43,0,4.12-1.71,4.12-4.16C202.04,79.02,202.03,78.86,202.01,78.7z
								"/>
						</g>
						<g>
							<g>
								<path class="st5" d="M99.62,120.23h11.52v-5.66H99.61v-12.83l13.69,0.01V96.1H75v5.66h18.42v31.46h-7.17v-22.41h-6.19v22.41
									h-7.65v5.65h43.41v-5.65H99.61L99.62,120.23z M196.32,96.09v-5.13h-6.24v5.13h-18.42v15.84c0,1.47-0.02,2.74-0.06,3.82
									c-0.03,1.06-0.13,2.26-0.27,3.59c-0.25,2.58-0.71,6.45-1.37,9.4c-0.66,2.98-1.47,6.11-2.44,9.41l-0.1,0.32l5.96,1.44
									l0.09-0.29c0.47-1.55,0.92-3.16,1.35-4.83c0.43-1.68,0.82-3.32,1.16-4.95c0.34-1.62,0.65-3.15,0.92-4.61
									c0.28-1.49,0.46-3.9,0.57-5.09c0.07-0.68,0.13-1.33,0.16-1.95c0.04-0.61,0.07-1.23,0.11-1.86c0.03-0.63,0.05-1.29,0.05-1.98
									v-12.88h34.8v-5.38H196.32z M196.87,119.88h11.42v-5.39h-11.42l0.01-10.75h-6.2v10.75l-10.5,0.01v5.38h10.5v13.77h-14.01
									v5.39h35.43v-5.39h-15.23L196.87,119.88z M145.09,90.96h-6.24v5.29h-19.15v10.98h6.19v-5.6h32.54v5.6h6.19V96.25h-19.53
									V90.96z M158.65,123.44h-0.54l-24.68-0.01v-3.49h16.39c0.12,0,0.26,0.01,0.39,0.01c2.01,0,3.61-0.53,4.66-1.62
									c1.02-1.07,1.52-2.63,1.52-4.59c0-0.12,0-0.25-0.01-0.38v-8.31h-29.01v34.3h24.9c0.07,0.01,0.14,0.01,0.21,0.01
									c0.07,0,0.14,0,0.21,0c2.04,0.01,3.61-0.5,4.64-1.56c0.89-0.93,1.32-2.25,1.32-3.87c0-0.11,0-0.22-0.01-0.34V123.44z
									 M133.42,110.46h16.97v1.24c0,0.12,0.01,0.24,0.01,0.37c0.01,0.86-0.22,1.87-0.48,2.11c-0.31,0.33-0.84,0.53-1.63,0.53
									c-0.11-0.01-0.22-0.01-0.35-0.01l-14.53-0.01V110.46z M152.32,133.57c-0.24,0.27-0.67,0.43-1.36,0.43
									c-0.11,0-0.23,0-0.37-0.01h-17.17v-5.21h19.22v3.36c0.01,0.12,0.01,0.22,0.01,0.31
									C152.66,132.99,152.53,133.36,152.32,133.57"/>
							</g>
						</g>
					</g>
					<g>
						<path class="st2" d="M132.85,162.57c0.06,0,0.12,0,0.18-0.01l-0.18-0.06C132.85,162.53,132.85,162.55,132.85,162.57z"/>
						<path class="st2" d="M111.64,260.99c16.46,1.1,33.15-5.78,41.39-11.41c2.52-1.75,4.93-3.37,6.74-5.16
							c2.36-2.43,4.21-4.5,5.1-7.04c0.92-2.66-2.53-5.31-5.35-6.27c-1.05,1.44-3.6,4.3-3.6,4.3c-8.75,9.76-26.82,20.83-42.12,22.47
							C112.43,258.03,111.64,260.99,111.64,260.99z"/>
						<path class="st2" d="M124.5,232.62L124.5,232.62c10.48-1.55,15.31-5.13,21-9.5c1.55-1.34,2.38-2.35,2.4-3.15
							c0.04-2.28-3.07-4.38-5.81-4.66c-3.45,4.95-11.28,11.87-18.2,15.01c-0.01,0-0.01,0.01-0.01,0.01c-0.07,0.03-0.13,0.05-0.2,0.1
							c-0.42,0.25-0.43,0.72-0.27,1.23c0.13,0.4,0.44,1.1,0.44,1.1S124.13,232.7,124.5,232.62z"/>
						<path class="st2" d="M122.2,241.84c-0.13,0.17-0.31,0.35-0.38,0.79c-0.07,0.45-0.09,0.95-0.09,0.95s0.37,0,0.83-0.01l0,0.01
							c0.1,0,0.22-0.01,0.32-0.01c0.07,0,0.14,0,0.22-0.01c0.03,0,0.07-0.01,0.1-0.01c8.76-0.31,24.44-6.3,31.05-12.7
							c1.59-1.45,2.42-2.6,2.48-3.35c0.1-2.09-3.41-4.59-6.23-4.91c-4.17,5.05-16.17,15.3-26.17,18.37
							c-0.03,0.01-0.04,0.03-0.07,0.04c-0.27,0.09-0.55,0.18-0.83,0.25C122.65,241.46,122.4,241.57,122.2,241.84z"/>
						<path class="st2" d="M148.03,175.43c-0.56-2.72-3.91-3.74-8.17-3.65c-1.54,3.78-4.65,8.87-9.66,15.24
							c-2.51,0.03-4.36-0.03-5.45-0.18c-1.81,1.97-1.15,5.26-0.24,7.32c4.08,1.82,15.83-0.61,15.83-0.61
							c1.84-0.3,8.71-2.04,9.79-2.38c1.85-0.57,3.31-1.03,4.47-1.42c0.3,2.03,1.19,3.77,2.61,5.01c3.08-0.8,4.55-2.44,4.64-5.03
							c0.18-5.41-6.64-10.36-11.43-10.41c0,0,2.54,3.84,3.5,6.67c-1.27,0.06-2.76,0.15-4.55,0.27c-3.62,0.25-9.74,0.32-13.39,0.73
							C135.98,186.98,147.13,179.45,148.03,175.43z"/>
						<path class="st2" d="M191.69,230.1c1.87-1.6,2.75-2.25,4.21-4.64c-0.08-0.02-0.15-0.03-0.23-0.05l0,0
							c-15.68-3.34-25.24-6.45-31.86-10.2l-3.31-2c-0.9-0.69-1.89-1.4-2.9-2.13c1.4-0.19,6.11-0.28,16.74-4.11
							c0,0,0.89,4.27,4.07,5.22c3.3-0.6,4.54-4.62,3.13-7.22c-1.62-3.01-6.11-5.01-9.3-4.83l1.51,3.74
							c-3.68,0.52-9.26,0.76-12.01,1.03c0,0,7.66-5.42,9.67-10.89c-0.09-2.69-5.23-5.42-7.77-3.99c-1.02,4.55-4.15,10.83-6.7,14.64
							c0,0-2.18,0-3.04,0.86l0.49,3.2c-2.7-2.01-5.2-4.02-6.45-5.8c0,0,1.24-2.78,1.36-3.53c-0.65-1.14-1.75-2.01-2.85-2.65
							c-0.17-0.13-0.35-0.25-0.54-0.36c-1.95-1.11-5.62-2.01-5.62-2.01s-0.25,1.43-1.86,3.88c-1.76,2.46-4.12,5.35-6.65,8.1
							c-0.2-0.89-0.58-1.94-1.37-2.84c-1.66-2.02-4.32-3.41-6.95-3.7c0,0,0.08,3.41,0.59,5.15c0,0-5.47,0.62-10.55,0.56
							c0,0,8.24-7.03,9.8-11.13c0.03-2-3.5-4.55-6.87-4.79c-1.32,3.61-5.06,11.56-8.2,15.55c-2.97-0.01-5.58,0.91-5.58,0.91
							c0.06,3.71,1.72,6.03,4.99,5.86c6.88,0.12,17.32-3.89,17.32-3.89c0.46,1.6,1.52,2.43,2.3,2.85c-0.02,0.02-0.03,0.03-0.05,0.05
							l-4.14,4.05c-5.18,4.58-11.97,9.05-18.64,12.97c-2.46,1.2-5.7,2.9-8.5,3.56c-1.34,0.32-1.42,0.37-1.55,2
							c-0.04,0.5-0.07,0.73,0.04,0.83c0.06,0.06,0.31,0.04,0.64-0.02c-0.01,0.01-0.04,0.04-0.04,0.04
							c16.19-2.1,32.57-11.41,48.94-26.93c7.66,9.55,17.53,18.7,31.03,24.79C180.48,234.72,187.95,233.57,191.69,230.1z"/>
						<path class="st2" d="M164.09,155.7c-1.31-1.84-7.36-2.71-9.99-1.96c-0.11,2.7-0.15,5.29-0.44,8.56
							c-5.35-0.08-14.39-0.04-20.81,0.2c-0.03-2.73,0.12-5.43,0.2-7.68c-2.2-0.79-7.42-0.38-8.65,1.14
							c-0.41,0.55-0.54,1.66-0.31,3.25c0.13,1.22,0.32,2.46,0.58,3.69c-5.95,0.25-12.01,0.56-14.63,0.86
							c-1.22,0.04-2.53,0.17-2.29,0.55c0.28,0.45,4.72,7.98,4.72,7.98c1.11,1,8.94-0.96,13.87-1.52c0,0,0.9-0.14,1.11-0.16
							c1.44,2.5,3.34,4.39,5.75,5.08c0,0,0.39-3.03,0.26-5.73c2.29-0.21,4.64-0.39,6.89-0.48c3.91-0.16,7.97-0.33,12.28-0.4
							c-0.41,1.62-0.9,2.49-1.4,4.26c-0.48,1.68,0.08,2.93,0.08,2.93c3.73-1.61,6.59-3.99,8.73-6.97c1.03-0.01,3.35,0.04,5.06,0.09
							c3.67,0.13,6.04,0.32,8.94,0.53c1.66,0.12,4.47,0.28,4.89,0.32c0,0,1-4.77-3.58-6.28c-3.85-1.26-6.1-1.39-12.01-1.58
							c0.32-1.07,0.64-1.72,0.85-2.87C164.59,157.66,164.53,156.36,164.09,155.7z M132.85,162.57c0-0.02,0-0.04,0-0.06l0.18,0.06
							C132.97,162.57,132.91,162.57,132.85,162.57z"/>
					</g>
					<path class="st1" d="M114.15,313.26c-0.56,0.11-1.16,0.15-1.8,0.13c-0.63-0.02-1.34-0.14-2.12-0.34
						c-0.8-0.21-1.49-0.53-2.08-0.96c-0.59-0.43-1.06-0.94-1.41-1.52c-0.35-0.58-0.57-1.23-0.67-1.93c-0.1-0.71-0.04-1.44,0.16-2.21
						c0.21-0.79,0.53-1.46,0.98-2.03c0.44-0.56,0.96-1,1.55-1.32c0.59-0.32,1.25-0.51,1.96-0.58c0.71-0.07,1.45,0,2.21,0.2
						c0.79,0.21,1.48,0.51,2.07,0.91c0.59,0.4,1.04,0.84,1.34,1.32l-1.55,0.99c-0.18-0.34-0.46-0.67-0.86-0.99
						c-0.4-0.31-0.86-0.54-1.39-0.68c-0.52-0.14-1.01-0.17-1.48-0.09c-0.47,0.07-0.9,0.23-1.28,0.48c-0.38,0.25-0.71,0.57-0.99,0.96
						c-0.28,0.39-0.48,0.85-0.62,1.36c-0.14,0.53-0.19,1.04-0.14,1.52c0.04,0.48,0.18,0.93,0.39,1.33c0.22,0.41,0.51,0.75,0.9,1.05
						c0.38,0.29,0.85,0.51,1.39,0.66c0.75,0.2,1.43,0.26,2.05,0.17l0.66-2.51l-2.07-0.55l0.38-1.45l3.77,1L114.15,313.26z"/>
					<path class="st1" d="M119.88,304.48l1.78,0.32l-1.78,10.04l-1.78-0.32L119.88,304.48z"/>
					<path class="st1" d="M124.97,305.38l2.39,0.24l3.95,8.06l0.03,0l0.76-7.59l1.8,0.18l-1.02,10.14l-2.29-0.23l-4.02-8.32l-0.03,0
						l-0.78,7.84l-1.8-0.18L124.97,305.38z"/>
					<path class="st1" d="M142.42,308.64c-0.19-0.25-0.45-0.47-0.8-0.64c-0.35-0.17-0.7-0.27-1.05-0.27c-0.21,0-0.42,0.02-0.63,0.07
						c-0.21,0.05-0.4,0.13-0.58,0.23c-0.18,0.11-0.32,0.25-0.43,0.42c-0.11,0.18-0.17,0.39-0.18,0.64c0,0.23,0.04,0.43,0.13,0.59
						c0.09,0.17,0.22,0.31,0.39,0.43c0.17,0.12,0.37,0.22,0.6,0.32c0.24,0.09,0.5,0.18,0.79,0.27c0.32,0.11,0.66,0.24,1.01,0.38
						c0.35,0.14,0.66,0.33,0.95,0.55c0.29,0.23,0.52,0.51,0.7,0.85c0.18,0.34,0.27,0.76,0.26,1.26c-0.01,0.55-0.12,1.02-0.33,1.43
						c-0.21,0.4-0.48,0.74-0.83,1c-0.34,0.26-0.74,0.46-1.19,0.58c-0.45,0.13-0.93,0.18-1.43,0.17c-0.66-0.01-1.3-0.15-1.93-0.41
						c-0.63-0.26-1.14-0.63-1.53-1.12l1.32-1.18c0.24,0.35,0.57,0.63,0.98,0.84c0.41,0.21,0.82,0.32,1.22,0.33
						c0.21,0,0.43-0.02,0.65-0.07c0.22-0.05,0.42-0.13,0.6-0.25c0.18-0.12,0.33-0.28,0.44-0.46c0.11-0.19,0.17-0.42,0.18-0.7
						c0.01-0.27-0.05-0.49-0.17-0.67c-0.12-0.18-0.29-0.34-0.49-0.47c-0.21-0.13-0.45-0.25-0.74-0.35c-0.29-0.1-0.59-0.21-0.9-0.32
						c-0.3-0.1-0.61-0.22-0.91-0.36c-0.3-0.14-0.58-0.32-0.82-0.55c-0.24-0.23-0.43-0.5-0.58-0.83c-0.15-0.32-0.22-0.73-0.21-1.21
						c0.01-0.52,0.13-0.96,0.35-1.33c0.22-0.37,0.51-0.68,0.87-0.91c0.35-0.24,0.76-0.41,1.2-0.52c0.45-0.11,0.9-0.16,1.36-0.15
						c0.52,0.01,1.04,0.11,1.57,0.3c0.53,0.19,0.98,0.48,1.37,0.85L142.42,308.64z"/>
					<path class="st1" d="M146.67,306.49l6.73-0.33l0.08,1.58l-4.92,0.24l0.13,2.59l4.67-0.23l0.08,1.52l-4.67,0.23l0.14,2.88
						l5.18-0.26l0.08,1.61l-6.99,0.35L146.67,306.49z"/>
					<path class="st1" d="M156.5,305.94l2.38-0.32l5.72,6.92l0.03,0l-1.03-7.56l1.79-0.25l1.38,10.1l-2.28,0.31l-5.85-7.15l-0.03,0
						l1.06,7.8l-1.79,0.24L156.5,305.94z"/>
					<path class="st1" d="M179.58,311.28c-0.44,0.37-0.94,0.7-1.51,0.99c-0.56,0.29-1.24,0.53-2.02,0.73
						c-0.8,0.2-1.56,0.26-2.28,0.17c-0.72-0.09-1.38-0.3-1.97-0.64c-0.59-0.34-1.1-0.79-1.53-1.36c-0.43-0.57-0.74-1.24-0.94-2.01
						c-0.2-0.79-0.25-1.54-0.14-2.25c0.11-0.71,0.35-1.35,0.71-1.91c0.36-0.57,0.84-1.06,1.43-1.46c0.59-0.41,1.26-0.71,2.02-0.9
						c0.79-0.2,1.54-0.27,2.25-0.21c0.71,0.06,1.32,0.23,1.81,0.5l-0.88,1.62c-0.32-0.21-0.73-0.36-1.23-0.44
						c-0.5-0.08-1.01-0.05-1.54,0.08c-0.52,0.13-0.97,0.35-1.34,0.64c-0.37,0.29-0.67,0.64-0.88,1.04c-0.21,0.4-0.35,0.84-0.4,1.32
						c-0.05,0.48-0.01,0.97,0.12,1.49c0.14,0.53,0.34,1,0.62,1.4c0.27,0.4,0.61,0.72,0.99,0.97c0.38,0.25,0.82,0.41,1.29,0.48
						c0.48,0.07,0.99,0.04,1.54-0.1c0.75-0.19,1.38-0.47,1.88-0.85l-0.64-2.51l-2.07,0.53l-0.37-1.45l3.77-0.96L179.58,311.28z"/>
					<g>
						<path class="st1" d="M84.61,327.99c-2.43-1.12-5.53-0.88-6.78,1.76c-1.22,2.57,0.56,4.51,2.83,6.6
							c1.81,1.66,2.59,2.65,2.08,3.73c-0.53,1.13-2.05,1.38-3.69,0.62c-1.72-0.8-2.69-2.25-2.73-4.08l0-0.13l-2.38,0.42l0,0.09
							c-0.02,2.44,1.57,4.7,4.15,5.89c0.95,0.44,2,0.69,3,0.69c1.7,0,3.28-0.71,4.06-2.41c1.29-2.8-0.6-4.6-2.8-6.69l-0.25-0.24
							c-1.55-1.47-2.4-2.27-1.88-3.4c0.56-1.21,2.11-1.25,3.36-0.67c1.94,0.9,2.28,2.81,2.33,3.58l0.01,0.12l2.47-0.44l0-0.1
							C88.33,332.24,87.86,329.5,84.61,327.99z"/>
						<polygon class="st1" points="94.79,332.5 89.52,347.25 89.48,347.36 91.85,348.2 91.96,348.24 97.23,333.49 97.26,333.39 
							94.89,332.54 						"/>
						<polygon class="st1" points="111.81,349.47 105.46,336.02 105.43,335.98 102.93,335.38 99.29,350.74 101.84,351.35 
							104.51,340.12 110.86,353.45 110.89,353.49 113.41,354.09 117.05,338.73 114.5,338.12 						"/>
						<path class="st1" d="M129.92,340c-4.52-0.41-8.41,2.82-8.82,7.36c-0.41,4.54,2.84,8.42,7.41,8.83
							c0.26,0.02,0.52,0.03,0.77,0.03c2.57,0,4.95-1.17,6.48-3.23l0.06-0.08l-1.76-1.48l-0.09-0.07l-0.07,0.09
							c-1.36,1.65-3.16,2.42-5.18,2.25c-3.13-0.28-5.19-2.85-4.9-6.09c0.14-1.58,0.81-2.95,1.87-3.88c1.06-0.93,2.49-1.36,3.99-1.23
							c2.01,0.18,3.56,1.26,4.61,3.2l0.06,0.1l2.08-1.19l0.09-0.05l-0.05-0.09C135.19,341.89,132.79,340.26,129.92,340z"/>
						<polygon class="st1" points="144.38,354.18 144.29,349.7 151.59,349.55 151.54,347.14 144.24,347.29 144.16,343.23 
							152.66,343.05 152.61,340.64 141.48,340.87 141.8,356.54 141.8,356.65 153.06,356.42 153.17,356.41 153.12,354.01 						"/>
						<polygon class="st1" points="165.35,339.29 159.79,339.98 160.08,342.36 163.03,341.99 164.66,355.19 164.67,355.29 
							167.29,354.97 165.36,339.4 						"/>
						<path class="st1" d="M180.86,344.03c1.12-0.93,1.57-2.24,1.25-3.71c-0.56-2.61-2.92-3.86-6.03-3.2
							c-3.07,0.66-4.69,2.77-4.13,5.38c0.32,1.46,1.21,2.45,2.59,2.87c-1.45,1.1-2.02,2.57-1.66,4.27c0.49,2.26,2.37,3.59,4.9,3.59
							c0.55,0,1.13-0.06,1.73-0.19c3.39-0.73,5.26-3.07,4.67-5.82C183.82,345.53,182.67,344.43,180.86,344.03z M175.42,348.94
							c-0.15-0.71,0-1.37,0.45-1.91c0.45-0.54,1.18-0.93,2.1-1.13c0.38-0.08,0.74-0.12,1.07-0.12c1.35,0,2.3,0.66,2.55,1.83
							c0.15,0.71,0,1.38-0.45,1.94c-0.46,0.59-1.2,1-2.13,1.2c-0.9,0.19-1.73,0.11-2.39-0.23C176,350.2,175.57,349.63,175.42,348.94
							z M179.6,340.97c0.28,1.32-0.52,2.35-2.1,2.69c-1.53,0.33-2.7-0.3-2.98-1.6c-0.27-1.23,0.59-2.31,2.07-2.63
							c0.26-0.06,0.52-0.08,0.76-0.08C178.5,339.34,179.38,339.95,179.6,340.97z"/>
						<path class="st1" d="M196.06,333.7c-1.49-1.06-3.22-1.26-5.14-0.61c-1.6,0.54-2.79,1.47-3.45,2.69
							c-0.67,1.24-0.75,2.71-0.23,4.25c0.5,1.46,1.41,2.53,2.66,3.09c1.24,0.56,2.72,0.57,4.28,0.04c1.46-0.5,2.47-1.42,2.87-2.61
							c0.74,2.87-0.29,5.15-2.75,5.98c-0.89,0.3-1.95,0.34-2.97,0.08l-0.13-0.03l-0.13,2.42l0.09,0.02c0.49,0.14,1.01,0.2,1.54,0.2
							c0.8,0,1.65-0.15,2.53-0.45c2.23-0.76,3.68-2.12,4.31-4.05c0.58-1.78,0.44-3.94-0.41-6.45
							C198.43,336.22,197.37,334.63,196.06,333.7z M193.64,340.87c-1.89,0.65-3.28,0.01-3.88-1.77c-0.29-0.85-0.26-1.66,0.09-2.34
							c0.35-0.68,1.01-1.2,1.9-1.5c0.36-0.12,0.7-0.18,1.02-0.18c1.34,0,2.36,0.95,2.75,2.1
							C195.98,338.54,195.48,340.24,193.64,340.87z"/>
						<path class="st1" d="M214.26,331.35c-2.05-4.27-5.33-5.84-8.78-4.19c-3.14,1.5-4.24,4.38-2.83,7.34
							c1.37,2.85,4.23,3.74,7.28,2.28c1.4-0.67,2.29-1.7,2.54-2.94c1.08,2.77,0.32,5.16-2.02,6.28c-0.86,0.41-1.9,0.56-2.95,0.44
							l-0.13-0.02l0.16,2.42l0.09,0.01c0.27,0.04,0.55,0.06,0.84,0.06c1.01,0,2.08-0.27,3.18-0.79c2.13-1.02,3.41-2.54,3.8-4.54
							C215.79,335.88,215.4,333.74,214.26,331.35z M210.71,332.81c-0.24,0.77-0.79,1.38-1.6,1.77c-1.81,0.87-3.26,0.41-4.08-1.3
							c-0.8-1.67-0.22-3.22,1.52-4.06c1.74-0.84,3.32,0.1,3.97,1.46C210.86,331.35,210.92,332.13,210.71,332.81z"/>
					</g>
				</g>
			</g>
		</g>
	</g>
</g>
</svg>
