<?xml version="1.0" encoding="utf-8"?>
<!-- Generator: Adobe Illustrator 25.0.0, SVG Export Plug-In . SVG Version: 6.00 Build 0)  -->
<svg version="1.1" id="图层_1" xmlns="http://www.w3.org/2000/svg" xmlns:xlink="http://www.w3.org/1999/xlink" x="0px" y="0px"
	 viewBox="0 0 724.19 122.76" style="enable-background:new 0 0 724.19 122.76;" xml:space="preserve">
<style type="text/css">
	.st0{fill:#CF000E;}
	.st1{fill:#231815;}
</style>
<g>
	<rect x="1.13" class="st0" width="723.06" height="22.14"/>
	<path class="st1" d="M14.89,98.33c0,5.71-1.08,9.68-3.19,11.78c-2.14,2.13-5.86,3.63-11.03,4.45L0,114.67l3.09,8.09l0.43-0.06
		c6.6-0.98,11.78-3.32,15.4-6.97c3.64-3.67,5.49-9.43,5.49-17.12V41.04h-9.52V98.33z"/>
	<path class="st1" d="M75.46,75.78c0,5.96-1.37,10.55-4.07,13.61c-2.69,3.05-6.56,4.6-11.5,4.6c-4.95,0-8.82-1.54-11.5-4.6
		c-2.7-3.07-4.07-7.65-4.07-13.61V41.04h-9.61v34.11c0,8.83,2.24,15.58,6.65,20.05c4.41,4.48,10.65,6.75,18.52,6.75
		c7.87,0,14.11-2.27,18.52-6.75c4.41-4.48,6.65-11.22,6.65-20.05V41.04h-9.6V75.78z"/>
	<polygon class="st1" points="140.66,74.17 140.9,87.86 105.21,41.26 105.04,41.04 95.36,41.04 95.36,100.78 104.52,100.78 
		104.52,69.99 104.03,53.81 139.79,100.57 139.95,100.78 149.9,100.78 149.9,41.04 140.66,41.04 	"/>
	<path class="st1" d="M189.63,77.42h15.22v14.09c-3.85,2.06-8.66,3.11-14.32,3.11c-6.33,0-11.64-2.07-15.78-6.16
		c-4.14-4.08-6.24-9.59-6.24-16.38c0-6.62,2.03-12.13,6.03-16.4c3.99-4.26,9.4-6.41,16.08-6.41c6.77,0,12.87,1.97,18.12,5.85
		l0.52,0.38l3.92-7.58l-0.38-0.28c-5.98-4.38-13.44-6.6-22.17-6.6c-8.82,0-16.39,2.93-22.49,8.72c-6.12,5.79-9.22,13.3-9.22,22.32
		c0,9.68,2.95,17.35,8.77,22.82c5.81,5.46,13.19,8.22,21.95,8.22c9.69,0,17.87-2.46,24.33-7.33l0.22-0.17V69.55h-24.56V77.42z"/>
	<path class="st1" d="M561.18,41.04l-24.17,59.74h9.33l7.25-17.77h24.76l7.61,17.77h9.35L570.6,41.04H561.18z M566.1,50.45
		l9.12,24.42h-18.4l9.21-24.42H566.1z"/>
	<polygon class="st1" points="292.59,41.04 281.68,41.05 253.81,76.48 253.81,41.05 244.51,41.05 244.51,115.73 253.81,115.73 
		253.81,90.61 262.11,79.69 284.92,115.73 295.5,115.73 268.34,72.16 	"/>
	<polygon class="st1" points="371.54,41.04 356.87,90.42 341.77,41.04 333.34,41.04 319.06,90.33 306.08,41.04 295.7,41.04 
		312.57,100.78 324.75,100.78 337.51,57.99 350.17,100.78 362.43,100.78 381.3,41.04 	"/>
	<path class="st1" d="M397.28,41.04l-24.17,59.74h9.33l7.25-17.77h24.76l7.61,17.77h9.35L406.7,41.04H397.28z M402.2,50.45
		l9.12,24.42h-18.4l9.21-24.42H402.2z"/>
	<polygon class="st1" points="481.56,74.17 481.8,87.86 445.95,41.04 436.27,41.04 436.27,100.78 445.42,100.78 445.42,69.99 
		444.94,53.81 480.86,100.78 490.81,100.78 490.81,41.04 481.56,41.04 	"/>
	<polygon class="st1" points="645.46,74.17 645.7,87.86 610.01,41.26 609.85,41.04 600.17,41.04 600.17,100.78 609.32,100.78 
		609.32,69.99 608.84,53.81 644.6,100.57 644.76,100.78 654.71,100.78 654.71,41.04 645.46,41.04 	"/>
	<path class="st1" d="M561.18,41.04l-24.17,59.74h9.33l7.25-17.77h24.76l7.61,17.77h9.35L570.6,41.04H561.18z M566.1,50.45
		l9.12,24.42h-18.4l9.21-24.42H566.1z"/>
	<path class="st1" d="M521.15,98.33c0,5.71-1.08,9.68-3.19,11.78c-2.14,2.13-5.86,3.63-11.03,4.45l-0.67,0.11l3.09,8.09l0.43-0.06
		c6.6-0.98,11.78-3.32,15.4-6.97c3.64-3.67,5.49-9.43,5.49-17.12V41.04h-9.51V98.33z"/>
	<path class="st1" d="M694.44,77.42h15.22v14.09c-3.85,2.06-8.66,3.11-14.32,3.11c-6.33,0-11.64-2.07-15.78-6.16
		c-4.14-4.08-6.24-9.59-6.24-16.38c0-6.62,2.03-12.13,6.03-16.4c3.99-4.26,9.4-6.41,16.08-6.41c6.77,0,12.87,1.97,18.12,5.85
		l0.52,0.38l3.92-7.58l-0.38-0.28c-5.98-4.38-13.44-6.6-22.17-6.6c-8.82,0-16.39,2.93-22.49,8.72c-6.12,5.79-9.22,13.3-9.22,22.32
		c0,9.68,2.95,17.35,8.77,22.82c5.81,5.46,13.19,8.22,21.95,8.22c9.69,0,17.87-2.46,24.33-7.33l0.22-0.17V69.55h-24.56V77.42z"/>
</g>
</svg>
